<?xml version="1.0" standalone="no"?>
<!DOCTYPE svg PUBLIC "-//W3C//DTD SVG 1.1//EN" "http://www.w3.org/Graphics/SVG/1.1/DTD/svg11.dtd" >
<svg xmlns="http://www.w3.org/2000/svg" xmlns:xlink="http://www.w3.org/1999/xlink" version="1.1">
<metadata>
Created by FontForge 20150102 at Wed Jan 14 04:58:34 2015
 By uniteet7
Copyright (c) 2011 by EdgarTolentino, PabloImpallari, IginoMarini. All rights reserved.
</metadata>
<defs>
<font id="DosisBold" horiz-adv-x="524" >
  <font-face 
    font-family="DosisBold"
    font-weight="700"
    font-stretch="normal"
    units-per-em="1000"
    panose-1="2 1 8 3 2 2 2 6 0 3"
    ascent="800"
    descent="-200"
    x-height="475"
    cap-height="731"
    bbox="-132 -237 1099 1012"
    underline-thickness="26"
    underline-position="-25"
    unicode-range="U+000D-FB02"
  />
<missing-glyph horiz-adv-x="388" 
d="M136 236l-91 135q-5 8 -6.5 14.5t-1.5 12.5q0 20 16 33.5t36 13.5q23 0 38 -20l67 -112l68 112q14 20 37 20q20 0 36.5 -13.5t16.5 -33.5q0 -14 -9 -27l-91 -135l91 -135q5 -7 7 -14t2 -13q0 -20 -16.5 -33t-36.5 -13q-11 0 -20.5 4.5t-16.5 14.5l-68 112l-67 -112
q-15 -19 -38 -19q-20 0 -36 13t-16 33q0 6 1.5 13t6.5 14z" />
    <glyph glyph-name="fi" unicode="fi" horiz-adv-x="566" 
d="M451 475q27 0 46.5 -11t19.5 -29v-394q0 -15 -19.5 -28t-46.5 -13q-28 0 -45.5 13t-17.5 28v394q0 18 17.5 29t45.5 11zM299 643q-55 0 -87 -26.5t-32 -78.5v-63h102q17 0 25.5 -15t8.5 -32q0 -18 -8.5 -32.5t-25.5 -14.5h-102v-341q0 -18 -20 -29t-46 -11q-27 0 -45 11
t-18 29v493q0 44 17 84t49 70t77.5 47.5t103.5 17.5q31 0 62 -5t55 -14.5t39 -22.5t15 -29q0 -6 -3 -18.5t-8.5 -25t-14 -22t-20.5 -9.5q-9 0 -18.5 6t-23 12.5t-33 12.5t-49.5 6z" />
    <glyph glyph-name="fl" unicode="fl" horiz-adv-x="577" 
d="M389 624q-14 10 -35.5 15.5t-44.5 5.5q-24 0 -47 -6.5t-41.5 -20t-29.5 -33.5t-11 -47v-63h102q17 0 25.5 -15t8.5 -32q0 -18 -8.5 -32.5t-25.5 -14.5h-102v-341q0 -18 -20 -29t-46 -11q-27 0 -45 11t-18 29v493q0 53 21.5 94t58 68.5t84 42t99.5 14.5q27 0 56 -4
t57 -11.5t51.5 -19.5t39.5 -28v-648q0 -15 -19 -28t-47 -13q-27 0 -45 13t-18 28v583z" />
    <glyph glyph-name=".notdef" horiz-adv-x="388" 
d="M136 236l-91 135q-5 8 -6.5 14.5t-1.5 12.5q0 20 16 33.5t36 13.5q23 0 38 -20l67 -112l68 112q14 20 37 20q20 0 36.5 -13.5t16.5 -33.5q0 -14 -9 -27l-91 -135l91 -135q5 -7 7 -14t2 -13q0 -20 -16.5 -33t-36.5 -13q-11 0 -20.5 4.5t-16.5 14.5l-68 112l-67 -112
q-15 -19 -38 -19q-20 0 -36 13t-16 33q0 6 1.5 13t6.5 14z" />
    <glyph glyph-name=".null" horiz-adv-x="0" 
 />
    <glyph glyph-name="nonmarkingreturn" unicode="&#xd;" horiz-adv-x="0" 
 />
    <glyph glyph-name="space" unicode=" " horiz-adv-x="200" 
 />
    <glyph glyph-name="exclam" unicode="!" horiz-adv-x="220" 
d="M172 680q0 -50 -2 -106t-5 -114t-5 -114.5t-2 -105.5q0 -20 -17 -29t-32 -9q-20 0 -34.5 9t-14.5 29q0 49 -2 105.5t-4.5 114.5t-4.5 114t-2 106q0 26 18 40.5t44 14.5t44.5 -14.5t18.5 -40.5zM110 130q28 0 48 -20t20 -48q0 -27 -20 -47.5t-48 -20.5q-29 0 -48.5 20.5
t-19.5 47.5q0 28 19.5 48t48.5 20z" />
    <glyph glyph-name="quotedbl" unicode="&#x22;" horiz-adv-x="303" 
d="M75 768q18 0 33.5 -9t15.5 -24l-10 -138q0 -12 -9.5 -22.5t-29.5 -10.5t-28.5 10.5t-8.5 22.5l-10 138q0 15 14.5 24t32.5 9zM226 768q18 0 33.5 -9t15.5 -24l-10 -138q0 -12 -9 -22.5t-30 -10.5q-20 0 -28.5 10.5t-8.5 22.5l-10 138q0 15 14.5 24t32.5 9z" />
    <glyph glyph-name="numbersign" unicode="#" horiz-adv-x="678" 
d="M278 713q23 0 41 -11.5t18 -37.5l-23 -128h110l27 150q2 13 18 20t35 7q23 0 41 -11.5t19 -37.5l-24 -128h78q14 0 26 -13.5t12 -34.5t-11.5 -34.5t-25.5 -13.5h-96l-23 -123h78q14 0 26.5 -14t12.5 -34q0 -22 -12 -35.5t-26 -13.5h-97l-29 -160q-2 -14 -18 -22t-33 -8
q-21 0 -42.5 12t-21.5 36l25 142h-108l-29 -160q-2 -14 -18.5 -22t-31.5 -8q-21 0 -42 12t-21 36l24 142h-78q-17 0 -26.5 13t-9.5 34t10 35.5t26 14.5h97l22 123h-78q-17 0 -27 12.5t-10 34.5q0 21 9.5 35t26.5 14h98l27 150q3 13 19 20t35 7zM274 317h108l23 123h-109z
" />
    <glyph glyph-name="dollar" unicode="$" horiz-adv-x="525" 
d="M238 1q-45 1 -84 12.5t-67.5 29.5t-44.5 39.5t-16 42.5q0 10 4.5 22.5t12 23t17.5 17.5t22 7q14 0 28 -10.5t31.5 -23.5t40.5 -25t56 -16v199q-34 13 -68.5 28t-62.5 37.5t-45.5 55t-17.5 80.5t16 82.5t43 58t62 36.5t73 18v28q0 10 10 17.5t24 7.5q13 0 23.5 -7.5
t10.5 -17.5v-26q24 -1 54 -5t56 -13.5t43.5 -24t17.5 -36.5q0 -9 -3 -20.5t-9.5 -22.5t-16.5 -18.5t-24 -7.5q-11 0 -21 5t-23.5 11.5t-31 12.5t-42.5 8v-176q33 -12 67 -28t61 -40.5t44 -59.5t17 -86q0 -92 -52.5 -145.5t-136.5 -66.5v-31q0 -10 -10.5 -17.5t-23.5 -7.5
q-14 0 -24 7.5t-10 17.5v28zM373 203q0 37 -21.5 57.5t-53.5 34.5v-174q33 7 54 27t21 55zM166 533q0 -33 22.5 -50t57.5 -31v151q-38 -6 -59 -23.5t-21 -46.5z" />
    <glyph glyph-name="percent" unicode="%" horiz-adv-x="787" 
d="M168 328q-30 0 -56.5 7t-45.5 22.5t-30 40t-11 59.5v145q0 35 11 59.5t30 40t45.5 22.5t56.5 7t56 -7t45 -22.5t30 -40t11 -59.5v-145q0 -35 -11 -59.5t-30 -40t-45 -22.5t-56 -7zM225 602q0 28 -15.5 41t-41.5 13t-41 -13t-15 -41v-145q0 -28 15 -41t41 -13t41.5 13
t15.5 41v145zM619 -3q-30 0 -56.5 7t-45.5 22t-30 39.5t-11 60.5v145q0 35 11 59.5t30 40t45.5 22.5t56.5 7t56 -7t45 -22.5t30 -40t11 -59.5v-145q0 -36 -11 -60.5t-30 -39.5t-45 -22t-56 -7zM676 271q0 28 -15.5 41t-41.5 13t-41 -13t-15 -41v-145q0 -28 15 -41t41 -13
t41.5 13t15.5 41v145zM571 771q17 0 33.5 -12.5t16.5 -32.5q0 -10 -4 -18l-360 -726q-5 -11 -15.5 -16.5t-23.5 -5.5q-21 0 -34 14t-13 30q0 7 4 17l360 729q5 11 15 16t21 5z" />
    <glyph glyph-name="ampersand" unicode="&#x26;" horiz-adv-x="642" 
d="M273 -10q-58 0 -104.5 18t-79 48t-50 70t-17.5 84q0 34 10 65t27.5 57.5t40 46.5t47.5 34q-29 32 -49.5 68t-20.5 86q0 43 16.5 76.5t45 57t66.5 35.5t82 12q45 0 81.5 -11.5t62 -29t39 -38t13.5 -38.5q0 -23 -19 -41.5t-42 -18.5q-17 0 -28.5 11.5l-25 25t-32 25
t-48.5 11.5q-38 0 -63.5 -21.5t-25.5 -61.5q0 -23 10 -44.5t25.5 -41.5t33.5 -39t34 -35l161 -170q16 38 18 73t4 60q2 20 13 30t45 10t44.5 -15.5t10.5 -44.5q0 -38 -13 -90.5t-43 -103.5l81 -84q8 -9 8 -22q0 -10 -5 -19.5t-13.5 -17t-19.5 -12t-22 -4.5q-8 0 -15.5 3
t-16.5 12l-62 64q-38 -35 -88 -57.5t-116 -22.5zM288 103q38 0 66 13t46 33l-180 188q-26 -19 -46.5 -46.5t-20.5 -69.5q0 -50 34.5 -84t100.5 -34z" />
    <glyph glyph-name="quotesingle" unicode="'" horiz-adv-x="152" 
d="M75 768q18 0 33.5 -9t15.5 -24l-10 -138q0 -12 -9.5 -22.5t-29.5 -10.5t-28.5 10.5t-8.5 22.5l-10 138q0 15 14.5 24t32.5 9z" />
    <glyph glyph-name="parenleft" unicode="(" horiz-adv-x="341" 
d="M258 -20q-38 0 -75.5 11t-67.5 33.5t-48.5 57.5t-18.5 84v402q0 45 19 82t49.5 63t68.5 40.5t76 14.5t51 -16.5t13 -39.5q0 -26 -11.5 -41.5t-29.5 -15.5q-26 0 -45.5 -7.5t-33.5 -20t-21 -28t-7 -31.5v-402q0 -23 10 -37t26 -22t34.5 -11t36.5 -3q26 0 33.5 -18t7.5 -39
q0 -25 -12.5 -40.5t-54.5 -15.5z" />
    <glyph glyph-name="parenright" unicode=")" horiz-adv-x="341" 
d="M83 -20q-42 0 -54.5 15.5t-12.5 40.5q0 21 7.5 39t33.5 18q18 0 36.5 3t34 11t25.5 22t10 37v402q0 16 -7 31.5t-20.5 28t-33.5 20t-45 7.5q-18 0 -29.5 15.5t-11.5 41.5q0 23 13 39.5t51 16.5t76 -14.5t68.5 -40.5t49.5 -63t19 -82v-402q0 -49 -19 -84t-49 -57.5
t-67.5 -33.5t-74.5 -11z" />
    <glyph glyph-name="asterisk" unicode="*" horiz-adv-x="470" 
d="M381 397q7 -9 7 -24q0 -21 -16.5 -34t-35.5 -13q-8 0 -16.5 3t-16.5 14l-68 103l-69 -104q-6 -10 -13.5 -13t-16.5 -3q-8 0 -17 3t-17.5 9t-14 14t-5.5 19q0 8 3 15t8 12l70 98l-111 32q-15 3 -22 15t-7 28q0 17 13.5 32.5t33.5 15.5q2 0 5 -0.5t8 -2.5l111 -37l-5 111
q1 21 14.5 31t31.5 10t31.5 -10t14.5 -31l-5 -112l112 38q7 3 13 3q20 0 32.5 -17t12.5 -36q0 -13 -7 -24t-23 -14l-108 -27z" />
    <glyph glyph-name="plus" unicode="+" horiz-adv-x="444" 
d="M222 40q-23 0 -38.5 11t-15.5 29v107h-107q-18 0 -29 14.5t-11 38.5q0 23 11 38.5t29 15.5h107v106q0 16 15.5 28.5t38.5 12.5q24 0 38.5 -12.5t14.5 -28.5v-106h106q16 0 29 -15.5t13 -38.5q0 -24 -13 -38.5t-29 -14.5h-106v-107q0 -18 -14.5 -29t-38.5 -11z" />
    <glyph glyph-name="comma" unicode="," horiz-adv-x="193" 
d="M96 130q28 0 48 -19.5t20 -47.5q0 -4 -1 -10t-6.5 -20.5t-16.5 -42t-31 -73.5q-5 -10 -12 -13.5t-15 -3.5q-14 0 -28.5 8.5t-14.5 25.5q0 7 4 14l23 53q-17 9 -27 25t-10 36q0 28 19.5 48t47.5 20z" />
    <glyph glyph-name="hyphen" unicode="-" horiz-adv-x="413" 
d="M36 240q0 23 11 38.5t29 15.5h260q16 0 29 -15.5t13 -38.5q0 -24 -13 -38.5t-29 -14.5h-260q-18 0 -29 14.5t-11 38.5z" />
    <glyph glyph-name="period" unicode="." horiz-adv-x="191" 
d="M96 130q27 0 47 -20t20 -48q0 -27 -20 -47.5t-47 -20.5q-29 0 -48.5 20.5t-19.5 47.5q0 28 19.5 48t48.5 20z" />
    <glyph glyph-name="slash" unicode="/" horiz-adv-x="484" 
d="M417 771q18 0 34 -12.5t16 -32.5q0 -10 -4 -18l-359 -726q-5 -11 -16 -16.5t-23 -5.5q-22 0 -35 14t-13 30q0 9 5 17l359 729q5 11 15 16t21 5z" />
    <glyph glyph-name="zero" unicode="0" horiz-adv-x="561" 
d="M280 -6q-50 0 -92.5 12.5t-74 39.5t-49.5 70.5t-18 106.5v279q0 63 18 106.5t49.5 70.5t74 39.5t92.5 12.5q49 0 92 -12.5t75 -39.5t50 -70.5t18 -106.5v-279q0 -63 -18 -106.5t-50 -70.5t-75 -39.5t-92 -12.5zM385 502q0 60 -28 87.5t-77 27.5q-50 0 -77 -27.5
t-27 -87.5v-279q0 -60 27 -87.5t77 -27.5q49 0 77 27.5t28 87.5v279zM281 408q21 0 33.5 -12.5t12.5 -33.5q0 -20 -12.5 -33.5t-33.5 -13.5q-22 0 -34.5 13.5t-12.5 33.5q0 21 12.5 33.5t34.5 12.5z" />
    <glyph glyph-name="one" unicode="1" horiz-adv-x="288" 
d="M101 575l-32 -32q-6 -5 -12.5 -7t-11.5 -2q-19 0 -30.5 16t-11.5 36q0 14 6.5 26.5t18.5 20.5l118 90q12 10 27 10q20 0 39 -11t19 -31v-650q0 -20 -20.5 -30.5t-44.5 -10.5q-25 0 -45 10.5t-20 30.5v534z" />
    <glyph glyph-name="two" unicode="2" horiz-adv-x="507" 
d="M40 547q0 43 18 77t48 58t68.5 36.5t80.5 12.5q43 0 83.5 -14t72 -40t50 -63.5t18.5 -85.5q0 -54 -23.5 -96.5t-58.5 -77.5t-76.5 -63t-76.5 -53.5t-58.5 -49.5t-23.5 -50v-24h278q17 0 29 -16.5t12 -39.5t-12 -40.5t-29 -17.5h-356q-9 0 -19 3t-18.5 8t-14 13t-5.5 17
v97q0 40 24 74.5t59.5 65.5t77.5 60t77.5 58.5t59.5 61t24 66.5q0 15 -5.5 31t-16.5 29t-28.5 21t-42.5 8q-37 0 -63 -20.5t-26 -67.5q0 -18 -18 -33t-50 -15q-26 0 -42.5 14.5t-16.5 55.5z" />
    <glyph glyph-name="three" unicode="3" horiz-adv-x="521" 
d="M253 108q57 0 82 25.5t25 82.5v19q0 28 -8 46t-23 29t-35 15.5t-44 4.5q-22 0 -30.5 15.5t-8.5 35.5q0 19 8.5 35t30.5 16q19 0 35.5 3t29 13.5t20 30t7.5 51.5q0 50 -23.5 69t-64.5 19q-49 0 -69 -18.5t-20 -48.5q0 -23 -13 -36.5t-49 -13.5q-22 0 -35 3t-20 9.5
t-9.5 17t-2.5 26.5q0 27 10.5 57.5t35.5 56.5t67.5 43t105.5 17q45 0 84 -9.5t67 -30.5t44 -55t16 -84q0 -60 -20.5 -104.5t-57.5 -61.5q44 -17 73 -53t29 -98v-19q0 -60 -19 -102.5t-51.5 -69t-76.5 -38.5t-93 -12q-62 0 -105.5 17t-71 43.5t-40.5 59t-13 62.5t14 40.5
t48 10.5q40 0 53.5 -11t13.5 -35q0 -34 28 -53.5t76 -19.5z" />
    <glyph glyph-name="four" unicode="4" horiz-adv-x="502" 
d="M283 159h-240q-19 0 -31.5 12t-12.5 34q0 13 7 26l237 466q9 19 24 26.5t31 7.5q9 0 20 -3.5t21 -10t17 -16t7 -20.5q0 -7 -5 -17l-192 -384h117v105q0 22 20.5 31.5t44.5 9.5q25 0 45 -9.5t20 -31.5v-105h47q20 0 30.5 -19t10.5 -42t-12.5 -41.5t-28.5 -18.5h-47v-118
q0 -20 -20 -30.5t-45 -10.5q-24 0 -44.5 10.5t-20.5 30.5v118z" />
    <glyph glyph-name="five" unicode="5" horiz-adv-x="509" 
d="M252 452q49 0 92 -11.5t75 -37t50 -66t18 -99.5v-19q0 -62 -18.5 -104.5t-50 -69.5t-74 -39t-90.5 -12q-57 0 -101 15t-74 40.5t-45.5 58t-15.5 67.5t17 47t48 12q41 0 53 -14.5t12 -35.5q0 -37 29.5 -56.5t73.5 -19.5q50 0 78 27t28 84v19q0 57 -28 84.5t-77 27.5h-148
q-31 0 -41.5 14t-10.5 37q0 6 0.5 12.5t0.5 13.5l26 263q2 19 8 30t17 11h308q20 0 29.5 -18t9.5 -39q0 -22 -9.5 -39.5t-29.5 -17.5h-225l-12 -165h77z" />
    <glyph glyph-name="six" unicode="6" horiz-adv-x="549" 
d="M308 444q42 0 80 -10t66 -34t44.5 -64t16.5 -99v-14q0 -63 -18 -106.5t-49.5 -70.5t-74.5 -39.5t-92 -12.5q-50 0 -92.5 12.5t-74.5 39.5t-50 70.5t-18 106.5v279q0 63 18.5 106.5t51 70.5t76.5 39.5t95 12.5q60 0 103 -17t71 -43t41 -59t13 -64t-15 -42.5t-46 -11.5
q-27 0 -47.5 10t-20.5 39q0 18 -8 31.5t-22 23t-32.5 14.5t-39.5 5q-51 0 -80 -27.5t-29 -87.5v-109q25 29 59.5 40t73.5 11zM175 215q0 -60 28 -87.5t78 -27.5q49 0 76.5 27.5t27.5 87.5v13q0 63 -27.5 88.5t-77.5 25.5q-48 0 -76.5 -24t-28.5 -81v-22z" />
    <glyph glyph-name="seven" unicode="7" horiz-adv-x="498" 
d="M486 576q0 -16 -8 -37t-17 -39l-253 -486q-10 -19 -37 -19q-31 0 -56.5 18.5t-25.5 46.5q0 13 6 23l261 468v66h-209v-81q0 -18 -20 -30t-46 -12t-45 12t-19 30v154q0 15 17.5 28t39.5 13h355q9 0 19.5 -3.5t18.5 -9.5t13.5 -13.5t5.5 -14.5v-114z" />
    <glyph glyph-name="eight" unicode="8" horiz-adv-x="533" 
d="M267 731q46 0 84.5 -10t66.5 -31t44 -54.5t16 -81.5q0 -63 -26.5 -101t-69.5 -53q54 -20 86.5 -65t32.5 -123v-12q0 -56 -18 -95t-49.5 -64t-74.5 -36t-92 -11q-50 0 -92.5 11t-74.5 36t-50 64t-18 95v12q0 78 32.5 123t86.5 65q-43 15 -69.5 53t-26.5 101q0 48 16 81.5
t44 54.5t67 31t85 10zM371 235q0 57 -27.5 83.5t-76.5 26.5q-50 0 -77.5 -26.5t-27.5 -83.5v-20q0 -60 28 -87.5t77 -27.5q50 0 77 28t27 87v20zM267 625q-42 0 -64 -20t-22 -67t22 -67t64 -20q41 0 63.5 20t22.5 67t-22.5 67t-63.5 20z" />
    <glyph glyph-name="nine" unicode="9" horiz-adv-x="550" 
d="M241 281q-42 0 -80 10t-66 34t-44.5 64t-16.5 99v14q0 63 18 106.5t49.5 70.5t74.5 39.5t92 12.5t92.5 -12.5t75 -39.5t50 -70.5t18.5 -106.5v-279q0 -63 -18.5 -106.5t-51.5 -70.5t-77 -39.5t-95 -12.5q-60 0 -103 17t-70.5 43t-41 58.5t-13.5 64.5q0 31 15 42.5
t46 11.5q27 0 47.5 -10t20.5 -39q0 -35 30.5 -54.5t72.5 -19.5q51 0 79.5 27.5t28.5 87.5v109q-25 -29 -59.5 -40t-73.5 -11zM374 510q0 60 -28 87.5t-78 27.5q-49 0 -76.5 -27.5t-27.5 -87.5v-13q0 -63 27.5 -88.5t77.5 -25.5q48 0 76.5 24t28.5 81v22z" />
    <glyph glyph-name="colon" unicode=":" horiz-adv-x="223" 
d="M112 130q27 0 47 -20t20 -48q0 -27 -20 -47.5t-47 -20.5q-29 0 -48.5 20.5t-19.5 47.5q0 28 19.5 48t48.5 20zM112 422q27 0 47 -20t20 -48q0 -27 -20 -47.5t-47 -20.5q-29 0 -48.5 20.5t-19.5 47.5q0 28 19.5 48t48.5 20z" />
    <glyph glyph-name="semicolon" unicode=";" horiz-adv-x="224" 
d="M109 130q28 0 48 -19.5t20 -47.5q0 -4 -1 -10t-6.5 -20.5t-16.5 -42t-31 -73.5q-5 -10 -12 -13.5t-15 -3.5q-14 0 -28.5 8.5t-14.5 25.5q0 7 4 14l23 53q-17 9 -27 25t-10 36q0 28 19.5 48t47.5 20zM115 422q27 0 47 -20t20 -48q0 -27 -20 -47.5t-47 -20.5
q-29 0 -48.5 20.5t-19.5 47.5q0 28 19.5 48t48.5 20z" />
    <glyph glyph-name="less" unicode="&#x3c;" horiz-adv-x="418" 
d="M19 277q0 11 6.5 25t20.5 23l258 169q7 4 17 4t20 -4.5t18 -13t13.5 -19.5t5.5 -24q0 -23 -16 -33l-193 -127l193 -126q8 -5 12 -14t4 -20q0 -26 -18.5 -43.5t-38.5 -17.5q-11 0 -17 5l-258 168q-14 10 -20.5 23.5t-6.5 24.5z" />
    <glyph glyph-name="equal" unicode="=" horiz-adv-x="445" 
d="M53 144q0 23 11 38.5t29 15.5h258q16 0 29 -15.5t13 -38.5q0 -24 -13 -38.5t-29 -14.5h-258q-18 0 -29 14.5t-11 38.5zM53 347q0 23 11 38.5t29 15.5h258q16 0 29 -15.5t13 -38.5q0 -24 -13 -38.5t-29 -14.5h-258q-18 0 -29 14.5t-11 38.5z" />
    <glyph glyph-name="greater" unicode="&#x3e;" horiz-adv-x="417" 
d="M398 277q0 -11 -6 -24.5t-20 -23.5l-259 -168q-5 -5 -16 -5q-20 0 -39 17.5t-19 43.5q0 11 4.5 20t11.5 14l194 126l-194 127q-7 5 -11.5 13.5t-4.5 19.5q0 13 5.5 24t14 19.5t18.5 13t20 4.5q11 0 16 -4l259 -169q14 -9 20 -23t6 -25z" />
    <glyph glyph-name="question" unicode="?" horiz-adv-x="435" 
d="M411 566q0 -39 -14 -70.5t-33.5 -56t-39.5 -42t-31 -27.5q-18 -15 -28.5 -29.5t-15 -30t-5.5 -33t-1 -39.5q0 -14 -9.5 -25t-40.5 -11q-25 0 -35.5 12t-10.5 44q0 35 5.5 60.5t14 44t19 31.5t21.5 22q13 12 30 25.5t32 29.5t25.5 35.5t10.5 45.5q0 42 -28.5 64t-74.5 22
q-37 0 -55.5 -11t-29.5 -23.5t-20 -23.5t-26 -11t-33.5 11.5t-16.5 36.5q0 18 11.5 38.5t35 38.5t58 29.5t79.5 11.5q48 0 86 -13t64.5 -35.5t41 -53.5t14.5 -67zM194 130q28 0 48 -20t20 -48q0 -27 -19.5 -47.5t-48.5 -20.5t-48 20.5t-19 47.5q0 28 19.5 48t47.5 20z" />
    <glyph glyph-name="at" unicode="@" horiz-adv-x="737" 
d="M232 361q0 14 12.5 26.5t33 21.5t46 14t51.5 5q32 0 61 -8.5t51.5 -25t35.5 -42t13 -58.5v-169q4 -26 13 -37t23 -11q19 0 30.5 15t17.5 37t8 46.5t2 43.5q0 133 -60.5 205t-189.5 72q-75 0 -124.5 -23.5t-79 -62.5t-42 -91t-12.5 -109q0 -53 11 -101.5t37 -85.5t70 -59
t110 -22q30 0 51.5 4t37 9t26 9t18.5 4q16 0 24 -14t8 -24q0 -16 -19 -28t-47 -19.5t-59 -11t-55 -3.5q-58 0 -111.5 21t-95 63t-66 106t-24.5 151q0 76 20.5 141.5t63 114.5t107 77t151.5 28q79 0 140.5 -23t104 -65.5t65 -104t22.5 -138.5q0 -46 -8.5 -87.5t-26.5 -72.5
t-46 -49t-67 -18q-43 0 -70.5 21t-34.5 52q-24 -31 -53.5 -49.5t-71.5 -18.5q-23 0 -45.5 6.5t-40 20.5t-28.5 36t-11 52q0 35 15 58.5t42 38t63.5 20.5t80.5 6h32v15q0 35 -19.5 52.5t-61.5 17.5q-23 0 -38.5 -4t-26.5 -9.5t-18.5 -9.5t-14.5 -4t-12.5 5t-9.5 12.5t-6.5 16
t-2.5 14.5zM447 199h-25q-52 0 -81 -15t-29 -50q0 -24 13 -36t33 -12q17 0 33 7t28.5 18.5t20 26.5t7.5 30v31z" />
    <glyph glyph-name="A" unicode="A" horiz-adv-x="575" 
d="M91 0q-13 0 -27.5 4t-26.5 11t-20 17t-8 22q0 2 2 10l193 629q7 23 31 33.5t52 10.5q29 0 53 -10.5t31 -33.5l193 -629q2 -8 2 -10q0 -12 -8 -21.5t-20 -17t-26.5 -11.5t-27.5 -4q-17 0 -28.5 6t-15.5 20l-38 133h-229l-38 -133q-4 -14 -15.5 -20t-28.5 -6zM374 261
l-87 307l-87 -307h174z" />
    <glyph glyph-name="B" unicode="B" horiz-adv-x="562" 
d="M60 690q0 20 17.5 30.5t39.5 10.5h193q39 0 75.5 -7.5t64 -27t44.5 -54t17 -87.5q0 -62 -22.5 -102t-62.5 -57q23 -9 42 -21.5t32.5 -31.5t21 -46t7.5 -64v-21q0 -59 -15.5 -99t-42.5 -65.5t-63.5 -36.5t-78.5 -11h-212q-26 0 -41.5 12t-15.5 28v650zM302 114
q46 0 71.5 26t25.5 83v16q0 59 -25.5 82.5t-71.5 23.5h-113v-231h113zM189 447h112q41 0 60.5 24t19.5 62q0 39 -21.5 61.5t-59.5 22.5h-111v-170z" />
    <glyph glyph-name="C" unicode="C" horiz-adv-x="550" 
d="M392 518q-1 12 -4 28.5t-13.5 32.5t-30.5 27t-56 11q-51 0 -78 -28t-27 -87v-279q0 -59 27.5 -87t79.5 -28q34 0 54 11t30 27t13.5 34.5t4.5 34.5q2 23 20 32t44 9q34 0 50 -13t16 -51q0 -45 -17.5 -82t-49.5 -62.5t-76 -39.5t-96 -14q-47 0 -89 12.5t-73.5 39.5
t-49.5 70.5t-18 106.5v279q0 63 18.5 106.5t50 70.5t73.5 39.5t89 12.5q52 0 96 -13.5t75.5 -38t49 -60t17.5 -78.5q0 -39 -16 -51.5t-49 -12.5q-28 0 -46 9t-19 32z" />
    <glyph glyph-name="D" unicode="D" horiz-adv-x="580" 
d="M294 731q49 0 92 -12.5t75 -39.5t50 -70.5t18 -106.5v-273q0 -63 -18 -106.5t-50 -70.5t-75 -39.5t-92 -12.5h-177q-26 0 -41.5 12t-15.5 28v651q0 16 15.5 28t41.5 12h177zM190 617v-503h104q50 0 77.5 28t27.5 87v273q0 59 -27.5 87t-77.5 28h-104z" />
    <glyph glyph-name="E" unicode="E" horiz-adv-x="530" 
d="M190 417h152q20 0 30.5 -16t10.5 -36q0 -17 -10 -33.5t-31 -16.5h-152v-201h283q20 0 30.5 -17.5t10.5 -40.5q0 -20 -10 -38t-31 -18h-356q-22 0 -39.5 10.5t-17.5 30.5v649q0 20 17.5 30.5t39.5 10.5h356q21 0 31 -18t10 -38q0 -23 -10.5 -40.5t-30.5 -17.5h-283v-200z
" />
    <glyph glyph-name="F" unicode="F" horiz-adv-x="508" 
d="M60 690q0 20 17.5 30.5t39.5 10.5h349q21 0 30.5 -18t9.5 -38q0 -23 -10 -40.5t-30 -17.5h-276v-200h153q20 0 30 -16t10 -36q0 -17 -9.5 -33.5t-30.5 -16.5h-153v-274q0 -20 -20.5 -30.5t-44.5 -10.5q-25 0 -45 10.5t-20 30.5v649z" />
    <glyph glyph-name="G" unicode="G" horiz-adv-x="564" 
d="M391 518q-1 18 -5.5 35.5t-16 31.5t-31 23t-51.5 9q-51 0 -78 -28t-27 -87v-279q0 -59 27 -87t77 -28q49 0 77 28t28 87v59h-81q-20 0 -30 15.5t-10 35.5q0 19 10 35t30 16h170q20 0 30.5 -12.5t10.5 -29.5v-119q0 -63 -18 -106.5t-50 -70.5t-75 -39.5t-92 -12.5
q-50 0 -92.5 12.5t-74 39.5t-49.5 70.5t-18 106.5v279q0 63 18 106.5t49.5 70.5t73 39.5t89.5 12.5q52 0 95.5 -13t75.5 -38t50 -60.5t18 -80.5q0 -38 -16.5 -50t-48.5 -12q-26 0 -45 9t-20 32z" />
    <glyph glyph-name="H" unicode="H" horiz-adv-x="605" 
d="M415 328h-225v-287q0 -20 -20.5 -30.5t-44.5 -10.5q-25 0 -45 10.5t-20 30.5v650q0 21 20 30.5t45 9.5q24 0 44.5 -9.5t20.5 -30.5v-261h225v261q0 21 20 30.5t45 9.5q24 0 44.5 -9.5t20.5 -30.5v-650q0 -20 -20.5 -30.5t-44.5 -10.5q-25 0 -45 10.5t-20 30.5v287z" />
    <glyph glyph-name="I" unicode="I" horiz-adv-x="250" 
d="M60 691q0 21 20 30.5t45 9.5q24 0 44.5 -9.5t20.5 -30.5v-650q0 -20 -20.5 -30.5t-44.5 -10.5q-25 0 -45 10.5t-20 30.5v650z" />
    <glyph glyph-name="J" unicode="J" horiz-adv-x="539" 
d="M250 617q-20 0 -30.5 17.5t-10.5 40.5q0 20 9.5 38t31.5 18h175q22 0 39.5 -10.5t17.5 -30.5v-467q0 -63 -18 -106.5t-49.5 -70.5t-73.5 -39.5t-89 -12.5q-52 0 -96 13.5t-75.5 39.5t-49.5 62.5t-18 83.5q0 38 16 50.5t49 12.5q26 0 44.5 -8.5t20.5 -32.5q1 -19 5.5 -38
t16 -34.5t31.5 -25t50 -9.5q51 0 78.5 28t27.5 87v394h-102z" />
    <glyph glyph-name="K" unicode="K" horiz-adv-x="552" 
d="M60 691q0 21 20 30.5t45 9.5q24 0 44.5 -9.5t20.5 -30.5v-273l216 294q14 19 36 19q12 0 25.5 -6t24.5 -15.5t18 -21.5t7 -24q0 -5 -1.5 -11.5t-6.5 -13.5l-179 -224l218 -332q7 -10 7 -23q0 -12 -7 -23.5t-18 -21t-25 -15t-28 -5.5q-13 0 -25 5.5t-20 19.5l-188 285
l-54 -68v-196q0 -20 -20.5 -30.5t-44.5 -10.5q-25 0 -45 10.5t-20 30.5v650z" />
    <glyph glyph-name="L" unicode="L" horiz-adv-x="484" 
d="M117 0q-22 0 -39.5 10.5t-17.5 30.5v650q0 21 20 30.5t45 9.5q24 0 44.5 -9.5t20.5 -30.5v-577h244q20 0 29.5 -17.5t9.5 -39.5q0 -21 -9.5 -39t-29.5 -18h-317z" />
    <glyph glyph-name="M" unicode="M" horiz-adv-x="699" 
d="M392 263q-8 -15 -20 -20.5t-24 -5.5t-23.5 5.5t-19.5 20.5l-115 216v-438q0 -20 -20.5 -30.5t-44.5 -10.5q-25 0 -45 10.5t-20 30.5v625q0 36 20 50.5t45 14.5q18 0 31 -2.5t24.5 -10t22.5 -21t23 -35.5l123 -224l123 224q12 22 23 35.5t22.5 21t25 10t31.5 2.5
q25 0 45 -14.5t20 -50.5v-625q0 -20 -20.5 -30.5t-44.5 -10.5q-25 0 -45 10.5t-20 30.5v430z" />
    <glyph glyph-name="N" unicode="N" horiz-adv-x="605" 
d="M480 0q-23 0 -42.5 9t-32.5 32l-215 402v-402q0 -20 -20.5 -30.5t-44.5 -10.5q-25 0 -45 10.5t-20 30.5v649q0 21 20 31t45 10q18 0 31 -2.5t23.5 -10t20.5 -21t22 -35.5l193 -373v402q0 21 20 30.5t45 9.5q24 0 44.5 -9.5t20.5 -30.5v-650q0 -20 -20.5 -30.5
t-44.5 -10.5z" />
    <glyph glyph-name="O" unicode="O" horiz-adv-x="572" 
d="M286 -6q-50 0 -92.5 12.5t-74 39.5t-49.5 70.5t-18 106.5v279q0 63 18 106.5t49.5 70.5t74 39.5t92.5 12.5q49 0 92 -12.5t75 -39.5t50 -70.5t18 -106.5v-279q0 -63 -18 -106.5t-50 -70.5t-75 -39.5t-92 -12.5zM391 502q0 60 -28 87.5t-77 27.5q-50 0 -77 -27.5
t-27 -87.5v-279q0 -60 27 -87.5t77 -27.5q49 0 77 27.5t28 87.5v279z" />
    <glyph glyph-name="P" unicode="P" horiz-adv-x="557" 
d="M60 691q0 16 13 28t36 12h201q48 0 89 -12t72 -39t48.5 -70t17.5 -104v-6q0 -62 -18 -105t-50 -70t-75 -39.5t-92 -12.5h-112v-232q0 -20 -20.5 -30.5t-44.5 -10.5q-25 0 -45 10.5t-20 30.5v650zM190 617v-242h112q49 0 77 28t28 87v12q0 59 -28 87t-77 28h-112z" />
    <glyph glyph-name="Q" unicode="Q" horiz-adv-x="572" 
d="M286 -109q-16 0 -29 10.5t-13 30.5v65q-42 4 -77 19t-60.5 42t-40 68t-14.5 97v279q0 63 18 106.5t49.5 71t74 39.5t92.5 12q49 0 92 -12t75 -39.5t50 -71t18 -106.5v-279q0 -56 -14.5 -96.5t-40.5 -68t-61.5 -42.5t-77.5 -19v-65q0 -20 -12.5 -30.5t-28.5 -10.5z
M391 502q0 59 -28 87t-77 28q-50 0 -77 -28t-27 -87v-279q0 -87 62 -107v53q0 21 13 30.5t29 9.5t28.5 -9.5t12.5 -30.5v-53q30 10 47 36t17 71v279z" />
    <glyph glyph-name="R" unicode="R" horiz-adv-x="570" 
d="M60 691q0 16 11.5 28t30.5 12h198q49 0 92 -10.5t75.5 -34.5t51 -64t18.5 -100q0 -86 -37.5 -134.5t-93.5 -65.5l131 -243q3 -4 4 -8.5t1 -7.5q0 -12 -7.5 -24.5t-19 -22t-26 -15.5t-28.5 -6t-25.5 8t-19.5 23l-142 276h-84v-261q0 -20 -20 -30.5t-45 -10.5
q-24 0 -44.5 10.5t-20.5 30.5v650zM190 617v-213h110q49 0 78 23.5t29 82.5t-29 83t-78 24h-110z" />
    <glyph glyph-name="S" unicode="S" horiz-adv-x="522" 
d="M251 108q45 0 78.5 21t33.5 66q0 37 -24 60.5t-59.5 42t-77 35.5t-77 42.5t-59.5 63.5t-24 97q0 56 22 94t56.5 61.5t78 34t86.5 10.5q22 0 54.5 -3t62.5 -12t51.5 -24.5t21.5 -40.5q0 -9 -3 -20.5t-9.5 -22.5t-16.5 -18.5t-23 -7.5q-12 0 -23 6t-26 13t-36.5 13t-52.5 6
q-54 0 -83.5 -20.5t-29.5 -56.5q0 -31 24 -50.5t59.5 -35.5t77 -33.5t77 -45t59.5 -69t24 -106.5q0 -54 -18 -94.5t-49.5 -67.5t-75 -41t-95.5 -14q-49 0 -91.5 11t-73.5 29t-48.5 40t-17.5 44q0 10 4.5 22.5t12.5 23t18 17.5t22 7q15 0 29.5 -12t33 -26.5t44 -26.5
t63.5 -12z" />
    <glyph glyph-name="T" unicode="T" horiz-adv-x="528" 
d="M476 731q21 0 31 -18.5t10 -39.5q0 -23 -10.5 -41t-30.5 -18h-146v-573q0 -20 -20.5 -30.5t-44.5 -10.5q-25 0 -45 10.5t-20 30.5v573h-147q-20 0 -30.5 17.5t-10.5 41.5q0 21 10 39.5t31 18.5h423z" />
    <glyph glyph-name="U" unicode="U" horiz-adv-x="594" 
d="M407 691q0 21 20 30.5t45 9.5q24 0 44.5 -9.5t20.5 -30.5v-468q0 -63 -18.5 -106.5t-51 -70.5t-76.5 -39.5t-94 -12.5q-51 0 -94.5 12.5t-76 39.5t-51 70.5t-18.5 106.5v468q0 21 20 30.5t45 9.5q24 0 44.5 -9.5t20.5 -30.5v-468q0 -59 29 -87t81 -28t81 28t29 87v468z
" />
    <glyph glyph-name="V" unicode="V" horiz-adv-x="575" 
d="M11 667q-2 8 -2 10q0 12 8 22t20 17t26.5 11t27.5 4q17 0 28.5 -6t15.5 -20l153 -542l152 542q4 14 15.5 20t28.5 6q13 0 27.5 -4t26.5 -11.5t20 -17t8 -21.5q0 -2 -2 -10l-192 -629q-7 -23 -31 -33.5t-53 -10.5t-52.5 10.5t-31.5 33.5z" />
    <glyph glyph-name="W" unicode="W" horiz-adv-x="883" 
d="M674 38q-8 -23 -32 -33.5t-53 -10.5q-28 0 -53 10.5t-30 33.5l-64 270l-65 -270q-5 -23 -30 -33.5t-53 -10.5q-29 0 -53.5 10.5t-31.5 33.5l-198 629q-2 6 -2 12q0 11 8 20.5t20 16.5t26.5 11t28.5 4q15 0 27 -6t16 -20l158 -542l85 348q5 19 23.5 27.5t40.5 8.5
q21 0 39.5 -8.5t23.5 -27.5l85 -348l158 542q4 14 16 20t27 6q14 0 28.5 -4t26.5 -11t20 -16.5t8 -20.5q0 -6 -2 -12z" />
    <glyph glyph-name="X" unicode="X" horiz-adv-x="561" 
d="M280 273l-146 -257q-5 -9 -14.5 -15t-21.5 -6q-13 0 -28 5t-27.5 14t-21 20.5t-8.5 25.5q0 10 8 24l173 282l-167 281q-9 15 -9 28t8 24t20 19.5t26.5 13t28.5 4.5q15 0 25.5 -7.5t17.5 -20.5l136 -245l136 245q8 13 18 20.5t26 7.5q14 0 28.5 -4.5t26.5 -13t20 -19.5
t8 -24t-9 -28l-167 -281l173 -282q7 -13 7 -24q0 -14 -8 -25.5t-21 -20.5t-28 -14t-28 -5q-12 0 -21 6t-14 15z" />
    <glyph glyph-name="Y" unicode="Y" horiz-adv-x="574" 
d="M222 293q0 8 -3 13l-207 358q-3 7 -3 13q0 12 8.5 22t21.5 17t28 11t28 4q16 0 24.5 -6t15.5 -20l152 -289l153 289q7 13 15 19.5t24 6.5q13 0 28 -4t28 -11t21.5 -17t8.5 -22q0 -2 -0.5 -5.5t-2.5 -7.5l-206 -358q-4 -6 -4 -13v-252q0 -20 -20 -30.5t-45 -10.5
q-24 0 -44.5 10.5t-20.5 30.5v252z" />
    <glyph glyph-name="Z" unicode="Z" horiz-adv-x="522" 
d="M180 114h288q20 0 30.5 -18.5t10.5 -38.5t-10.5 -38.5t-30.5 -18.5h-415q-20 0 -29.5 10t-9.5 26q0 22 14 45l297 536h-253q-20 0 -30 17t-10 40q0 21 9.5 39t30.5 18h380q20 0 29.5 -10t9.5 -25q0 -22 -15 -47z" />
    <glyph glyph-name="bracketleft" unicode="[" horiz-adv-x="341" 
d="M186 93h99q19 0 29.5 -17.5t10.5 -40.5q0 -20 -9.5 -38t-30.5 -18h-172q-21 0 -39 10.5t-18 30.5v707q0 20 17.5 30.5t39.5 10.5h172q21 0 30.5 -18t9.5 -38q0 -23 -10.5 -40.5t-29.5 -17.5h-99v-561z" />
    <glyph glyph-name="backslash" unicode="\" horiz-adv-x="370" 
d="M21 697q-1 4 -1.5 7t-0.5 7q0 17 14.5 30.5t34.5 13.5q12 0 22.5 -6t15.5 -20l243 -672q2 -4 2 -12q0 -17 -14 -31.5t-34 -14.5q-29 0 -39 28z" />
    <glyph glyph-name="bracketright" unicode="]" horiz-adv-x="342" 
d="M156 654h-99q-20 0 -30.5 17.5t-10.5 40.5q0 20 10 38t31 18h171q22 0 40 -10.5t18 -30.5v-707q0 -20 -18 -30.5t-40 -10.5h-171q-21 0 -31 18t-10 38q0 23 10.5 40.5t30.5 17.5h99v561z" />
    <glyph glyph-name="asciicircum" unicode="^" horiz-adv-x="285" 
d="M39 579q-6 -3 -11 -3q-12 0 -20 12t-8 28q0 11 5 21t17 16l104 56q8 5 17 5q7 0 17 -5l104 -55q11 -7 16 -17.5t5 -21.5q0 -15 -8 -27t-20 -12q-6 0 -10 3l-104 56z" />
    <glyph glyph-name="underscore" unicode="_" horiz-adv-x="316" 
d="M-42 -54q0 23 11 38.5t29 15.5h320q16 0 29 -15.5t13 -38.5q0 -24 -13 -38.5t-29 -14.5h-320q-18 0 -29 14.5t-11 38.5z" />
    <glyph glyph-name="grave" unicode="`" horiz-adv-x="202" 
d="M18 635q-10 5 -14 13t-4 17q0 17 11.5 33t28.5 16q3 0 6 -0.5t7 -1.5l132 -64q17 -9 17 -31q0 -17 -11.5 -33t-28.5 -16q-4 0 -7 1t-7 3z" />
    <glyph glyph-name="a" unicode="a" horiz-adv-x="471" 
d="M210 481q58 0 99 -16.5t67 -43.5t37.5 -62t11.5 -73v-245q0 -17 -18 -29t-45 -12q-25 0 -41.5 12t-16.5 29v29q-27 -31 -63.5 -55t-88.5 -24q-27 0 -50.5 8t-41 24.5t-28 41.5t-10.5 59q0 43 17 71.5t47.5 45t73.5 23.5t95 7h41v13q0 16 -4.5 32.5t-15 29.5t-27 21.5
t-41.5 8.5q-29 0 -47 -5t-30 -10.5t-20 -10.5t-17 -5q-22 0 -33 21t-11 43q0 15 15 28.5t38.5 23t51.5 15t55 5.5zM296 204h-15q-25 0 -48.5 -2t-41.5 -8.5t-29 -19t-11 -33.5q0 -28 15 -41t38 -13q15 0 31.5 8t30 21.5t22 31t8.5 35.5v21z" />
    <glyph glyph-name="b" unicode="b" horiz-adv-x="519" 
d="M114 752q27 0 46.5 -11t19.5 -29v-307q16 29 48.5 52.5t79.5 23.5q37 0 69.5 -16t56.5 -44t38 -64.5t14 -78.5v-82q0 -40 -14.5 -77t-38.5 -65.5t-55.5 -45.5t-66.5 -17q-24 0 -45.5 6.5t-40 17.5t-32.5 25.5t-21 29.5v-29q0 -15 -17 -28t-41 -13q-28 0 -45.5 13
t-17.5 28v671q0 18 17.5 29t45.5 11zM357 278q0 17 -7 33t-19 29t-28 20.5t-34 7.5q-16 0 -32 -6t-28.5 -18t-20.5 -28.5t-8 -37.5v-100q0 -8 7 -20.5t19 -24.5t28.5 -20.5t35.5 -8.5q18 0 34 8t27.5 21t18.5 29.5t7 33.5v82z" />
    <glyph glyph-name="c" unicode="c" horiz-adv-x="434" 
d="M251 -9q-57 0 -98 15.5t-67.5 43t-39 65t-12.5 81.5v80q0 43 12.5 80.5t39 65t67 43.5t97.5 16q35 0 64.5 -6.5t50.5 -17.5t33 -25t12 -29q0 -9 -3.5 -20t-10.5 -20.5t-16 -16t-21 -6.5q-8 0 -16.5 4.5t-19.5 9.5t-26 9.5t-37 4.5q-51 0 -74 -24t-23 -68v-80
q0 -44 23 -68t75 -24q22 0 37 4.5t26 10.5t19.5 10.5t17.5 4.5q13 0 23.5 -6t17.5 -15t10.5 -20t3.5 -20q0 -15 -12.5 -29.5t-34.5 -26.5t-52.5 -19t-65.5 -7z" />
    <glyph glyph-name="d" unicode="d" horiz-adv-x="520" 
d="M405 752q28 0 46 -11t18 -29v-671q0 -15 -18 -28t-46 -13q-24 0 -41 13t-17 28v29q-15 -31 -53 -55t-86 -24q-35 0 -66.5 17t-55.5 45.5t-38.5 65.5t-14.5 77v82q0 42 14 78.5t38 64.5t56.5 44t69.5 16q47 0 79.5 -23.5t49.5 -52.5v307q0 18 19 29t46 11zM162 196
q0 -17 7 -33.5t19 -29.5t27.5 -21t33.5 -8q19 0 35.5 8.5t29 20.5t19.5 24.5t7 20.5v100q0 21 -8 37.5t-21 28.5t-29 18t-32 6q-18 0 -34 -7.5t-28 -20.5t-19 -29t-7 -33v-82z" />
    <glyph glyph-name="e" unicode="e" horiz-adv-x="484" 
d="M251 481q41 0 78.5 -14t66 -38.5t45 -59t16.5 -76.5q0 -32 -8 -50t-21.5 -26.5t-30 -10.5t-33.5 -2h-203v-15q0 -44 32 -70t85 -26q25 0 43 6t32 13t25.5 13t22.5 6t20 -6t15.5 -15t10 -19t3.5 -17q0 -13 -12.5 -27.5t-35.5 -27t-55.5 -20.5t-72.5 -8q-53 0 -97.5 14.5
t-76.5 41.5t-50 65t-18 84v85q0 40 17 76.5t46.5 64t69.5 43.5t86 16zM307 280q16 0 22.5 5t6.5 22q0 35 -26 57t-62 22q-34 0 -60.5 -21t-26.5 -57v-28h146z" />
    <glyph glyph-name="f" unicode="f" horiz-adv-x="340" 
d="M180 475h122q16 0 24.5 -15t8.5 -32q0 -18 -8.5 -32.5t-24.5 -14.5h-122v-341q0 -18 -20 -29t-46 -11q-27 0 -45 11t-18 29v516q0 42 14 78t38 62t56 41t68 15h59q25 0 37 -17t12 -37q0 -21 -12 -38t-37 -17h-32q-32 0 -53 -19.5t-21 -53.5v-95z" />
    <glyph glyph-name="g" unicode="g" horiz-adv-x="470" 
d="M230 128q-37 0 -65 9q-12 -10 -12 -20q0 -16 22.5 -23t55.5 -11.5t72.5 -10.5t72.5 -20.5t55.5 -41.5t22.5 -74q0 -42 -18.5 -71.5t-48.5 -48.5t-69.5 -28t-81.5 -9q-44 0 -84 9.5t-70.5 27.5t-48.5 44t-18 60q0 38 21 64t52 42q-19 9 -30.5 24t-11.5 40q0 28 14 45.5
t37 32.5q-29 23 -45.5 55.5t-16.5 71.5v21q0 36 14 66.5t39.5 52.5t61.5 34t80 12q33 0 62 -7.5t52 -21.5q17 40 32 54t29 14q25 0 38 -14t13 -26q0 -9 -4.5 -16t-11.5 -12q-10 -7 -23 -15.5t-24 -22.5q35 -41 35 -98v-21q0 -36 -14.5 -66.5t-41 -53t-63 -35t-79.5 -12.5z
M303 316q0 36 -18.5 61.5t-53.5 25.5t-53 -25.5t-18 -61.5v-20q0 -38 18.5 -64t53.5 -26q33 0 52 25t19 64v21zM329 -68q0 21 -12.5 33.5t-32.5 20t-44.5 10.5t-48.5 6q-24 -11 -39 -28.5t-15 -40.5q0 -34 28.5 -52.5t68.5 -18.5t67.5 19t27.5 51z" />
    <glyph glyph-name="h" unicode="h" 
d="M180 41q0 -15 -19.5 -28t-45.5 -13q-29 0 -46.5 13t-17.5 28v671q0 18 17.5 29t46.5 11q26 0 45.5 -11t19.5 -29v-307q14 29 46 52.5t80 23.5q34 0 65.5 -16t55 -44t37.5 -64.5t14 -78.5v-237q0 -20 -20.5 -30.5t-44.5 -10.5q-23 0 -43.5 10.5t-20.5 30.5v237q0 17 -7 33
t-19 29t-27.5 20.5t-33.5 7.5q-31 0 -56.5 -24t-25.5 -66v-237z" />
    <glyph glyph-name="i" unicode="i" horiz-adv-x="229" 
d="M114 475q27 0 46 -11t19 -29v-394q0 -15 -19 -28t-46 -13q-28 0 -46 13t-18 28v394q0 18 18 29t46 11zM114 707q29 0 49.5 -18.5t20.5 -44.5q0 -25 -20.5 -44t-49.5 -19q-30 0 -50.5 19t-20.5 44q0 26 20.5 44.5t50.5 18.5z" />
    <glyph glyph-name="j" unicode="j" horiz-adv-x="231" 
d="M115 707q29 0 49.5 -18.5t20.5 -44.5q0 -25 -20.5 -44t-49.5 -19q-30 0 -50.5 19t-20.5 44q0 26 20.5 44.5t50.5 18.5zM114 475q28 0 47 -11t19 -29v-467q0 -42 -9.5 -76.5t-28.5 -59.5t-47.5 -39t-65.5 -14q-20 0 -33 4.5t-20.5 12t-10.5 17t-3 19.5q0 26 14.5 41
t34.5 15q27 0 33.5 22.5t6.5 57.5v467q0 18 18 29t45 11z" />
    <glyph glyph-name="k" unicode="k" horiz-adv-x="492" 
d="M328 287l147 -210q7 -10 7 -21t-7 -22.5t-18 -20.5t-23.5 -15t-24.5 -6q-20 0 -32 17l-135 199l-62 -57v-110q0 -15 -19.5 -28t-46.5 -13q-28 0 -45.5 13t-17.5 28v671q0 18 17.5 29t45.5 11q27 0 46.5 -11t19.5 -29v-419l188 177q12 10 26 10q10 0 21.5 -5.5t20.5 -14.5
t15 -20t6 -22q0 -13 -11 -24z" />
    <glyph glyph-name="l" unicode="l" horiz-adv-x="247" 
d="M123 752q26 0 45.5 -11t19.5 -29v-671q0 -15 -19.5 -28t-45.5 -13q-29 0 -46.5 13t-17.5 28v671q0 18 17.5 29t46.5 11z" />
    <glyph glyph-name="m" unicode="m" horiz-adv-x="803" 
d="M339 278q0 42 -25 66t-57 24q-29 0 -53.5 -23t-24.5 -67v-237q0 -15 -19.5 -28t-45.5 -13q-29 0 -46.5 13t-17.5 28v394q0 18 17.5 29t46.5 11q23 0 40 -11t17 -29v-30q17 29 49.5 52.5t82.5 23.5q43 0 76 -27.5t49 -72.5q26 51 66.5 75.5t84.5 24.5q34 0 66 -13.5
t57 -39.5t40 -63.5t15 -86.5v-237q0 -15 -19.5 -28t-45.5 -13t-45 13t-19 28v237q0 45 -25.5 68t-55.5 23t-54.5 -23t-24.5 -67v-239q0 -21 -20.5 -30.5t-44.5 -9.5q-23 0 -43.5 9.5t-20.5 30.5v238z" />
    <glyph glyph-name="n" unicode="n" horiz-adv-x="523" 
d="M179 41q0 -15 -19.5 -28t-45.5 -13q-29 0 -46.5 13t-17.5 28v394q0 18 17.5 29t46.5 11q23 0 40 -11t17 -29v-30q14 29 49 52.5t85 23.5q34 0 65.5 -16t55 -44t37.5 -64.5t14 -78.5v-237q0 -20 -20.5 -30.5t-44.5 -10.5q-23 0 -43.5 10.5t-20.5 30.5v237q0 17 -7 33
t-18.5 29t-27.5 20.5t-34 7.5q-31 0 -56.5 -24t-25.5 -66v-237z" />
    <glyph glyph-name="o" unicode="o" horiz-adv-x="498" 
d="M249 481q43 0 82.5 -16t69.5 -44t47.5 -64.5t17.5 -78.5v-82q0 -40 -17.5 -77t-47.5 -65.5t-69.5 -45.5t-82.5 -17q-44 0 -83.5 17t-69 45t-47 65t-17.5 78v82q0 40 17 77t46.5 65t69 44.5t84.5 16.5zM337 278q0 17 -7 33t-19 29t-28 20.5t-34 7.5t-34 -7.5t-28 -20.5
t-19 -29t-7 -33v-82q0 -18 7 -34.5t19 -29t28 -20.5t34 -8t34 8t28 20.5t19 29t7 34.5v82z" />
    <glyph glyph-name="p" unicode="p" horiz-adv-x="519" 
d="M112 475q26 0 43 -11t17 -29v-30q17 29 52 52.5t83 23.5q37 0 70 -16t57 -44t38 -64.5t14 -78.5v-82q0 -40 -14.5 -77t-38.5 -65.5t-55.5 -45.5t-66.5 -17q-45 0 -81 24t-50 55v-250q0 -16 -19.5 -28.5t-46.5 -12.5q-28 0 -45.5 12.5t-17.5 28.5v615q0 18 17.5 29
t43.5 11zM357 278q0 17 -7 33t-19.5 29t-29 20.5t-35.5 7.5q-16 0 -31.5 -6t-27.5 -18t-19.5 -28.5t-7.5 -37.5v-100q0 -8 6.5 -20.5t18.5 -24.5t28 -20.5t35 -8.5q18 0 34 8t28 21t19.5 29.5t7.5 33.5v82z" />
    <glyph glyph-name="q" unicode="q" horiz-adv-x="520" 
d="M407 475q26 0 44 -11t18 -29v-615q0 -16 -18 -28.5t-46 -12.5q-27 0 -46 12.5t-19 28.5v250q-15 -31 -51 -55t-81 -24q-35 0 -66.5 17t-55.5 45.5t-38.5 65.5t-14.5 77v82q0 42 14 78.5t38 64.5t57 44t71 16q48 0 82.5 -23.5t51.5 -52.5v30q0 18 17 29t43 11zM162 196
q0 -17 7.5 -33.5t19.5 -29.5t28 -21t34 -8q19 0 35.5 8.5t28.5 20.5t18.5 24.5t6.5 20.5v100q0 21 -7.5 37.5t-20 28.5t-28 18t-31.5 6q-19 0 -35.5 -7.5t-29 -20.5t-19.5 -29t-7 -33v-82z" />
    <glyph glyph-name="r" unicode="r" horiz-adv-x="377" 
d="M294 368q-22 0 -42.5 -10.5t-36.5 -29.5t-26 -46.5t-10 -61.5v-179q0 -15 -19.5 -28t-46.5 -13q-28 0 -45.5 13t-17.5 28v394q0 18 17.5 29t45.5 11q24 0 41 -11t17 -29v-41q7 16 19.5 31.5t28.5 28t35 20t40 7.5h31q18 0 32.5 -16.5t14.5 -39.5t-14.5 -40t-32.5 -17h-31
z" />
    <glyph glyph-name="s" unicode="s" horiz-adv-x="414" 
d="M201 89q44 0 58.5 14t14.5 29q0 22 -17.5 34t-44 20t-57 16.5t-57 23t-44 39.5t-17.5 67q0 27 9 53.5t30 47.5t55.5 34.5t84.5 13.5q30 0 59 -5t51 -13.5t35.5 -20.5t13.5 -26q0 -7 -3 -17.5t-9 -20.5t-15 -17t-20 -7q-9 0 -19.5 4.5t-24 10t-29.5 10t-37 4.5
q-38 0 -54 -15t-16 -30q0 -18 18 -28t44.5 -17.5t57.5 -16t57.5 -24.5t44.5 -43.5t18 -71.5q0 -67 -47.5 -106.5t-136.5 -39.5q-38 0 -71 7t-57.5 19t-38.5 27.5t-14 32.5q0 8 3 18t9 18.5t14 14.5t17 6q11 0 21.5 -7t25.5 -15.5t35.5 -15.5t52.5 -7z" />
    <glyph glyph-name="t" unicode="t" horiz-adv-x="347" 
d="M178 162q0 -29 12 -41t44 -12h39q28 0 41.5 -17t13.5 -37q0 -21 -13.5 -38t-41.5 -17h-39q-91 0 -138 38.5t-47 123.5v485q0 18 20.5 29t43.5 11q25 0 45 -11t20 -29v-172h118q16 0 24.5 -15t8.5 -32q0 -18 -8.5 -32.5t-24.5 -14.5h-118v-219z" />
    <glyph glyph-name="u" unicode="u" 
d="M262 -9q-45 0 -84.5 16.5t-69 44.5t-46.5 65t-17 77v240q0 15 19 28t46 13q26 0 45 -13t19 -28v-240q0 -17 7 -33t19 -29t28 -20.5t34 -7.5t34 7.5t28 20t18.5 29t6.5 33.5v241q0 16 19.5 28t45.5 12q29 0 46.5 -12t17.5 -28v-241q0 -41 -17 -77.5t-46.5 -64.5t-69 -44.5
t-83.5 -16.5z" />
    <glyph glyph-name="v" unicode="v" horiz-adv-x="481" 
d="M11 408q-2 3 -3.5 8.5t-1.5 9.5q0 11 9 21t22 17.5t28 12t27 4.5q13 0 23 -5.5t15 -16.5l111 -290l111 288q9 24 37 24q10 0 25 -4.5t28.5 -12t23 -17.5t9.5 -22q0 -9 -4 -17l-171 -396q-5 -11 -22.5 -17t-36.5 -6q-20 0 -36.5 5.5t-21.5 17.5z" />
    <glyph glyph-name="w" unicode="w" horiz-adv-x="693" 
d="M528 12q-5 -13 -19.5 -18t-31.5 -5q-19 0 -33.5 6t-19.5 17l-77 218l-76 -217q-5 -12 -20.5 -18t-34.5 -6q-16 0 -30.5 5t-19.5 19l-154 395q-5 10 -5 19q0 12 8.5 21.5t21 16.5t27 11t27.5 4t23 -5t14 -16l100 -284l75 247q5 17 17 21.5t27 4.5q14 0 26.5 -4.5
t17.5 -21.5l74 -248l101 285q8 21 37 21q12 0 26.5 -4t27 -11t21 -17t8.5 -22q0 -11 -4 -18z" />
    <glyph glyph-name="x" unicode="x" horiz-adv-x="470" 
d="M21 55q0 12 8 22l118 165l-110 153q-2 3 -5 9t-3 12q0 11 8.5 22.5t21.5 21t28 15.5t28 6q5 0 14 -2t15 -12l91 -146l92 145q5 8 14 11.5t16 3.5q12 0 26.5 -6t27.5 -15.5t22 -21t9 -22.5q0 -8 -8 -21l-111 -154l119 -164q8 -8 8 -22q0 -11 -8.5 -22t-21 -20.5t-27 -15.5
t-27.5 -6q-8 0 -16.5 3t-13.5 11l-101 152l-100 -152q-5 -8 -14.5 -11t-17.5 -3q-10 0 -24 6t-27 15t-22 20.5t-9 22.5z" />
    <glyph glyph-name="y" unicode="y" horiz-adv-x="476" 
d="M10 403q-4 10 -4 17q0 13 9 24t22 19.5t28 13.5t27 5q13 0 23 -5t14 -17l120 -299l97 299q4 12 13.5 17t20.5 5q12 0 27 -5t28.5 -13.5t23 -20.5t9.5 -25q0 -8 -3 -15l-146 -373q-18 -45 -34.5 -90t-43 -80.5t-68 -58t-108.5 -22.5q-25 0 -42 9.5t-17 45.5q0 22 7.5 38
t25.5 16q16 0 39.5 6t45.5 22.5t38.5 45t19.5 73.5z" />
    <glyph glyph-name="z" unicode="z" horiz-adv-x="437" 
d="M381 105q16 0 27 -15t11 -38q0 -21 -10.5 -36.5t-27.5 -15.5h-316q-24 0 -34 14.5t-10 31.5q0 15 7 28.5t15 23.5l197 272h-173q-16 0 -27 15t-11 38q0 21 10.5 36.5t27.5 15.5h294q17 0 29.5 -10.5t12.5 -33.5q0 -28 -20 -54l-198 -272h196z" />
    <glyph glyph-name="braceleft" unicode="{" horiz-adv-x="361" 
d="M21 386q0 23 9.5 32t20.5 13t20.5 8.5t9.5 19.5q0 7 -2.5 25t-5.5 39t-5.5 41t-2.5 32q0 34 18 65t48 55t67.5 38t76.5 14q21 0 34.5 -5t22 -13.5t11.5 -18.5t3 -20q0 -19 -10 -36t-30 -17q-15 0 -34.5 -4.5t-36.5 -14t-28.5 -24.5t-11.5 -36q0 -10 2.5 -29t5.5 -40
t5.5 -39.5t2.5 -27.5q0 -21 -13.5 -38.5t-22.5 -20.5q11 -3 23.5 -19.5t12.5 -38.5q0 -9 -2.5 -33.5t-5.5 -52t-5.5 -51.5t-2.5 -33q0 -20 12 -32.5t29.5 -20t36.5 -10.5t33 -3q12 0 19.5 -5.5t12 -13.5t6.5 -17.5t2 -17.5q0 -56 -73 -56q-39 0 -76 12t-66.5 33t-47.5 50.5
t-18 65.5q0 13 2.5 38t5.5 52l5.5 49.5t2.5 30.5q0 15 -9.5 20t-20.5 9.5t-20.5 13.5t-9.5 32z" />
    <glyph glyph-name="bar" unicode="|" horiz-adv-x="241" 
d="M120 768q27 0 46 -11.5t19 -28.5v-708q0 -15 -19 -28t-46 -13q-28 0 -46 13t-18 28v708q0 17 18 28.5t46 11.5z" />
    <glyph glyph-name="braceright" unicode="}" horiz-adv-x="361" 
d="M340 386q0 -23 -9.5 -32t-20.5 -13.5t-20.5 -9.5t-9.5 -20q0 -8 2.5 -30.5l5.5 -49.5t5.5 -52t2.5 -38q0 -36 -18 -65.5t-47 -50.5t-66.5 -33t-76.5 -12q-73 0 -73 56q0 8 2 17.5t6.5 17.5t12.5 13.5t20 5.5q14 0 33 3t36 10.5t29 20t12 32.5q0 9 -2.5 33t-5.5 51.5
t-5.5 52t-2.5 33.5q0 22 13 38.5t23 19.5q-9 3 -22.5 20.5t-13.5 38.5q0 9 2.5 27.5t5.5 39.5t5.5 40t2.5 29q0 21 -11.5 36t-28 24.5t-36 14t-34.5 4.5q-20 0 -30.5 17t-10.5 36q0 10 3.5 20t11.5 18.5t22 13.5t35 5q39 0 76.5 -14t67 -38t47.5 -55t18 -65q0 -12 -2.5 -32
t-5.5 -41t-5.5 -39t-2.5 -25q0 -15 9.5 -19.5t20.5 -8.5t20.5 -13t9.5 -32z" />
    <glyph glyph-name="asciitilde" unicode="~" horiz-adv-x="411" 
d="M150 228q-16 0 -27.5 -4t-21 -8.5t-17.5 -8t-16 -3.5q-10 0 -16.5 5t-10 12t-5 14t-1.5 11q0 23 10 36.5t24 20.5t28.5 9t23.5 2q22 0 39 -4.5t33.5 -10t33 -10t36.5 -4.5q16 0 28 3.5t21 8t16.5 8.5t15.5 4q10 0 16 -5t10 -12t5.5 -14t1.5 -11q0 -23 -10 -36.5
t-24 -20.5t-28.5 -9t-22.5 -2q-25 0 -43 4.5t-34 10t-31 10t-34 4.5z" />
    <glyph glyph-name="uni00A0" unicode="&#xa0;" horiz-adv-x="200" 
 />
    <glyph glyph-name="exclamdown" unicode="&#xa1;" horiz-adv-x="221" 
d="M48 48q0 50 2 106.5t5 114.5t5 114t2 106q0 20 16.5 29t31.5 9q20 0 35 -9t15 -29q0 -50 2 -106t4.5 -114t4.5 -114.5t2 -106.5q0 -26 -18 -40t-45 -14q-26 0 -44 14t-18 40zM110 598q-28 0 -48 20t-20 49q0 27 20 47.5t48 20.5q29 0 48.5 -20.5t19.5 -47.5
q0 -29 -19.5 -49t-48.5 -20z" />
    <glyph glyph-name="cent" unicode="&#xa2;" horiz-adv-x="432" 
d="M244 695q15 0 26.5 -9.5t11.5 -25.5v-79q53 -7 86.5 -27.5t33.5 -46.5q0 -9 -4 -19.5t-10.5 -19.5t-16 -14.5t-21.5 -5.5q-6 0 -12 3t-14 7.5t-18 8.5t-24 7v-207q14 3 24 7.5t17.5 9t13.5 8t13 3.5q26 0 41 -19t15 -39q0 -13 -9.5 -25.5t-26.5 -23t-39.5 -18.5
t-48.5 -12v-82q0 -14 -11.5 -25.5t-26.5 -11.5q-16 0 -27 11.5t-11 25.5v81q-48 4 -82 21.5t-56.5 44.5t-33 62t-10.5 76v18q0 40 10.5 75t33 62t56.5 44.5t82 22.5v77q0 16 11 25.5t27 9.5zM137 361q0 -38 16.5 -62.5t52.5 -33.5v209q-36 -9 -52.5 -33t-16.5 -62v-18z" />
    <glyph glyph-name="sterling" unicode="&#xa3;" horiz-adv-x="541" 
d="M470 114q20 0 29.5 -17.5t9.5 -39.5q0 -21 -9.5 -39t-29.5 -18h-410q-20 0 -29.5 18t-9.5 39q0 22 9.5 39.5t29.5 17.5h53l35 252h-56q-16 0 -24.5 14.5t-8.5 32.5q0 17 8.5 32t24.5 15h69l14 95q7 46 30.5 85.5t58 67.5t77.5 44t89 16h35q21 0 32.5 -18t11.5 -38
q0 -21 -11.5 -39t-32.5 -18h-40q-55 0 -85 -29t-36 -71l-14 -95h120q17 0 25 -15t8 -32q0 -18 -8 -32.5t-25 -14.5h-133l-36 -252h229z" />
    <glyph glyph-name="currency" unicode="&#xa4;" horiz-adv-x="452" 
d="M226 652q30 0 58 -10.5t51 -28.5l25 23q6 5 14 5q11 0 19.5 -8.5t8.5 -19.5q0 -7 -6 -13l-26 -25q16 -21 25 -47t9 -55t-9 -55.5t-26 -48.5l27 -25q6 -6 6 -13q0 -11 -8.5 -19.5t-19.5 -8.5q-8 0 -14 5l-25 23q-23 -20 -51 -30.5t-58 -10.5q-31 0 -59 11t-52 31l-25 -24
q-6 -5 -14 -5q-11 0 -19.5 8.5t-8.5 19.5q0 7 6 13l28 26q-16 22 -24.5 48t-8.5 54t8.5 54t23.5 48l-26 25q-5 5 -5 13q0 11 8.5 19.5t19.5 8.5q6 0 13 -5l24 -23q23 19 51 29.5t60 10.5zM333 471q0 21 -8.5 40.5t-22.5 35t-34 24.5t-42 9t-41.5 -9t-33.5 -24t-22.5 -34.5
t-8.5 -40.5t8.5 -41t22.5 -35.5t33.5 -24.5t41.5 -9t41.5 9t34 24.5t23 35t8.5 40.5z" />
    <glyph glyph-name="yen" unicode="&#xa5;" horiz-adv-x="563" 
d="M85 354q0 20 11 33.5t30 13.5h60l-161 266q-2 3 -3 8t-1 8q0 10 7.5 19.5t18.5 17t25 12t26 4.5q14 0 22 -8.5t15 -21.5l146 -271l147 271q7 13 15 21.5t22 8.5q12 0 26 -5t25 -12.5t18.5 -17t7.5 -18.5q0 -8 -4 -16l-164 -266h65q16 0 29 -13t13 -33t-13 -32.5
t-29 -12.5h-93v-64h93q16 0 29 -13t13 -33t-13 -32.5t-29 -12.5h-93v-114q0 -20 -20 -30.5t-45 -10.5t-45 10.5t-20 30.5v114h-90q-19 0 -30 12t-11 32t11 33.5t30 13.5h90v64h-90q-19 0 -30 12t-11 32z" />
    <glyph glyph-name="brokenbar" unicode="&#xa6;" horiz-adv-x="239" 
d="M119 768q27 0 46 -11.5t19 -28.5v-250q0 -16 -19 -29t-46 -13q-28 0 -46 13t-18 29v250q0 17 18 28.5t46 11.5zM119 311q27 0 46 -11.5t19 -29.5v-250q0 -15 -19 -28t-46 -13q-28 0 -46 13t-18 28v250q0 18 18 29.5t46 11.5z" />
    <glyph glyph-name="section" unicode="&#xa7;" horiz-adv-x="477" 
d="M44 524q0 63 19 103t47.5 63t63 32t65.5 9q46 0 80 -14.5t56.5 -38t33.5 -53.5t11 -61t-13 -41t-36 -10q-32 0 -43.5 13t-11.5 30q0 11 -3 23t-11 22.5t-22 17.5t-36 7q-38 0 -59.5 -20.5t-21.5 -54.5q0 -30 20.5 -48t51.5 -32t66.5 -29t66.5 -39t51.5 -61.5t20.5 -96.5
v-107q0 -61 -19 -100.5t-49 -63t-66.5 -33t-70.5 -9.5q-48 0 -84.5 15t-61 38.5t-37 53.5t-12.5 60t14.5 40.5t40.5 10.5q32 0 44 -11t12 -25q0 -11 2.5 -24.5t10.5 -24.5t23 -18.5t40 -7.5q44 0 63.5 20.5t19.5 51.5q0 30 -19.5 48t-49.5 32t-64 29t-64 39t-49.5 61
t-19.5 97v107zM334 261q0 40 -21 61.5t-50 35.5t-60 25t-52 29v-21q0 -40 21 -61.5t50 -35.5t60 -25t52 -29v21z" />
    <glyph glyph-name="dieresis" unicode="&#xa8;" horiz-adv-x="251" 
d="M51 682q21 0 35.5 -15.5t14.5 -36.5t-14.5 -37t-35.5 -16t-36 16t-15 37t15 36.5t36 15.5zM201 682q20 0 35 -15.5t15 -36.5t-15 -37t-35 -16q-22 0 -37 16t-15 37t15 36.5t37 15.5z" />
    <glyph glyph-name="copyright" unicode="&#xa9;" horiz-adv-x="690" 
d="M38 358q0 84 29 145.5t74 102t100 60t107 19.5q53 0 107 -20t98 -60t71.5 -101t27.5 -142q0 -84 -29 -145.5t-74 -102t-100 -60t-107 -19.5q-53 0 -107 20t-98 60t-71.5 101t-27.5 142zM590 362q0 57 -17 104.5t-48.5 82.5t-76.5 54.5t-100 19.5t-100.5 -19.5
t-78.5 -54.5t-51 -83.5t-18 -107.5q0 -57 17 -104.5t48.5 -82.5t76 -54.5t100.5 -19.5q55 0 100.5 19.5t78.5 54.5t51 83.5t18 107.5zM398 445q0 6 -1.5 15.5t-6.5 18t-14.5 14.5t-26.5 6q-51 0 -51 -63v-138q0 -33 13 -48t38 -15q16 0 25.5 6t14.5 15t6.5 19t2.5 19
q1 13 11 17.5t24 4.5q19 0 27.5 -7t8.5 -29q0 -51 -34.5 -80.5t-88.5 -29.5q-24 0 -46 7t-38 22t-25.5 39.5t-9.5 59.5v138q0 35 9.5 59.5t25.5 39.5t38 22t46 7q54 0 88.5 -28.5t34.5 -77.5q0 -22 -8.5 -29t-26.5 -7q-15 0 -25 5t-11 18z" />
    <glyph glyph-name="ordfeminine" unicode="&#xaa;" horiz-adv-x="334" 
d="M152 760q39 0 66 -11t44.5 -29.5t25 -42t7.5 -48.5v-163q0 -11 -11.5 -19t-31.5 -8q-16 0 -27 8t-11 19v20q-17 -20 -41 -36.5t-57 -16.5q-36 0 -63 20.5t-27 67.5q0 29 11.5 48t32 30t49 15.5t63.5 4.5h27v9q0 22 -13 42t-45 20q-20 0 -32 -3.5t-19.5 -7.5t-13 -7.5
t-11.5 -3.5q-15 0 -22.5 14.5t-7.5 29.5q0 10 10 19t26 15.5t34.5 10t36.5 3.5zM209 574h-21q-30 0 -52.5 -8t-22.5 -33q0 -19 10 -27.5t25 -8.5q10 0 21 5t20 14t14.5 20.5t5.5 24.5v13z" />
    <glyph glyph-name="guillemotleft" unicode="&#xab;" horiz-adv-x="499" 
d="M234 152q3 -6 3 -13q0 -10 -6.5 -21.5t-18 -21t-26 -16t-30.5 -6.5q-27 0 -36 17l-73 136q-10 19 -16.5 28.5t-6.5 20.5q0 12 6.5 22t16.5 29l73 136q9 17 37 17q16 0 30.5 -6.5t25.5 -16t17.5 -21t6.5 -21.5q0 -8 -3 -12l-67 -126zM461 152q3 -6 3 -13q0 -10 -6.5 -21.5
t-17.5 -21t-25.5 -16t-30.5 -6.5q-28 0 -36 17l-74 136q-10 19 -16.5 28.5t-6.5 20.5q0 12 6.5 22t16.5 29l74 136q8 17 36 17q16 0 30.5 -6.5t25.5 -16t17.5 -21t6.5 -21.5q0 -8 -3 -12l-67 -126z" />
    <glyph glyph-name="logicalnot" unicode="&#xac;" horiz-adv-x="497" 
d="M32 240q0 23 11 38.5t29 15.5h334q16 0 29 -15.5t13 -38.5v-136q0 -16 -19 -28.5t-46 -12.5q-28 0 -46 12.5t-18 28.5v83h-247q-18 0 -29 14.5t-11 38.5z" />
    <glyph glyph-name="uni00AD" unicode="&#xad;" horiz-adv-x="473" 
d="M36 240q0 23 11 38.5t29 15.5h320q16 0 29 -15.5t13 -38.5q0 -24 -13 -38.5t-29 -14.5h-320q-18 0 -29 14.5t-11 38.5z" />
    <glyph glyph-name="registered" unicode="&#xae;" horiz-adv-x="690" 
d="M38 358q0 84 29 145.5t74 102t100 60t107 19.5q53 0 107 -20t98 -60t71.5 -101t27.5 -142q0 -84 -29 -145.5t-74 -102t-100 -60t-107 -19.5q-53 0 -107 20t-98 60t-71.5 101t-27.5 142zM238 528q0 9 6 15.5t16 7.5h98q24 0 45 -5.5t37 -18t25.5 -33.5t9.5 -51
q0 -43 -18.5 -68t-45.5 -35l61 -119q1 -2 1 -7q0 -14 -12 -25t-25 -11q-14 0 -21 18l-66 133h-44v-126q0 -11 -9 -17.5t-23 -6.5q-13 0 -24 6t-11 18v325zM305 491v-105h53q23 0 37 12t14 38q0 31 -14 43t-37 12h-53zM590 362q0 57 -17 104.5t-48.5 82.5t-76.5 54.5
t-100 19.5t-100.5 -19.5t-78.5 -54.5t-51 -83.5t-18 -107.5q0 -57 17 -104.5t48.5 -82.5t76 -54.5t100.5 -19.5q55 0 100.5 19.5t78.5 54.5t51 83.5t18 107.5z" />
    <glyph glyph-name="macron" unicode="&#xaf;" horiz-adv-x="286" 
d="M0 652q0 18 11 30.5t29 12.5h205q16 0 28.5 -12.5t12.5 -30.5q0 -19 -12.5 -30.5t-28.5 -11.5h-205q-18 0 -29 11.5t-11 30.5z" />
    <glyph glyph-name="degree" unicode="&#xb0;" horiz-adv-x="399" 
d="M199 768q36 0 68 -14.5t56.5 -39t39 -57t14.5 -68.5t-14.5 -69.5t-39 -58.5t-56.5 -40t-68 -15t-68 15t-56 40t-38.5 58t-14.5 69t14 68.5t38 57.5t56.5 39.5t68.5 14.5zM306 587q0 21 -8.5 40.5t-22.5 35t-34 24.5t-42 9t-41.5 -9t-33.5 -24t-22.5 -34.5t-8.5 -40.5
t8.5 -41t22.5 -35.5t33.5 -24.5t41.5 -9t41.5 9t34 24.5t23 35t8.5 40.5z" />
    <glyph glyph-name="plusminus" unicode="&#xb1;" horiz-adv-x="471" 
d="M236 176q-23 0 -38.5 11t-15.5 29v99h-107q-18 0 -29 15t-11 38t11 39t29 16h107v98q0 15 15.5 28t38.5 13q24 0 38.5 -13t14.5 -28v-98h106q16 0 28.5 -16t12.5 -39t-12.5 -38t-28.5 -15h-106v-99q0 -18 -14.5 -29t-38.5 -11zM35 85q0 23 11 38.5t29 15.5h320
q16 0 28.5 -15.5t12.5 -38.5q0 -24 -12.5 -38.5t-28.5 -14.5h-320q-18 0 -29 14.5t-11 38.5z" />
    <glyph glyph-name="twosuperior" unicode="&#xb2;" horiz-adv-x="322" 
d="M31 626q0 25 11 44.5t29.5 33t42 20.5t48.5 7q26 0 50.5 -7.5t43.5 -21.5t30.5 -35.5t11.5 -48.5q0 -29 -13.5 -52t-34 -41.5t-44.5 -33t-44.5 -27.5t-34 -24.5t-13.5 -23.5v-10h158q11 0 18.5 -11t7.5 -26q0 -14 -7.5 -26t-18.5 -12h-210q-12 0 -25 7.5t-13 19.5v53
q0 21 14 39.5t35 35.5t45 33t45 31.5t35 31.5t14 33q0 13 -11.5 26t-37.5 13q-20 0 -33.5 -9.5t-13.5 -31.5q0 -12 -12.5 -21.5t-33.5 -9.5q-17 0 -28 9t-11 35z" />
    <glyph glyph-name="threesuperior" unicode="&#xb3;" horiz-adv-x="329" 
d="M161 403q32 0 45 11.5t13 37.5v10q0 28 -17 35.5t-43 7.5q-15 0 -20.5 10.5t-5.5 22.5q0 13 5.5 23t20.5 11q9 0 18 1.5t16 6t11 13.5t4 25q0 24 -13.5 32t-33.5 8q-25 0 -36.5 -6t-11.5 -22q0 -14 -8 -22.5t-32 -8.5q-29 0 -36.5 7t-7.5 27q0 16 6.5 33.5t21.5 31.5
t40.5 23.5t63.5 9.5q28 0 51.5 -5t40.5 -16.5t27 -30.5t10 -47q0 -30 -11.5 -55t-34.5 -35q27 -9 43.5 -28t16.5 -52v-10q0 -34 -11.5 -57.5t-31 -38.5t-46.5 -21.5t-57 -6.5q-37 0 -63.5 10t-43 25t-24 33.5t-7.5 35.5q0 19 8.5 25t31.5 6q27 0 35.5 -6.5t8.5 -21.5
q0 -18 17 -25t40 -7z" />
    <glyph glyph-name="acute" unicode="&#xb4;" horiz-adv-x="202" 
d="M54 572q-4 -2 -7 -3t-7 -1q-17 0 -28.5 16t-11.5 33q0 22 17 31l132 64q4 1 7 1.5t6 0.5q17 0 28.5 -16t11.5 -33q0 -9 -4 -17t-14 -13z" />
    <glyph glyph-name="mu" unicode="&#xb5;" horiz-adv-x="518" 
d="M273 -9q-30 0 -56.5 11t-46.5 28v-210q0 -16 -15 -28.5t-36 -12.5q-27 0 -45 12.5t-18 28.5v614q0 15 19 28t46 13q26 0 45 -13t19 -28v-245q0 -15 7 -30t19.5 -27t28.5 -20t34 -8t33.5 7.5t27 20.5t18 29t6.5 33v240q0 17 19.5 29t45.5 12q28 0 46 -12t18 -29v-240
q0 -41 -17 -78t-46 -64.5t-68 -44t-84 -16.5z" />
    <glyph glyph-name="paragraph" unicode="&#xb6;" horiz-adv-x="555" 
d="M451 731q16 0 28.5 -10.5t12.5 -30.5v-650q0 -21 -12.5 -30.5t-28.5 -9.5t-29 9.5t-13 30.5v632h-82v-631q0 -20 -13 -30.5t-29 -10.5t-28.5 10.5t-12.5 30.5v265h-25q-41 0 -77 11t-62.5 36t-41.5 64.5t-15 95.5v12q0 56 15 95.5t41.5 64t62.5 35.5t77 11h232z" />
    <glyph glyph-name="periodcentered" unicode="&#xb7;" horiz-adv-x="206" 
d="M103 363q30 0 50.5 -18.5t20.5 -44.5t-20.5 -45t-50.5 -19t-51 19t-21 45t21 44.5t51 18.5z" />
    <glyph glyph-name="cedilla" unicode="&#xb8;" horiz-adv-x="190" 
d="M91 -51q51 -2 75 -24.5t24 -52.5q0 -13 -5 -28.5t-17.5 -28.5t-32.5 -22t-50 -9q-13 0 -28 1.5t-27.5 5.5t-21 9t-8.5 13q0 3 1.5 9t4 12.5t7 11t10.5 4.5q8 0 20.5 -7t37.5 -7q47 0 47 33q0 32 -48 37l-55 5l28 98h57z" />
    <glyph glyph-name="onesuperior" unicode="&#xb9;" horiz-adv-x="193" 
d="M66 636l-17 -10q-7 -4 -15 -4q-12 0 -19.5 10.5t-7.5 22.5q0 21 15 30l76 44q4 2 7.5 3t8.5 1q14 0 26.5 -7.5t12.5 -20.5v-347q0 -14 -13.5 -20.5t-29.5 -6.5q-17 0 -30.5 6.5t-13.5 20.5v278z" />
    <glyph glyph-name="ordmasculine" unicode="&#xba;" horiz-adv-x="344" 
d="M171 760q29 0 55.5 -10.5t46.5 -29t31.5 -43.5t11.5 -53v-55q0 -27 -11.5 -51.5t-31.5 -43.5t-46.5 -30.5t-55.5 -11.5t-55 11.5t-46 30.5t-31.5 43.5t-11.5 51.5v55q0 27 11.5 52t31 43.5t45.5 29.5t56 11zM230 624q0 23 -17 41.5t-42 18.5q-24 0 -41 -18.5t-17 -41.5
v-55q0 -23 17 -42t41 -19q25 0 42 19t17 42v55z" />
    <glyph glyph-name="guillemotright" unicode="&#xbb;" horiz-adv-x="500" 
d="M332 277l-67 126q-3 4 -3 12q0 10 6.5 21.5t18 21t26 16t30.5 6.5q28 0 36 -17l74 -136q10 -19 16.5 -29t6.5 -22q0 -11 -6.5 -20.5t-16.5 -28.5l-74 -136q-8 -17 -36 -17q-16 0 -30.5 6.5t-26 16t-18 21t-6.5 21.5q0 7 3 13zM105 277l-67 126q-3 4 -3 12q0 10 6.5 21.5
t17.5 21t25.5 16t30.5 6.5q28 0 37 -17l73 -136q10 -19 16.5 -29t6.5 -22q0 -11 -6.5 -20.5t-16.5 -28.5l-73 -136q-9 -17 -36 -17q-16 0 -30.5 6.5t-26 16t-18 21t-6.5 21.5q0 7 3 13z" />
    <glyph glyph-name="onequarter" unicode="&#xbc;" horiz-adv-x="665" 
d="M84 636l-17 -10q-7 -4 -15 -4q-12 0 -19.5 10.5t-7.5 22.5q0 21 15 30l76 44q4 2 7.5 3t8.5 1q14 0 26.5 -7.5t12.5 -20.5v-347q0 -14 -13.5 -20.5t-29.5 -6.5q-17 0 -30.5 6.5t-13.5 20.5v278zM478 771q17 0 33.5 -12.5t16.5 -32.5q0 -10 -4 -18l-360 -726
q-5 -11 -15.5 -16.5t-23.5 -5.5q-21 0 -34 14t-13 30q0 7 4 17l360 729q5 11 15 16t21 5zM506 84h-140q-12 0 -20 7.5t-8 22.5q0 8 4 16l138 248q7 11 16.5 16.5t19.5 5.5q6 0 13 -2.5t14 -6.5t11.5 -10t4.5 -13t-3 -11l-108 -194h58v38q0 14 13.5 20t29.5 6q17 0 30.5 -6
t13.5 -20v-38h26q14 0 20 -12t6 -27t-8 -27.5t-18 -12.5h-26v-58q0 -13 -13.5 -19.5t-30.5 -6.5q-16 0 -29.5 6.5t-13.5 19.5v58z" />
    <glyph glyph-name="onehalf" unicode="&#xbd;" horiz-adv-x="654" 
d="M360 295q0 25 11 44.5t29.5 33t42 20.5t48.5 7q26 0 50.5 -7.5t43.5 -22t30.5 -35.5t11.5 -49q0 -29 -13.5 -51.5t-34 -41t-44.5 -33.5t-44.5 -28t-34 -24.5t-13.5 -23.5v-9h158q11 0 18.5 -11t7.5 -26t-7.5 -26.5t-18.5 -11.5h-210q-12 0 -25 7t-13 19v54q0 21 14 39.5
t35 35.5t45 33t45 31.5t35 31.5t14 33q0 13 -11.5 25.5t-37.5 12.5q-20 0 -33.5 -9t-13.5 -32q0 -11 -12.5 -21t-33.5 -10q-17 0 -28 9.5t-11 35.5zM81 636l-17 -10q-7 -4 -15 -4q-12 0 -19.5 10.5t-7.5 22.5q0 21 15 30l76 44q4 2 7.5 3t8.5 1q14 0 26.5 -7.5t12.5 -20.5
v-347q0 -14 -13.5 -20.5t-29.5 -6.5q-17 0 -30.5 6.5t-13.5 20.5v278zM459 771q17 0 33.5 -12.5t16.5 -32.5q0 -10 -4 -18l-360 -726q-5 -11 -15.5 -16.5t-23.5 -5.5q-21 0 -34 14t-13 30q0 7 4 17l360 729q5 11 15 16t21 5z" />
    <glyph glyph-name="threequarters" unicode="&#xbe;" horiz-adv-x="799" 
d="M169 403q32 0 45 11.5t13 37.5v10q0 28 -17 35.5t-43 7.5q-15 0 -20.5 10.5t-5.5 22.5q0 13 5.5 23t20.5 11q9 0 18 1.5t16 6t11 13.5t4 25q0 24 -13.5 32t-33.5 8q-25 0 -36.5 -6t-11.5 -22q0 -14 -8 -22.5t-32 -8.5q-29 0 -36.5 7t-7.5 27q0 16 6.5 33.5t21.5 31.5
t40.5 23.5t63.5 9.5q28 0 51.5 -5t40.5 -16.5t27 -30.5t10 -47q0 -30 -11.5 -55t-34.5 -35q27 -9 43.5 -28t16.5 -52v-10q0 -34 -11.5 -57.5t-31 -38.5t-46.5 -21.5t-57 -6.5q-37 0 -63.5 10t-43 25t-24 33.5t-7.5 35.5q0 19 8.5 25t31.5 6q27 0 35.5 -6.5t8.5 -21.5
q0 -18 17 -25t40 -7zM640 84h-140q-12 0 -20 7.5t-8 22.5q0 8 4 16l138 248q7 11 16.5 16.5t19.5 5.5q6 0 13 -2.5t14 -6.5t11.5 -10t4.5 -13t-3 -11l-108 -194h58v38q0 14 13.5 20t29.5 6q17 0 30.5 -6t13.5 -20v-38h26q14 0 20 -12t6 -27t-8 -27.5t-18 -12.5h-26v-58
q0 -13 -13.5 -19.5t-30.5 -6.5q-16 0 -29.5 6.5t-13.5 19.5v58zM605 771q17 0 33.5 -12.5t16.5 -32.5q0 -10 -4 -18l-360 -726q-5 -11 -15.5 -16.5t-23.5 -5.5q-21 0 -34 14t-13 30q0 7 4 17l360 729q5 11 15 16t21 5z" />
    <glyph glyph-name="questiondown" unicode="&#xbf;" horiz-adv-x="436" 
d="M25 163q0 39 14 70.5t33.5 56t39 42t31.5 26.5q18 14 28 28.5t15 30t6 34t1 40.5q0 14 10 25t40 11q26 0 36.5 -12t10.5 -44q0 -35 -5.5 -60.5t-14.5 -44.5t-20 -31.5t-21 -22.5q-13 -12 -30 -25.5t-32 -29t-25.5 -35.5t-10.5 -46q0 -42 28.5 -63.5t74.5 -21.5
q37 0 55.5 11t30 23.5t20 23.5t25.5 11t33.5 -12t16.5 -36q0 -18 -11.5 -38.5t-35 -38.5t-58 -29.5t-79.5 -11.5q-48 0 -86 13t-64.5 35.5t-41 53.5t-14.5 67zM242 598q-28 0 -48 20t-20 49q0 27 19.5 47.5t48.5 20.5t48 -20.5t19 -47.5q0 -29 -19.5 -49t-47.5 -20z" />
    <glyph glyph-name="Agrave" unicode="&#xc0;" horiz-adv-x="575" 
d="M91 0q-13 0 -27.5 4t-26.5 11t-20 17t-8 22q0 2 2 10l193 629q7 23 31 33.5t52 10.5q29 0 53 -10.5t31 -33.5l193 -629q2 -8 2 -10q0 -12 -8 -21.5t-20 -17t-26.5 -11.5t-27.5 -4q-17 0 -28.5 6t-15.5 20l-38 133h-229l-38 -133q-4 -14 -15.5 -20t-28.5 -6zM374 261
l-87 307l-87 -307h174zM190 878q-10 5 -14 13t-4 17q0 17 11.5 33t28.5 16q3 0 6 -0.5t7 -1.5l132 -64q17 -9 17 -31q0 -17 -11.5 -33t-28.5 -16q-4 0 -7 1t-7 3z" />
    <glyph glyph-name="Aacute" unicode="&#xc1;" horiz-adv-x="575" 
d="M91 0q-13 0 -27.5 4t-26.5 11t-20 17t-8 22q0 2 2 10l193 629q7 23 31 33.5t52 10.5q29 0 53 -10.5t31 -33.5l193 -629q2 -8 2 -10q0 -12 -8 -21.5t-20 -17t-26.5 -11.5t-27.5 -4q-17 0 -28.5 6t-15.5 20l-38 133h-229l-38 -133q-4 -14 -15.5 -20t-28.5 -6zM374 261
l-87 307l-87 -307h174zM269 815q-4 -2 -7 -3t-7 -1q-17 0 -28.5 16t-11.5 33q0 22 17 31l132 64q4 1 7 1.5t6 0.5q17 0 28.5 -16t11.5 -33q0 -9 -4 -17t-14 -13z" />
    <glyph glyph-name="Acircumflex" unicode="&#xc2;" horiz-adv-x="575" 
d="M91 0q-13 0 -27.5 4t-26.5 11t-20 17t-8 22q0 2 2 10l193 629q7 23 31 33.5t52 10.5q29 0 53 -10.5t31 -33.5l193 -629q2 -8 2 -10q0 -12 -8 -21.5t-20 -17t-26.5 -11.5t-27.5 -4q-17 0 -28.5 6t-15.5 20l-38 133h-229l-38 -133q-4 -14 -15.5 -20t-28.5 -6zM374 261
l-87 307l-87 -307h174zM183 822q-6 -3 -11 -3q-12 0 -20 12t-8 28q0 11 5 21t17 16l104 56q8 5 17 5q7 0 17 -5l104 -55q11 -7 16 -17.5t5 -21.5q0 -15 -8 -27t-20 -12q-6 0 -10 3l-104 56z" />
    <glyph glyph-name="Atilde" unicode="&#xc3;" horiz-adv-x="575" 
d="M91 0q-13 0 -27.5 4t-26.5 11t-20 17t-8 22q0 2 2 10l193 629q7 23 31 33.5t52 10.5q29 0 53 -10.5t31 -33.5l193 -629q2 -8 2 -10q0 -12 -8 -21.5t-20 -17t-26.5 -11.5t-27.5 -4q-17 0 -28.5 6t-15.5 20l-38 133h-229l-38 -133q-4 -14 -15.5 -20t-28.5 -6zM374 261
l-87 307l-87 -307h174zM231 860q-16 0 -27.5 -4t-21 -8.5t-17.5 -8t-16 -3.5q-10 0 -16.5 5t-10 12t-5 14t-1.5 11q0 23 10 36.5t24 20.5t28.5 9t23.5 2q22 0 39 -4.5t33.5 -10t33 -10t36.5 -4.5q16 0 28 3.5t21 8t16.5 8.5t15.5 4q10 0 16 -5t10 -12t5.5 -14t1.5 -11
q0 -23 -10 -36.5t-24 -20.5t-28.5 -9t-22.5 -2q-25 0 -43 4.5t-34 10t-31 10t-34 4.5z" />
    <glyph glyph-name="Adieresis" unicode="&#xc4;" horiz-adv-x="575" 
d="M91 0q-13 0 -27.5 4t-26.5 11t-20 17t-8 22q0 2 2 10l193 629q7 23 31 33.5t52 10.5q29 0 53 -10.5t31 -33.5l193 -629q2 -8 2 -10q0 -12 -8 -21.5t-20 -17t-26.5 -11.5t-27.5 -4q-17 0 -28.5 6t-15.5 20l-38 133h-229l-38 -133q-4 -14 -15.5 -20t-28.5 -6zM374 261
l-87 307l-87 -307h174zM214 925q21 0 35.5 -15.5t14.5 -36.5t-14.5 -37t-35.5 -16t-36 16t-15 37t15 36.5t36 15.5zM364 925q20 0 35 -15.5t15 -36.5t-15 -37t-35 -16q-22 0 -37 16t-15 37t15 36.5t37 15.5z" />
    <glyph glyph-name="Aring" unicode="&#xc5;" horiz-adv-x="575" 
d="M91 0q-13 0 -27.5 4t-26.5 11t-20 17t-8 22q0 2 2 10l193 629q7 23 31 33.5t52 10.5q29 0 53 -10.5t31 -33.5l193 -629q2 -8 2 -10q0 -12 -8 -21.5t-20 -17t-26.5 -11.5t-27.5 -4q-17 0 -28.5 6t-15.5 20l-38 133h-229l-38 -133q-4 -14 -15.5 -20t-28.5 -6zM374 261
l-87 307l-87 -307h174zM286 1012q20 0 38 -8t31.5 -22t21.5 -32t8 -37q0 -20 -8 -38t-22 -32t-32 -22.5t-37 -8.5q-20 0 -37.5 8.5t-30.5 22.5t-21 32t-8 38q0 19 7.5 37t20.5 31.5t31 22t38 8.5zM331 912q0 17 -12.5 31t-31.5 14q-20 0 -33.5 -14t-13.5 -31t13.5 -32.5
t33.5 -15.5q19 0 31.5 15t12.5 33z" />
    <glyph glyph-name="AE" unicode="&#xc6;" horiz-adv-x="787" 
d="M502 417h119q20 0 30.5 -16t10.5 -36q0 -17 -10 -33.5t-31 -16.5h-119v-201h228q20 0 30.5 -17.5t10.5 -40.5q0 -20 -9.5 -38t-31.5 -18h-301q-22 0 -39.5 10.5t-17.5 30.5v274h-192v-269q0 -10 -2 -18.5t-9 -14.5t-20 -9.5t-34 -3.5q-32 0 -45 13t-13 33v456
q0 63 18 106.5t48.5 70.5t72 39.5t89.5 12.5h445q22 0 31.5 -18t9.5 -38q0 -23 -10.5 -40.5t-30.5 -17.5h-228v-200zM180 417h192v200h-87q-50 0 -77.5 -28t-27.5 -87v-85z" />
    <glyph glyph-name="Ccedilla" unicode="&#xc7;" horiz-adv-x="550" 
d="M392 518q-1 12 -4 28.5t-13.5 32.5t-30.5 27t-56 11q-51 0 -78 -28t-27 -87v-279q0 -59 27.5 -87t79.5 -28q34 0 54 11t30 27t13.5 34.5t4.5 34.5q2 23 20 32t44 9q34 0 50 -13t16 -51q0 -41 -14.5 -75t-41.5 -59.5t-64 -41.5t-82 -20l-15 -47q51 -2 75 -24.5t24 -52.5
q0 -13 -5 -28.5t-17.5 -28.5t-32.5 -22t-50 -9q-13 0 -28 1.5t-27.5 5.5t-21 9t-8.5 13q0 3 1.5 9t4 12.5t7 11t10.5 4.5q8 0 20.5 -7t37.5 -7q47 0 47 33q0 32 -48 37l-55 5l24 84q-44 2 -82 16t-66.5 41t-45 69.5t-16.5 101.5v279q0 63 18.5 106.5t50 70.5t73.5 39.5
t89 12.5q52 0 96 -13.5t75.5 -38t49 -60t17.5 -78.5q0 -39 -16 -51.5t-49 -12.5q-28 0 -46 9t-19 32z" />
    <glyph glyph-name="Egrave" unicode="&#xc8;" horiz-adv-x="529" 
d="M190 417h152q20 0 30.5 -16t10.5 -36q0 -17 -10 -33.5t-31 -16.5h-152v-201h283q20 0 30.5 -17.5t10.5 -40.5q0 -20 -10 -38t-31 -18h-356q-22 0 -39.5 10.5t-17.5 30.5v649q0 20 17.5 30.5t39.5 10.5h356q21 0 31 -18t10 -38q0 -23 -10.5 -40.5t-30.5 -17.5h-283v-200z
M199 878q-10 5 -14 13t-4 17q0 17 11.5 33t28.5 16q3 0 6 -0.5t7 -1.5l132 -64q17 -9 17 -31q0 -17 -11.5 -33t-28.5 -16q-4 0 -7 1t-7 3z" />
    <glyph glyph-name="Eacute" unicode="&#xc9;" horiz-adv-x="529" 
d="M259 815q-4 -2 -7 -3t-7 -1q-17 0 -28.5 16t-11.5 33q0 22 17 31l132 64q4 1 7 1.5t6 0.5q17 0 28.5 -16t11.5 -33q0 -9 -4 -17t-14 -13zM190 417h152q20 0 30.5 -16t10.5 -36q0 -17 -10 -33.5t-31 -16.5h-152v-201h283q20 0 30.5 -17.5t10.5 -40.5q0 -20 -10 -38
t-31 -18h-356q-22 0 -39.5 10.5t-17.5 30.5v649q0 20 17.5 30.5t39.5 10.5h356q21 0 31 -18t10 -38q0 -23 -10.5 -40.5t-30.5 -17.5h-283v-200z" />
    <glyph glyph-name="Ecircumflex" unicode="&#xca;" horiz-adv-x="530" 
d="M191 822q-6 -3 -11 -3q-12 0 -20 12t-8 28q0 11 5 21t17 16l104 56q8 5 17 5q7 0 17 -5l104 -55q11 -7 16 -17.5t5 -21.5q0 -15 -8 -27t-20 -12q-6 0 -10 3l-104 56zM190 417h152q20 0 30.5 -16t10.5 -36q0 -17 -10 -33.5t-31 -16.5h-152v-201h283q20 0 30.5 -17.5
t10.5 -40.5q0 -20 -10 -38t-31 -18h-356q-22 0 -39.5 10.5t-17.5 30.5v649q0 20 17.5 30.5t39.5 10.5h356q21 0 31 -18t10 -38q0 -23 -10.5 -40.5t-30.5 -17.5h-283v-200z" />
    <glyph glyph-name="Edieresis" unicode="&#xcb;" horiz-adv-x="530" 
d="M215 925q21 0 35.5 -15.5t14.5 -36.5t-14.5 -37t-35.5 -16t-36 16t-15 37t15 36.5t36 15.5zM365 925q20 0 35 -15.5t15 -36.5t-15 -37t-35 -16q-22 0 -37 16t-15 37t15 36.5t37 15.5zM190 417h152q20 0 30.5 -16t10.5 -36q0 -17 -10 -33.5t-31 -16.5h-152v-201h283
q20 0 30.5 -17.5t10.5 -40.5q0 -20 -10 -38t-31 -18h-356q-22 0 -39.5 10.5t-17.5 30.5v649q0 20 17.5 30.5t39.5 10.5h356q21 0 31 -18t10 -38q0 -23 -10.5 -40.5t-30.5 -17.5h-283v-200z" />
    <glyph glyph-name="Igrave" unicode="&#xcc;" horiz-adv-x="250" 
d="M60 691q0 21 20 30.5t45 9.5q24 0 44.5 -9.5t20.5 -30.5v-650q0 -20 -20.5 -30.5t-44.5 -10.5q-25 0 -45 10.5t-20 30.5v650zM35 878q-10 5 -14 13t-4 17q0 17 11.5 33t28.5 16q3 0 6 -0.5t7 -1.5l132 -64q17 -9 17 -31q0 -17 -11.5 -33t-28.5 -16q-4 0 -7 1t-7 3z" />
    <glyph glyph-name="Iacute" unicode="&#xcd;" horiz-adv-x="250" 
d="M60 691q0 21 20 30.5t45 9.5q24 0 44.5 -9.5t20.5 -30.5v-650q0 -20 -20.5 -30.5t-44.5 -10.5q-25 0 -45 10.5t-20 30.5v650zM85 815q-4 -2 -7 -3t-7 -1q-17 0 -28.5 16t-11.5 33q0 22 17 31l132 64q4 1 7 1.5t6 0.5q17 0 28.5 -16t11.5 -33q0 -9 -4 -17t-14 -13z" />
    <glyph glyph-name="Icircumflex" unicode="&#xce;" horiz-adv-x="250" 
d="M60 691q0 21 20 30.5t45 9.5q24 0 44.5 -9.5t20.5 -30.5v-650q0 -20 -20.5 -30.5t-44.5 -10.5q-25 0 -45 10.5t-20 30.5v650zM23 822q-6 -3 -11 -3q-12 0 -20 12t-8 28q0 11 5 21t17 16l104 56q8 5 17 5q7 0 17 -5l104 -55q11 -7 16 -17.5t5 -21.5q0 -15 -8 -27t-20 -12
q-6 0 -10 3l-104 56z" />
    <glyph glyph-name="Idieresis" unicode="&#xcf;" horiz-adv-x="250" 
d="M60 691q0 21 20 30.5t45 9.5q24 0 44.5 -9.5t20.5 -30.5v-650q0 -20 -20.5 -30.5t-44.5 -10.5q-25 0 -45 10.5t-20 30.5v650zM52 925q21 0 35.5 -15.5t14.5 -36.5t-14.5 -37t-35.5 -16t-36 16t-15 37t15 36.5t36 15.5zM202 925q20 0 35 -15.5t15 -36.5t-15 -37t-35 -16
q-22 0 -37 16t-15 37t15 36.5t37 15.5z" />
    <glyph glyph-name="Eth" unicode="&#xd0;" horiz-adv-x="587" 
d="M301 731q49 0 92 -12.5t75 -39.5t50 -70.5t18 -106.5v-273q0 -63 -18 -106.5t-50 -70.5t-75 -39.5t-92 -12.5h-177q-26 0 -41.5 12t-15.5 28v296h-41q-16 0 -24.5 14t-8.5 32t8.5 32.5t24.5 14.5h41v262q0 16 15.5 28t41.5 12h177zM197 617v-188h77q17 0 25.5 -14.5
t8.5 -32.5t-8.5 -32t-25.5 -14h-77v-222h104q50 0 77.5 28t27.5 87v273q0 59 -27.5 87t-77.5 28h-104z" />
    <glyph glyph-name="Ntilde" unicode="&#xd1;" horiz-adv-x="605" 
d="M480 0q-23 0 -42.5 9t-32.5 32l-215 402v-402q0 -20 -20.5 -30.5t-44.5 -10.5q-25 0 -45 10.5t-20 30.5v649q0 21 20 31t45 10q18 0 31 -2.5t23.5 -10t20.5 -21t22 -35.5l193 -373v402q0 21 20 30.5t45 9.5q24 0 44.5 -9.5t20.5 -30.5v-650q0 -20 -20.5 -30.5
t-44.5 -10.5zM239 860q-16 0 -27.5 -4t-21 -8.5t-17.5 -8t-16 -3.5q-10 0 -16.5 5t-10 12t-5 14t-1.5 11q0 23 10 36.5t24 20.5t28.5 9t23.5 2q22 0 39 -4.5t33.5 -10t33 -10t36.5 -4.5q16 0 28 3.5t21 8t16.5 8.5t15.5 4q10 0 16 -5t10 -12t5.5 -14t1.5 -11
q0 -23 -10 -36.5t-24 -20.5t-28.5 -9t-22.5 -2q-25 0 -43 4.5t-34 10t-31 10t-34 4.5z" />
    <glyph glyph-name="Ograve" unicode="&#xd2;" horiz-adv-x="572" 
d="M286 -6q-50 0 -92.5 12.5t-74 39.5t-49.5 70.5t-18 106.5v279q0 63 18 106.5t49.5 70.5t74 39.5t92.5 12.5q49 0 92 -12.5t75 -39.5t50 -70.5t18 -106.5v-279q0 -63 -18 -106.5t-50 -70.5t-75 -39.5t-92 -12.5zM391 502q0 60 -28 87.5t-77 27.5q-50 0 -77 -27.5
t-27 -87.5v-279q0 -60 27 -87.5t77 -27.5q49 0 77 27.5t28 87.5v279zM191 878q-10 5 -14 13t-4 17q0 17 11.5 33t28.5 16q3 0 6 -0.5t7 -1.5l132 -64q17 -9 17 -31q0 -17 -11.5 -33t-28.5 -16q-4 0 -7 1t-7 3z" />
    <glyph glyph-name="Oacute" unicode="&#xd3;" horiz-adv-x="572" 
d="M274 815q-4 -2 -7 -3t-7 -1q-17 0 -28.5 16t-11.5 33q0 22 17 31l132 64q4 1 7 1.5t6 0.5q17 0 28.5 -16t11.5 -33q0 -9 -4 -17t-14 -13zM286 -6q-50 0 -92.5 12.5t-74 39.5t-49.5 70.5t-18 106.5v279q0 63 18 106.5t49.5 70.5t74 39.5t92.5 12.5q49 0 92 -12.5t75 -39.5
t50 -70.5t18 -106.5v-279q0 -63 -18 -106.5t-50 -70.5t-75 -39.5t-92 -12.5zM391 502q0 60 -28 87.5t-77 27.5q-50 0 -77 -27.5t-27 -87.5v-279q0 -60 27 -87.5t77 -27.5q49 0 77 27.5t28 87.5v279z" />
    <glyph glyph-name="Ocircumflex" unicode="&#xd4;" horiz-adv-x="572" 
d="M182 822q-6 -3 -11 -3q-12 0 -20 12t-8 28q0 11 5 21t17 16l104 56q8 5 17 5q7 0 17 -5l104 -55q11 -7 16 -17.5t5 -21.5q0 -15 -8 -27t-20 -12q-6 0 -10 3l-104 56zM286 -6q-50 0 -92.5 12.5t-74 39.5t-49.5 70.5t-18 106.5v279q0 63 18 106.5t49.5 70.5t74 39.5
t92.5 12.5q49 0 92 -12.5t75 -39.5t50 -70.5t18 -106.5v-279q0 -63 -18 -106.5t-50 -70.5t-75 -39.5t-92 -12.5zM391 502q0 60 -28 87.5t-77 27.5q-50 0 -77 -27.5t-27 -87.5v-279q0 -60 27 -87.5t77 -27.5q49 0 77 27.5t28 87.5v279z" />
    <glyph glyph-name="Otilde" unicode="&#xd5;" horiz-adv-x="572" 
d="M286 -6q-50 0 -92.5 12.5t-74 39.5t-49.5 70.5t-18 106.5v279q0 63 18 106.5t49.5 70.5t74 39.5t92.5 12.5q49 0 92 -12.5t75 -39.5t50 -70.5t18 -106.5v-279q0 -63 -18 -106.5t-50 -70.5t-75 -39.5t-92 -12.5zM391 502q0 60 -28 87.5t-77 27.5q-50 0 -77 -27.5
t-27 -87.5v-279q0 -60 27 -87.5t77 -27.5q49 0 77 27.5t28 87.5v279zM230 860q-16 0 -27.5 -4t-21 -8.5t-17.5 -8t-16 -3.5q-10 0 -16.5 5t-10 12t-5 14t-1.5 11q0 23 10 36.5t24 20.5t28.5 9t23.5 2q22 0 39 -4.5t33.5 -10t33 -10t36.5 -4.5q16 0 28 3.5t21 8t16.5 8.5
t15.5 4q10 0 16 -5t10 -12t5.5 -14t1.5 -11q0 -23 -10 -36.5t-24 -20.5t-28.5 -9t-22.5 -2q-25 0 -43 4.5t-34 10t-31 10t-34 4.5z" />
    <glyph glyph-name="Odieresis" unicode="&#xd6;" horiz-adv-x="572" 
d="M213 925q21 0 35.5 -15.5t14.5 -36.5t-14.5 -37t-35.5 -16t-36 16t-15 37t15 36.5t36 15.5zM363 925q20 0 35 -15.5t15 -36.5t-15 -37t-35 -16q-22 0 -37 16t-15 37t15 36.5t37 15.5zM286 -6q-50 0 -92.5 12.5t-74 39.5t-49.5 70.5t-18 106.5v279q0 63 18 106.5
t49.5 70.5t74 39.5t92.5 12.5q49 0 92 -12.5t75 -39.5t50 -70.5t18 -106.5v-279q0 -63 -18 -106.5t-50 -70.5t-75 -39.5t-92 -12.5zM391 502q0 60 -28 87.5t-77 27.5q-50 0 -77 -27.5t-27 -87.5v-279q0 -60 27 -87.5t77 -27.5q49 0 77 27.5t28 87.5v279z" />
    <glyph glyph-name="multiply" unicode="&#xd7;" horiz-adv-x="407" 
d="M365 173q0 -11 -5.5 -21.5t-14 -19t-19 -14t-21.5 -5.5q-16 0 -26 10l-76 76l-75 -76q-10 -10 -26 -10q-10 0 -20.5 5.5t-19.5 14t-14.5 19.5t-5.5 22q0 15 10 25l84 76l-83 74q-10 12 -10 26q0 23 18.5 41.5t41.5 18.5q14 0 26 -10l74 -75l75 75q10 10 26 10
q23 0 41.5 -18.5t18.5 -40.5q0 -15 -10 -27l-83 -74l84 -76q10 -10 10 -26z" />
    <glyph glyph-name="Oslash" unicode="&#xd8;" horiz-adv-x="573" 
d="M463 771q18 0 34 -12.5t16 -32.5q0 -10 -4 -18l-29 -58q20 -27 30.5 -63.5t10.5 -84.5v-279q0 -63 -18 -106.5t-50 -70.5t-75 -39.5t-92 -12.5q-33 0 -63 5t-56 17l-17 -34q-5 -11 -16 -16.5t-23 -5.5q-22 0 -35 14t-13 30q0 9 5 17l26 52q-20 27 -31 64t-11 86v279
q0 63 18 106.5t49.5 70.5t74 39.5t92.5 12.5q33 0 63.5 -5.5t56.5 -17.5l21 42q5 11 15 16t21 5zM182 252l170 346q-25 19 -66 19q-50 0 -77 -27.5t-27 -87.5v-250zM391 469l-170 -344q24 -17 65 -17q49 0 77 27.5t28 87.5v246z" />
    <glyph glyph-name="Ugrave" unicode="&#xd9;" horiz-adv-x="594" 
d="M407 691q0 21 20 30.5t45 9.5q24 0 44.5 -9.5t20.5 -30.5v-468q0 -63 -18.5 -106.5t-51 -70.5t-76.5 -39.5t-94 -12.5q-51 0 -94.5 12.5t-76 39.5t-51 70.5t-18.5 106.5v468q0 21 20 30.5t45 9.5q24 0 44.5 -9.5t20.5 -30.5v-468q0 -59 29 -87t81 -28t81 28t29 87v468z
M197 878q-10 5 -14 13t-4 17q0 17 11.5 33t28.5 16q3 0 6 -0.5t7 -1.5l132 -64q17 -9 17 -31q0 -17 -11.5 -33t-28.5 -16q-4 0 -7 1t-7 3z" />
    <glyph glyph-name="Uacute" unicode="&#xda;" horiz-adv-x="594" 
d="M272 815q-4 -2 -7 -3t-7 -1q-17 0 -28.5 16t-11.5 33q0 22 17 31l132 64q4 1 7 1.5t6 0.5q17 0 28.5 -16t11.5 -33q0 -9 -4 -17t-14 -13zM407 691q0 21 20 30.5t45 9.5q24 0 44.5 -9.5t20.5 -30.5v-468q0 -63 -18.5 -106.5t-51 -70.5t-76.5 -39.5t-94 -12.5
q-51 0 -94.5 12.5t-76 39.5t-51 70.5t-18.5 106.5v468q0 21 20 30.5t45 9.5q24 0 44.5 -9.5t20.5 -30.5v-468q0 -59 29 -87t81 -28t81 28t29 87v468z" />
    <glyph glyph-name="Ucircumflex" unicode="&#xdb;" horiz-adv-x="594" 
d="M188 822q-6 -3 -11 -3q-12 0 -20 12t-8 28q0 11 5 21t17 16l104 56q8 5 17 5q7 0 17 -5l104 -55q11 -7 16 -17.5t5 -21.5q0 -15 -8 -27t-20 -12q-6 0 -10 3l-104 56zM407 691q0 21 20 30.5t45 9.5q24 0 44.5 -9.5t20.5 -30.5v-468q0 -63 -18.5 -106.5t-51 -70.5
t-76.5 -39.5t-94 -12.5q-51 0 -94.5 12.5t-76 39.5t-51 70.5t-18.5 106.5v468q0 21 20 30.5t45 9.5q24 0 44.5 -9.5t20.5 -30.5v-468q0 -59 29 -87t81 -28t81 28t29 87v468z" />
    <glyph glyph-name="Udieresis" unicode="&#xdc;" horiz-adv-x="594" 
d="M222 925q21 0 35.5 -15.5t14.5 -36.5t-14.5 -37t-35.5 -16t-36 16t-15 37t15 36.5t36 15.5zM372 925q20 0 35 -15.5t15 -36.5t-15 -37t-35 -16q-22 0 -37 16t-15 37t15 36.5t37 15.5zM407 691q0 21 20 30.5t45 9.5q24 0 44.5 -9.5t20.5 -30.5v-468q0 -63 -18.5 -106.5
t-51 -70.5t-76.5 -39.5t-94 -12.5q-51 0 -94.5 12.5t-76 39.5t-51 70.5t-18.5 106.5v468q0 21 20 30.5t45 9.5q24 0 44.5 -9.5t20.5 -30.5v-468q0 -59 29 -87t81 -28t81 28t29 87v468z" />
    <glyph glyph-name="Yacute" unicode="&#xdd;" horiz-adv-x="574" 
d="M222 293q0 8 -3 13l-207 358q-3 7 -3 13q0 12 8.5 22t21.5 17t28 11t28 4q16 0 24.5 -6t15.5 -20l152 -289l153 289q7 13 15 19.5t24 6.5q13 0 28 -4t28 -11t21.5 -17t8.5 -22q0 -2 -0.5 -5.5t-2.5 -7.5l-206 -358q-4 -6 -4 -13v-252q0 -20 -20 -30.5t-45 -10.5
q-24 0 -44.5 10.5t-20.5 30.5v252zM256 815q-4 -2 -7 -3t-7 -1q-17 0 -28.5 16t-11.5 33q0 22 17 31l132 64q4 1 7 1.5t6 0.5q17 0 28.5 -16t11.5 -33q0 -9 -4 -17t-14 -13z" />
    <glyph glyph-name="Thorn" unicode="&#xde;" horiz-adv-x="520" 
d="M122 744q29 0 48.5 -11t19.5 -29v-158q16 29 49 52.5t80 23.5q36 0 68.5 -15t56.5 -41.5t38 -62t14 -77.5v-96q0 -41 -14.5 -77t-38.5 -63t-55 -42.5t-64 -15.5q-23 0 -44 6.5t-39 17.5t-31 25t-20 30v-170q0 -15 -19.5 -28t-46.5 -13q-28 0 -45.5 13t-17.5 28v663
q0 18 17.5 29t43.5 11zM367 426q0 17 -7 32t-19.5 26.5t-28.5 18t-34 6.5q-17 0 -33 -6t-28 -16.5t-19.5 -26t-7.5 -34.5v-107q0 -9 6.5 -22t18.5 -24.5t28.5 -19.5t36.5 -8q17 0 32.5 6.5t27.5 18t19.5 27t7.5 33.5v96z" />
    <glyph glyph-name="germandbls" unicode="&#xdf;" horiz-adv-x="600" 
d="M352 -20q-17 0 -34.5 1.5t-32 7.5t-23.5 18t-9 33q0 9 1.5 19.5t5.5 19.5t10 15.5t14 6.5q11 0 26.5 -6t40.5 -6q45 0 70 28.5t25 81.5v13q0 35 -9 60t-25 42.5t-38.5 28t-48.5 16.5q-18 5 -29 14.5t-11 38.5q0 28 10.5 35.5t30.5 12.5q17 3 27 13.5t15.5 24t7.5 28.5
t2 28q0 44 -18.5 72.5t-62.5 28.5q-22 0 -36.5 -7.5t-23.5 -19.5t-12.5 -28t-3.5 -33v-527q0 -18 -20 -29t-46 -11t-44.5 11t-18.5 29v341h-56q-17 0 -25 14.5t-8 32.5q0 17 8 32t25 15h56v92q0 40 10.5 76.5t33.5 64t60.5 44t90.5 16.5q41 0 77 -11t62.5 -33.5t42 -57.5
t15.5 -82q0 -50 -18 -95t-50 -62q27 -5 54.5 -21.5t50 -43t37 -62t14.5 -77.5v-13q0 -56 -18 -99t-48 -72t-70 -44t-84 -15z" />
    <glyph glyph-name="agrave" unicode="&#xe0;" horiz-adv-x="471" 
d="M210 481q58 0 99 -16.5t67 -43.5t37.5 -62t11.5 -73v-245q0 -17 -18 -29t-45 -12q-25 0 -41.5 12t-16.5 29v29q-27 -31 -63.5 -55t-88.5 -24q-27 0 -50.5 8t-41 24.5t-28 41.5t-10.5 59q0 43 17 71.5t47.5 45t73.5 23.5t95 7h41v13q0 16 -4.5 32.5t-15 29.5t-27 21.5
t-41.5 8.5q-29 0 -47 -5t-30 -10.5t-20 -10.5t-17 -5q-22 0 -33 21t-11 43q0 15 15 28.5t38.5 23t51.5 15t55 5.5zM296 204h-15q-25 0 -48.5 -2t-41.5 -8.5t-29 -19t-11 -33.5q0 -28 15 -41t38 -13q15 0 31.5 8t30 21.5t22 31t8.5 35.5v21zM144 635q-10 5 -14 13t-4 17
q0 17 11.5 33t28.5 16q3 0 6 -0.5t7 -1.5l132 -64q17 -9 17 -31q0 -17 -11.5 -33t-28.5 -16q-4 0 -7 1t-7 3z" />
    <glyph glyph-name="aacute" unicode="&#xe1;" horiz-adv-x="471" 
d="M210 481q58 0 99 -16.5t67 -43.5t37.5 -62t11.5 -73v-245q0 -17 -18 -29t-45 -12q-25 0 -41.5 12t-16.5 29v29q-27 -31 -63.5 -55t-88.5 -24q-27 0 -50.5 8t-41 24.5t-28 41.5t-10.5 59q0 43 17 71.5t47.5 45t73.5 23.5t95 7h41v13q0 16 -4.5 32.5t-15 29.5t-27 21.5
t-41.5 8.5q-29 0 -47 -5t-30 -10.5t-20 -10.5t-17 -5q-22 0 -33 21t-11 43q0 15 15 28.5t38.5 23t51.5 15t55 5.5zM296 204h-15q-25 0 -48.5 -2t-41.5 -8.5t-29 -19t-11 -33.5q0 -28 15 -41t38 -13q15 0 31.5 8t30 21.5t22 31t8.5 35.5v21zM196 572q-4 -2 -7 -3t-7 -1
q-17 0 -28.5 16t-11.5 33q0 22 17 31l132 64q4 1 7 1.5t6 0.5q17 0 28.5 -16t11.5 -33q0 -9 -4 -17t-14 -13z" />
    <glyph glyph-name="acircumflex" unicode="&#xe2;" horiz-adv-x="471" 
d="M117 579q-6 -3 -11 -3q-12 0 -20 12t-8 28q0 11 5 21t17 16l104 56q8 5 17 5q7 0 17 -5l104 -55q11 -7 16 -17.5t5 -21.5q0 -15 -8 -27t-20 -12q-6 0 -10 3l-104 56zM210 481q58 0 99 -16.5t67 -43.5t37.5 -62t11.5 -73v-245q0 -17 -18 -29t-45 -12q-25 0 -41.5 12
t-16.5 29v29q-27 -31 -63.5 -55t-88.5 -24q-27 0 -50.5 8t-41 24.5t-28 41.5t-10.5 59q0 43 17 71.5t47.5 45t73.5 23.5t95 7h41v13q0 16 -4.5 32.5t-15 29.5t-27 21.5t-41.5 8.5q-29 0 -47 -5t-30 -10.5t-20 -10.5t-17 -5q-22 0 -33 21t-11 43q0 15 15 28.5t38.5 23
t51.5 15t55 5.5zM296 204h-15q-25 0 -48.5 -2t-41.5 -8.5t-29 -19t-11 -33.5q0 -28 15 -41t38 -13q15 0 31.5 8t30 21.5t22 31t8.5 35.5v21z" />
    <glyph glyph-name="atilde" unicode="&#xe3;" horiz-adv-x="471" 
d="M210 481q58 0 99 -16.5t67 -43.5t37.5 -62t11.5 -73v-245q0 -17 -18 -29t-45 -12q-25 0 -41.5 12t-16.5 29v29q-27 -31 -63.5 -55t-88.5 -24q-27 0 -50.5 8t-41 24.5t-28 41.5t-10.5 59q0 43 17 71.5t47.5 45t73.5 23.5t95 7h41v13q0 16 -4.5 32.5t-15 29.5t-27 21.5
t-41.5 8.5q-29 0 -47 -5t-30 -10.5t-20 -10.5t-17 -5q-22 0 -33 21t-11 43q0 15 15 28.5t38.5 23t51.5 15t55 5.5zM296 204h-15q-25 0 -48.5 -2t-41.5 -8.5t-29 -19t-11 -33.5q0 -28 15 -41t38 -13q15 0 31.5 8t30 21.5t22 31t8.5 35.5v21zM171 617q-16 0 -27.5 -4t-21 -8.5
t-17.5 -8t-16 -3.5q-10 0 -16.5 5t-10 12t-5 14t-1.5 11q0 23 10 36.5t24 20.5t28.5 9t23.5 2q22 0 39 -4.5t33.5 -10t33 -10t36.5 -4.5q16 0 28 3.5t21 8t16.5 8.5t15.5 4q10 0 16 -5t10 -12t5.5 -14t1.5 -11q0 -23 -10 -36.5t-24 -20.5t-28.5 -9t-22.5 -2q-25 0 -43 4.5
t-34 10t-31 10t-34 4.5z" />
    <glyph glyph-name="adieresis" unicode="&#xe4;" horiz-adv-x="471" 
d="M151 682q21 0 35.5 -15.5t14.5 -36.5t-14.5 -37t-35.5 -16t-36 16t-15 37t15 36.5t36 15.5zM301 682q20 0 35 -15.5t15 -36.5t-15 -37t-35 -16q-22 0 -37 16t-15 37t15 36.5t37 15.5zM210 481q58 0 99 -16.5t67 -43.5t37.5 -62t11.5 -73v-245q0 -17 -18 -29t-45 -12
q-25 0 -41.5 12t-16.5 29v29q-27 -31 -63.5 -55t-88.5 -24q-27 0 -50.5 8t-41 24.5t-28 41.5t-10.5 59q0 43 17 71.5t47.5 45t73.5 23.5t95 7h41v13q0 16 -4.5 32.5t-15 29.5t-27 21.5t-41.5 8.5q-29 0 -47 -5t-30 -10.5t-20 -10.5t-17 -5q-22 0 -33 21t-11 43q0 15 15 28.5
t38.5 23t51.5 15t55 5.5zM296 204h-15q-25 0 -48.5 -2t-41.5 -8.5t-29 -19t-11 -33.5q0 -28 15 -41t38 -13q15 0 31.5 8t30 21.5t22 31t8.5 35.5v21z" />
    <glyph glyph-name="aring" unicode="&#xe5;" horiz-adv-x="471" 
d="M210 481q58 0 99 -16.5t67 -43.5t37.5 -62t11.5 -73v-245q0 -17 -18 -29t-45 -12q-25 0 -41.5 12t-16.5 29v29q-27 -31 -63.5 -55t-88.5 -24q-27 0 -50.5 8t-41 24.5t-28 41.5t-10.5 59q0 43 17 71.5t47.5 45t73.5 23.5t95 7h41v13q0 16 -4.5 32.5t-15 29.5t-27 21.5
t-41.5 8.5q-29 0 -47 -5t-30 -10.5t-20 -10.5t-17 -5q-22 0 -33 21t-11 43q0 15 15 28.5t38.5 23t51.5 15t55 5.5zM296 204h-15q-25 0 -48.5 -2t-41.5 -8.5t-29 -19t-11 -33.5q0 -28 15 -41t38 -13q15 0 31.5 8t30 21.5t22 31t8.5 35.5v21zM227 769q20 0 38 -8t31.5 -22
t21.5 -32t8 -37q0 -20 -8 -38t-22 -32t-32 -22.5t-37 -8.5q-20 0 -37.5 8.5t-30.5 22.5t-21 32t-8 38q0 19 7.5 37t20.5 31.5t31 22t38 8.5zM272 669q0 17 -12.5 31t-31.5 14q-20 0 -33.5 -14t-13.5 -31t13.5 -32.5t33.5 -15.5q19 0 31.5 15t12.5 33z" />
    <glyph glyph-name="ae" unicode="&#xe6;" horiz-adv-x="748" 
d="M514 481q40 0 77.5 -13t66 -37.5t46 -60t17.5 -80.5q0 -30 -7.5 -47t-20 -26t-30 -11t-36.5 -2h-202v-15q0 -44 32.5 -70t83.5 -26q25 0 43 6t32.5 13t26 13t22.5 6t20 -6t15 -14.5t9.5 -18.5t3.5 -18q0 -14 -13.5 -28.5t-37 -26.5t-56 -20t-71.5 -8q-59 0 -106.5 25
t-78.5 71q-35 -45 -81.5 -70.5t-93.5 -25.5q-31 0 -58.5 8t-48.5 24.5t-33.5 41t-12.5 58.5q0 43 17 72t47.5 45.5t73.5 23.5t95 7h40v14q0 16 -4.5 32.5t-15 29.5t-27 21.5t-41.5 8.5q-29 0 -46.5 -5t-29.5 -11t-20 -11t-17 -5q-22 0 -33.5 21t-11.5 44q0 15 15 28
t38.5 22.5t52 15t55.5 5.5q56 0 94.5 -21.5t61.5 -56.5q28 35 65.5 56.5t82.5 21.5zM571 280q17 0 23 5.5t6 20.5q0 36 -26 58t-62 22q-35 0 -61 -21t-26 -57v-28h146zM295 204h-15q-25 0 -48.5 -2t-41.5 -8.5t-28.5 -19.5t-10.5 -34q0 -27 15 -40t38 -13q16 0 32 8t29 21.5
t21.5 31t8.5 35.5v21z" />
    <glyph glyph-name="ccedilla" unicode="&#xe7;" horiz-adv-x="434" 
d="M416 73q0 -14 -10.5 -27.5t-29.5 -24.5t-44.5 -18.5t-56.5 -10.5l-13 -43q51 -2 75 -24.5t24 -52.5q0 -13 -5 -28.5t-17.5 -28.5t-32.5 -22t-50 -9q-13 0 -28 1.5t-27.5 5.5t-21 9t-8.5 13q0 3 1.5 9t4 12.5t7 11t10.5 4.5q8 0 20.5 -7t37.5 -7q47 0 47 33q0 32 -48 37
l-55 5l23 82q-48 4 -83 21t-57.5 44t-33.5 62t-11 76v80q0 43 12.5 80.5t39 65t67 43.5t97.5 16q35 0 64.5 -6.5t50.5 -17.5t33 -25t12 -29q0 -9 -3.5 -20t-10.5 -20.5t-16 -16t-21 -6.5q-8 0 -16.5 4.5t-19.5 9.5t-26 9.5t-37 4.5q-51 0 -74 -24t-23 -68v-80q0 -44 23 -68
t75 -24q22 0 37 4.5t26 10.5t19.5 10.5t17.5 4.5q13 0 23.5 -6t17.5 -15t10.5 -20t3.5 -20z" />
    <glyph glyph-name="egrave" unicode="&#xe8;" horiz-adv-x="484" 
d="M251 481q41 0 78.5 -14t66 -38.5t45 -59t16.5 -76.5q0 -32 -8 -50t-21.5 -26.5t-30 -10.5t-33.5 -2h-203v-15q0 -44 32 -70t85 -26q25 0 43 6t32 13t25.5 13t22.5 6t20 -6t15.5 -15t10 -19t3.5 -17q0 -13 -12.5 -27.5t-35.5 -27t-55.5 -20.5t-72.5 -8q-53 0 -97.5 14.5
t-76.5 41.5t-50 65t-18 84v85q0 40 17 76.5t46.5 64t69.5 43.5t86 16zM307 280q16 0 22.5 5t6.5 22q0 35 -26 57t-62 22q-34 0 -60.5 -21t-26.5 -57v-28h146zM153 635q-10 5 -14 13t-4 17q0 17 11.5 33t28.5 16q3 0 6 -0.5t7 -1.5l132 -64q17 -9 17 -31q0 -17 -11.5 -33
t-28.5 -16q-4 0 -7 1t-7 3z" />
    <glyph glyph-name="eacute" unicode="&#xe9;" horiz-adv-x="484" 
d="M205 572q-4 -2 -7 -3t-7 -1q-17 0 -28.5 16t-11.5 33q0 22 17 31l132 64q4 1 7 1.5t6 0.5q17 0 28.5 -16t11.5 -33q0 -9 -4 -17t-14 -13zM251 481q41 0 78.5 -14t66 -38.5t45 -59t16.5 -76.5q0 -32 -8 -50t-21.5 -26.5t-30 -10.5t-33.5 -2h-203v-15q0 -44 32 -70t85 -26
q25 0 43 6t32 13t25.5 13t22.5 6t20 -6t15.5 -15t10 -19t3.5 -17q0 -13 -12.5 -27.5t-35.5 -27t-55.5 -20.5t-72.5 -8q-53 0 -97.5 14.5t-76.5 41.5t-50 65t-18 84v85q0 40 17 76.5t46.5 64t69.5 43.5t86 16zM307 280q16 0 22.5 5t6.5 22q0 35 -26 57t-62 22
q-34 0 -60.5 -21t-26.5 -57v-28h146z" />
    <glyph glyph-name="ecircumflex" unicode="&#xea;" horiz-adv-x="484" 
d="M145 579q-6 -3 -11 -3q-12 0 -20 12t-8 28q0 11 5 21t17 16l104 56q8 5 17 5q7 0 17 -5l104 -55q11 -7 16 -17.5t5 -21.5q0 -15 -8 -27t-20 -12q-6 0 -10 3l-104 56zM251 481q41 0 78.5 -14t66 -38.5t45 -59t16.5 -76.5q0 -32 -8 -50t-21.5 -26.5t-30 -10.5t-33.5 -2
h-203v-15q0 -44 32 -70t85 -26q25 0 43 6t32 13t25.5 13t22.5 6t20 -6t15.5 -15t10 -19t3.5 -17q0 -13 -12.5 -27.5t-35.5 -27t-55.5 -20.5t-72.5 -8q-53 0 -97.5 14.5t-76.5 41.5t-50 65t-18 84v85q0 40 17 76.5t46.5 64t69.5 43.5t86 16zM307 280q16 0 22.5 5t6.5 22
q0 35 -26 57t-62 22q-34 0 -60.5 -21t-26.5 -57v-28h146z" />
    <glyph glyph-name="edieresis" unicode="&#xeb;" horiz-adv-x="484" 
d="M173 682q21 0 35.5 -15.5t14.5 -36.5t-14.5 -37t-35.5 -16t-36 16t-15 37t15 36.5t36 15.5zM323 682q20 0 35 -15.5t15 -36.5t-15 -37t-35 -16q-22 0 -37 16t-15 37t15 36.5t37 15.5zM251 481q41 0 78.5 -14t66 -38.5t45 -59t16.5 -76.5q0 -32 -8 -50t-21.5 -26.5
t-30 -10.5t-33.5 -2h-203v-15q0 -44 32 -70t85 -26q25 0 43 6t32 13t25.5 13t22.5 6t20 -6t15.5 -15t10 -19t3.5 -17q0 -13 -12.5 -27.5t-35.5 -27t-55.5 -20.5t-72.5 -8q-53 0 -97.5 14.5t-76.5 41.5t-50 65t-18 84v85q0 40 17 76.5t46.5 64t69.5 43.5t86 16zM307 280
q16 0 22.5 5t6.5 22q0 35 -26 57t-62 22q-34 0 -60.5 -21t-26.5 -57v-28h146z" />
    <glyph glyph-name="igrave" unicode="&#xec;" horiz-adv-x="229" 
d="M114 475q27 0 46 -11t19 -29v-394q0 -15 -19 -28t-46 -13q-28 0 -46 13t-18 28v394q0 18 18 29t46 11zM16 635q-10 5 -14 13t-4 17q0 17 11.5 33t28.5 16q3 0 6 -0.5t7 -1.5l132 -64q17 -9 17 -31q0 -17 -11.5 -33t-28.5 -16q-4 0 -7 1t-7 3z" />
    <glyph glyph-name="iacute" unicode="&#xed;" horiz-adv-x="229" 
d="M84 572q-4 -2 -7 -3t-7 -1q-17 0 -28.5 16t-11.5 33q0 22 17 31l132 64q4 1 7 1.5t6 0.5q17 0 28.5 -16t11.5 -33q0 -9 -4 -17t-14 -13zM114 475q27 0 46 -11t19 -29v-394q0 -15 -19 -28t-46 -13q-28 0 -46 13t-18 28v394q0 18 18 29t46 11z" />
    <glyph glyph-name="icircumflex" unicode="&#xee;" horiz-adv-x="229" 
d="M11 579q-6 -3 -11 -3q-12 0 -20 12t-8 28q0 11 5 21t17 16l104 56q8 5 17 5q7 0 17 -5l104 -55q11 -7 16 -17.5t5 -21.5q0 -15 -8 -27t-20 -12q-6 0 -10 3l-104 56zM114 475q27 0 46 -11t19 -29v-394q0 -15 -19 -28t-46 -13q-28 0 -46 13t-18 28v394q0 18 18 29t46 11z
" />
    <glyph glyph-name="idieresis" unicode="&#xef;" horiz-adv-x="229" 
d="M43 682q21 0 35.5 -15.5t14.5 -36.5t-14.5 -37t-35.5 -16t-36 16t-15 37t15 36.5t36 15.5zM193 682q20 0 35 -15.5t15 -36.5t-15 -37t-35 -16q-22 0 -37 16t-15 37t15 36.5t37 15.5zM114 475q27 0 46 -11t19 -29v-394q0 -15 -19 -28t-46 -13q-28 0 -46 13t-18 28v394
q0 18 18 29t46 11z" />
    <glyph glyph-name="eth" unicode="&#xf0;" horiz-adv-x="512" 
d="M400 622q32 -62 50 -135t18 -139v-152q0 -41 -17.5 -78t-47.5 -65t-69.5 -45t-83.5 -17t-83.5 17t-69.5 45.5t-47.5 65.5t-17.5 77v82q0 42 14 78.5t38 64.5t56 44t69 16q45 0 80 -23t50 -55q-2 45 -14.5 84t-30.5 70l-53 -31q-5 -4 -13 -4q-17 0 -31.5 17t-14.5 35
q0 16 15 25l46 27q-8 9 -18 13.5t-19 6.5q-10 8 -18.5 18t-8.5 27q0 8 3 19t10.5 20.5t20 16t30.5 6.5q29 0 57.5 -15.5t53.5 -44.5l56 34q6 3 13 3q17 0 30.5 -16.5t13.5 -33.5q0 -18 -14 -26zM161 196q0 -18 7 -34.5t19 -29t28.5 -20.5t34.5 -8q19 0 35 8t28 20.5t19 29
t7 34.5v83q0 19 -7.5 35.5t-20.5 28.5t-29 18.5t-33 6.5q-19 0 -35 -7.5t-28 -20.5t-18.5 -29t-6.5 -33v-82z" />
    <glyph glyph-name="ntilde" unicode="&#xf1;" horiz-adv-x="523" 
d="M204 617q-16 0 -27.5 -4t-21 -8.5t-17.5 -8t-16 -3.5q-10 0 -16.5 5t-10 12t-5 14t-1.5 11q0 23 10 36.5t24 20.5t28.5 9t23.5 2q22 0 39 -4.5t33.5 -10t33 -10t36.5 -4.5q16 0 28 3.5t21 8t16.5 8.5t15.5 4q10 0 16 -5t10 -12t5.5 -14t1.5 -11q0 -23 -10 -36.5
t-24 -20.5t-28.5 -9t-22.5 -2q-25 0 -43 4.5t-34 10t-31 10t-34 4.5zM179 41q0 -15 -19.5 -28t-45.5 -13q-29 0 -46.5 13t-17.5 28v394q0 18 17.5 29t46.5 11q23 0 40 -11t17 -29v-30q14 29 49 52.5t85 23.5q34 0 65.5 -16t55 -44t37.5 -64.5t14 -78.5v-237
q0 -20 -20.5 -30.5t-44.5 -10.5q-23 0 -43.5 10.5t-20.5 30.5v237q0 17 -7 33t-18.5 29t-27.5 20.5t-34 7.5q-31 0 -56.5 -24t-25.5 -66v-237z" />
    <glyph glyph-name="ograve" unicode="&#xf2;" horiz-adv-x="498" 
d="M249 481q43 0 82.5 -16t69.5 -44t47.5 -64.5t17.5 -78.5v-82q0 -40 -17.5 -77t-47.5 -65.5t-69.5 -45.5t-82.5 -17q-44 0 -83.5 17t-69 45t-47 65t-17.5 78v82q0 40 17 77t46.5 65t69 44.5t84.5 16.5zM337 278q0 17 -7 33t-19 29t-28 20.5t-34 7.5t-34 -7.5t-28 -20.5
t-19 -29t-7 -33v-82q0 -18 7 -34.5t19 -29t28 -20.5t34 -8t34 8t28 20.5t19 29t7 34.5v82zM154 635q-10 5 -14 13t-4 17q0 17 11.5 33t28.5 16q3 0 6 -0.5t7 -1.5l132 -64q17 -9 17 -31q0 -17 -11.5 -33t-28.5 -16q-4 0 -7 1t-7 3z" />
    <glyph glyph-name="oacute" unicode="&#xf3;" horiz-adv-x="498" 
d="M205 572q-4 -2 -7 -3t-7 -1q-17 0 -28.5 16t-11.5 33q0 22 17 31l132 64q4 1 7 1.5t6 0.5q17 0 28.5 -16t11.5 -33q0 -9 -4 -17t-14 -13zM249 481q43 0 82.5 -16t69.5 -44t47.5 -64.5t17.5 -78.5v-82q0 -40 -17.5 -77t-47.5 -65.5t-69.5 -45.5t-82.5 -17q-44 0 -83.5 17
t-69 45t-47 65t-17.5 78v82q0 40 17 77t46.5 65t69 44.5t84.5 16.5zM337 278q0 17 -7 33t-19 29t-28 20.5t-34 7.5t-34 -7.5t-28 -20.5t-19 -29t-7 -33v-82q0 -18 7 -34.5t19 -29t28 -20.5t34 -8t34 8t28 20.5t19 29t7 34.5v82z" />
    <glyph glyph-name="ocircumflex" unicode="&#xf4;" horiz-adv-x="498" 
d="M145 579q-6 -3 -11 -3q-12 0 -20 12t-8 28q0 11 5 21t17 16l104 56q8 5 17 5q7 0 17 -5l104 -55q11 -7 16 -17.5t5 -21.5q0 -15 -8 -27t-20 -12q-6 0 -10 3l-104 56zM249 481q43 0 82.5 -16t69.5 -44t47.5 -64.5t17.5 -78.5v-82q0 -40 -17.5 -77t-47.5 -65.5t-69.5 -45.5
t-82.5 -17q-44 0 -83.5 17t-69 45t-47 65t-17.5 78v82q0 40 17 77t46.5 65t69 44.5t84.5 16.5zM337 278q0 17 -7 33t-19 29t-28 20.5t-34 7.5t-34 -7.5t-28 -20.5t-19 -29t-7 -33v-82q0 -18 7 -34.5t19 -29t28 -20.5t34 -8t34 8t28 20.5t19 29t7 34.5v82z" />
    <glyph glyph-name="otilde" unicode="&#xf5;" horiz-adv-x="498" 
d="M249 481q43 0 82.5 -16t69.5 -44t47.5 -64.5t17.5 -78.5v-82q0 -40 -17.5 -77t-47.5 -65.5t-69.5 -45.5t-82.5 -17q-44 0 -83.5 17t-69 45t-47 65t-17.5 78v82q0 40 17 77t46.5 65t69 44.5t84.5 16.5zM337 278q0 17 -7 33t-19 29t-28 20.5t-34 7.5t-34 -7.5t-28 -20.5
t-19 -29t-7 -33v-82q0 -18 7 -34.5t19 -29t28 -20.5t34 -8t34 8t28 20.5t19 29t7 34.5v82zM194 617q-16 0 -27.5 -4t-21 -8.5t-17.5 -8t-16 -3.5q-10 0 -16.5 5t-10 12t-5 14t-1.5 11q0 23 10 36.5t24 20.5t28.5 9t23.5 2q22 0 39 -4.5t33.5 -10t33 -10t36.5 -4.5
q16 0 28 3.5t21 8t16.5 8.5t15.5 4q10 0 16 -5t10 -12t5.5 -14t1.5 -11q0 -23 -10 -36.5t-24 -20.5t-28.5 -9t-22.5 -2q-25 0 -43 4.5t-34 10t-31 10t-34 4.5z" />
    <glyph glyph-name="odieresis" unicode="&#xf6;" horiz-adv-x="498" 
d="M175 682q21 0 35.5 -15.5t14.5 -36.5t-14.5 -37t-35.5 -16t-36 16t-15 37t15 36.5t36 15.5zM325 682q20 0 35 -15.5t15 -36.5t-15 -37t-35 -16q-22 0 -37 16t-15 37t15 36.5t37 15.5zM249 481q43 0 82.5 -16t69.5 -44t47.5 -64.5t17.5 -78.5v-82q0 -40 -17.5 -77
t-47.5 -65.5t-69.5 -45.5t-82.5 -17q-44 0 -83.5 17t-69 45t-47 65t-17.5 78v82q0 40 17 77t46.5 65t69 44.5t84.5 16.5zM337 278q0 17 -7 33t-19 29t-28 20.5t-34 7.5t-34 -7.5t-28 -20.5t-19 -29t-7 -33v-82q0 -18 7 -34.5t19 -29t28 -20.5t34 -8t34 8t28 20.5t19 29
t7 34.5v82z" />
    <glyph glyph-name="divide" unicode="&#xf7;" horiz-adv-x="446" 
d="M22 238q0 22 12 36.5t30 14.5h317q17 0 30 -14.5t13 -36.5q0 -23 -13 -36t-30 -13h-317q-18 0 -30 13t-12 36zM220 128q23 0 42 -16.5t19 -42.5q0 -24 -19 -41.5t-42 -17.5q-25 0 -43.5 17.5t-18.5 41.5q0 26 18.5 42.5t43.5 16.5zM220 468q23 0 42 -17.5t19 -41.5
q0 -25 -19 -42t-42 -17q-25 0 -43.5 17t-18.5 42q0 24 18.5 41.5t43.5 17.5z" />
    <glyph glyph-name="oslash" unicode="&#xf8;" horiz-adv-x="498" 
d="M249 481q62 0 113 -31l34 48q8 12 20 12t21 -9t9 -20q0 -9 -7 -19l-33 -46q28 -28 44 -63t16 -75v-82q0 -40 -17.5 -77t-47.5 -65.5t-69.5 -45.5t-82.5 -17q-33 0 -63.5 9.5t-56.5 26.5l-35 -50q-6 -9 -17 -9q-10 0 -19 8t-9 19q0 4 2 8l4 8l34 49q-26 28 -41.5 63
t-15.5 73v82q0 40 17 77t46.5 65t69 44.5t84.5 16.5zM337 278q0 8 -2 15.5t-5 15.5l-133 -187q11 -8 24 -13t28 -5q18 0 34 8t28 20.5t19 29t7 34.5v82zM161 196q0 -16 4 -28l130 185q-23 15 -46 15q-18 0 -34 -7.5t-28 -20.5t-19 -29t-7 -33v-82z" />
    <glyph glyph-name="ugrave" unicode="&#xf9;" 
d="M262 -9q-45 0 -84.5 16.5t-69 44.5t-46.5 65t-17 77v240q0 15 19 28t46 13q26 0 45 -13t19 -28v-240q0 -17 7 -33t19 -29t28 -20.5t34 -7.5t34 7.5t28 20t18.5 29t6.5 33.5v241q0 16 19.5 28t45.5 12q29 0 46.5 -12t17.5 -28v-241q0 -41 -17 -77.5t-46.5 -64.5t-69 -44.5
t-83.5 -16.5zM166 635q-10 5 -14 13t-4 17q0 17 11.5 33t28.5 16q3 0 6 -0.5t7 -1.5l132 -64q17 -9 17 -31q0 -17 -11.5 -33t-28.5 -16q-4 0 -7 1t-7 3z" />
    <glyph glyph-name="uacute" unicode="&#xfa;" 
d="M226 572q-4 -2 -7 -3t-7 -1q-17 0 -28.5 16t-11.5 33q0 22 17 31l132 64q4 1 7 1.5t6 0.5q17 0 28.5 -16t11.5 -33q0 -9 -4 -17t-14 -13zM262 -9q-45 0 -84.5 16.5t-69 44.5t-46.5 65t-17 77v240q0 15 19 28t46 13q26 0 45 -13t19 -28v-240q0 -17 7 -33t19 -29t28 -20.5
t34 -7.5t34 7.5t28 20t18.5 29t6.5 33.5v241q0 16 19.5 28t45.5 12q29 0 46.5 -12t17.5 -28v-241q0 -41 -17 -77.5t-46.5 -64.5t-69 -44.5t-83.5 -16.5z" />
    <glyph glyph-name="ucircumflex" unicode="&#xfb;" 
d="M159 579q-6 -3 -11 -3q-12 0 -20 12t-8 28q0 11 5 21t17 16l104 56q8 5 17 5q7 0 17 -5l104 -55q11 -7 16 -17.5t5 -21.5q0 -15 -8 -27t-20 -12q-6 0 -10 3l-104 56zM262 -9q-45 0 -84.5 16.5t-69 44.5t-46.5 65t-17 77v240q0 15 19 28t46 13q26 0 45 -13t19 -28v-240
q0 -17 7 -33t19 -29t28 -20.5t34 -7.5t34 7.5t28 20t18.5 29t6.5 33.5v241q0 16 19.5 28t45.5 12q29 0 46.5 -12t17.5 -28v-241q0 -41 -17 -77.5t-46.5 -64.5t-69 -44.5t-83.5 -16.5z" />
    <glyph glyph-name="udieresis" unicode="&#xfc;" 
d="M188 682q21 0 35.5 -15.5t14.5 -36.5t-14.5 -37t-35.5 -16t-36 16t-15 37t15 36.5t36 15.5zM338 682q20 0 35 -15.5t15 -36.5t-15 -37t-35 -16q-22 0 -37 16t-15 37t15 36.5t37 15.5zM262 -9q-45 0 -84.5 16.5t-69 44.5t-46.5 65t-17 77v240q0 15 19 28t46 13
q26 0 45 -13t19 -28v-240q0 -17 7 -33t19 -29t28 -20.5t34 -7.5t34 7.5t28 20t18.5 29t6.5 33.5v241q0 16 19.5 28t45.5 12q29 0 46.5 -12t17.5 -28v-241q0 -41 -17 -77.5t-46.5 -64.5t-69 -44.5t-83.5 -16.5z" />
    <glyph glyph-name="yacute" unicode="&#xfd;" horiz-adv-x="476" 
d="M10 403q-4 10 -4 17q0 13 9 24t22 19.5t28 13.5t27 5q13 0 23 -5t14 -17l120 -299l97 299q4 12 13.5 17t20.5 5q12 0 27 -5t28.5 -13.5t23 -20.5t9.5 -25q0 -8 -3 -15l-146 -373q-18 -45 -34.5 -90t-43 -80.5t-68 -58t-108.5 -22.5q-25 0 -42 9.5t-17 45.5q0 22 7.5 38
t25.5 16q16 0 39.5 6t45.5 22.5t38.5 45t19.5 73.5zM230 572q-4 -2 -7 -3t-7 -1q-17 0 -28.5 16t-11.5 33q0 22 17 31l132 64q4 1 7 1.5t6 0.5q17 0 28.5 -16t11.5 -33q0 -9 -4 -17t-14 -13z" />
    <glyph glyph-name="thorn" unicode="&#xfe;" horiz-adv-x="520" 
d="M113 752q29 0 48.5 -11t19.5 -29v-307q16 29 49 52.5t78 23.5q37 0 70 -16t57 -44t38 -64.5t14 -78.5v-82q0 -40 -14.5 -77t-38.5 -65.5t-55.5 -45.5t-66.5 -17q-45 0 -81 24t-50 55v-250q0 -16 -19.5 -28.5t-46.5 -12.5q-28 0 -45.5 12.5t-17.5 28.5v892q0 18 17.5 29
t43.5 11zM358 278q0 17 -7 33t-19.5 29t-29 20.5t-35.5 7.5q-16 0 -31.5 -6t-27.5 -18t-19.5 -28.5t-7.5 -37.5v-100q0 -8 6.5 -20.5t18.5 -24.5t28 -20.5t35 -8.5q18 0 34 8t28 21t19.5 29.5t7.5 33.5v82z" />
    <glyph glyph-name="ydieresis" unicode="&#xff;" horiz-adv-x="476" 
d="M10 403q-4 10 -4 17q0 13 9 24t22 19.5t28 13.5t27 5q13 0 23 -5t14 -17l120 -299l97 299q4 12 13.5 17t20.5 5q12 0 27 -5t28.5 -13.5t23 -20.5t9.5 -25q0 -8 -3 -15l-146 -373q-18 -45 -34.5 -90t-43 -80.5t-68 -58t-108.5 -22.5q-25 0 -42 9.5t-17 45.5q0 22 7.5 38
t25.5 16q16 0 39.5 6t45.5 22.5t38.5 45t19.5 73.5zM174 682q21 0 35.5 -15.5t14.5 -36.5t-14.5 -37t-35.5 -16t-36 16t-15 37t15 36.5t36 15.5zM324 682q20 0 35 -15.5t15 -36.5t-15 -37t-35 -16q-22 0 -37 16t-15 37t15 36.5t37 15.5z" />
    <glyph glyph-name="Amacron" unicode="&#x100;" horiz-adv-x="575" 
d="M91 0q-13 0 -27.5 4t-26.5 11t-20 17t-8 22q0 2 2 10l193 629q7 23 31 33.5t52 10.5q29 0 53 -10.5t31 -33.5l193 -629q2 -8 2 -10q0 -12 -8 -21.5t-20 -17t-26.5 -11.5t-27.5 -4q-17 0 -28.5 6t-15.5 20l-38 133h-229l-38 -133q-4 -14 -15.5 -20t-28.5 -6zM374 261
l-87 307l-87 -307h174zM144 895q0 18 11 30.5t29 12.5h205q16 0 28.5 -12.5t12.5 -30.5q0 -19 -12.5 -30.5t-28.5 -11.5h-205q-18 0 -29 11.5t-11 30.5z" />
    <glyph glyph-name="amacron" unicode="&#x101;" horiz-adv-x="471" 
d="M210 481q58 0 99 -16.5t67 -43.5t37.5 -62t11.5 -73v-245q0 -17 -18 -29t-45 -12q-25 0 -41.5 12t-16.5 29v29q-27 -31 -63.5 -55t-88.5 -24q-27 0 -50.5 8t-41 24.5t-28 41.5t-10.5 59q0 43 17 71.5t47.5 45t73.5 23.5t95 7h41v13q0 16 -4.5 32.5t-15 29.5t-27 21.5
t-41.5 8.5q-29 0 -47 -5t-30 -10.5t-20 -10.5t-17 -5q-22 0 -33 21t-11 43q0 15 15 28.5t38.5 23t51.5 15t55 5.5zM296 204h-15q-25 0 -48.5 -2t-41.5 -8.5t-29 -19t-11 -33.5q0 -28 15 -41t38 -13q15 0 31.5 8t30 21.5t22 31t8.5 35.5v21zM88 652q0 18 11 30.5t29 12.5h205
q16 0 28.5 -12.5t12.5 -30.5q0 -19 -12.5 -30.5t-28.5 -11.5h-205q-18 0 -29 11.5t-11 30.5z" />
    <glyph glyph-name="Abreve" unicode="&#x102;" horiz-adv-x="575" 
d="M91 0q-13 0 -27.5 4t-26.5 11t-20 17t-8 22q0 2 2 10l193 629q7 23 31 33.5t52 10.5q29 0 53 -10.5t31 -33.5l193 -629q2 -8 2 -10q0 -12 -8 -21.5t-20 -17t-26.5 -11.5t-27.5 -4q-17 0 -28.5 6t-15.5 20l-38 133h-229l-38 -133q-4 -14 -15.5 -20t-28.5 -6zM374 261
l-87 307l-87 -307h174zM420 964q0 -27 -11 -51t-30 -42t-43 -29t-49 -11q-26 0 -50 11t-42.5 29t-29.5 42t-11 51h70q0 -33 19.5 -54t43.5 -21q23 0 43 21t20 54h70z" />
    <glyph glyph-name="abreve" unicode="&#x103;" horiz-adv-x="471" 
d="M210 481q58 0 99 -16.5t67 -43.5t37.5 -62t11.5 -73v-245q0 -17 -18 -29t-45 -12q-25 0 -41.5 12t-16.5 29v29q-27 -31 -63.5 -55t-88.5 -24q-27 0 -50.5 8t-41 24.5t-28 41.5t-10.5 59q0 43 17 71.5t47.5 45t73.5 23.5t95 7h41v13q0 16 -4.5 32.5t-15 29.5t-27 21.5
t-41.5 8.5q-29 0 -47 -5t-30 -10.5t-20 -10.5t-17 -5q-22 0 -33 21t-11 43q0 15 15 28.5t38.5 23t51.5 15t55 5.5zM296 204h-15q-25 0 -48.5 -2t-41.5 -8.5t-29 -19t-11 -33.5q0 -28 15 -41t38 -13q15 0 31.5 8t30 21.5t22 31t8.5 35.5v21zM361 721q0 -27 -11 -51t-30 -42
t-43 -29t-49 -11q-26 0 -50 11t-42.5 29t-29.5 42t-11 51h70q0 -33 19.5 -54t43.5 -21q23 0 43 21t20 54h70z" />
    <glyph glyph-name="Aogonek" unicode="&#x104;" horiz-adv-x="575" 
d="M502 -158q13 0 18 -9.5t5 -19.5q0 -11 -5.5 -18.5t-23.5 -7.5q-58 0 -87.5 25t-29.5 65q0 35 18.5 70.5t52.5 61.5q-7 5 -10 17l-38 133h-229l-38 -133q-4 -14 -15.5 -20t-28.5 -6q-13 0 -27.5 4t-26.5 11t-20 17t-8 22q0 2 2 10l193 629q7 23 31 33.5t52 10.5
q29 0 53 -10.5t31 -33.5l193 -629q2 -8 2 -10q0 -16 -14 -28t-32 -19q-33 -21 -55.5 -53.5t-22.5 -64.5q0 -22 14 -34.5t46 -12.5zM374 261l-87 307l-87 -307h174z" />
    <glyph glyph-name="aogonek" unicode="&#x105;" horiz-adv-x="471" 
d="M380 -158q13 0 18 -9.5t5 -19.5q0 -11 -5.5 -18.5t-23.5 -7.5q-58 0 -87.5 25t-29.5 65q0 35 18.5 70t50.5 61q-22 13 -22 33v29q-27 -31 -63.5 -55t-88.5 -24q-27 0 -50.5 8t-41 24.5t-28 41.5t-10.5 59q0 43 17 71.5t47.5 45t73.5 23.5t95 7h41v13q0 16 -4.5 32.5
t-15 29.5t-27 21.5t-41.5 8.5q-29 0 -47 -5t-30 -10.5t-20 -10.5t-17 -5q-22 0 -33 21t-11 43q0 15 15 28.5t38.5 23t51.5 15t55 5.5q58 0 99 -16.5t67 -43.5t37.5 -62t11.5 -73v-245q0 -11 -7.5 -20t-19.5 -14q-33 -21 -55.5 -53.5t-22.5 -64.5q0 -22 14 -34.5t46 -12.5z
M296 204h-15q-25 0 -48.5 -2t-41.5 -8.5t-29 -19t-11 -33.5q0 -28 15 -41t38 -13q15 0 31.5 8t30 21.5t22 31t8.5 35.5v21z" />
    <glyph glyph-name="Cacute" unicode="&#x106;" horiz-adv-x="550" 
d="M259 815q-4 -2 -7 -3t-7 -1q-17 0 -28.5 16t-11.5 33q0 22 17 31l132 64q4 1 7 1.5t6 0.5q17 0 28.5 -16t11.5 -33q0 -9 -4 -17t-14 -13zM392 518q-1 12 -4 28.5t-13.5 32.5t-30.5 27t-56 11q-51 0 -78 -28t-27 -87v-279q0 -59 27.5 -87t79.5 -28q34 0 54 11t30 27
t13.5 34.5t4.5 34.5q2 23 20 32t44 9q34 0 50 -13t16 -51q0 -45 -17.5 -82t-49.5 -62.5t-76 -39.5t-96 -14q-47 0 -89 12.5t-73.5 39.5t-49.5 70.5t-18 106.5v279q0 63 18.5 106.5t50 70.5t73.5 39.5t89 12.5q52 0 96 -13.5t75.5 -38t49 -60t17.5 -78.5q0 -39 -16 -51.5
t-49 -12.5q-28 0 -46 9t-19 32z" />
    <glyph glyph-name="cacute" unicode="&#x107;" horiz-adv-x="434" 
d="M196 572q-4 -2 -7 -3t-7 -1q-17 0 -28.5 16t-11.5 33q0 22 17 31l132 64q4 1 7 1.5t6 0.5q17 0 28.5 -16t11.5 -33q0 -9 -4 -17t-14 -13zM251 -9q-57 0 -98 15.5t-67.5 43t-39 65t-12.5 81.5v80q0 43 12.5 80.5t39 65t67 43.5t97.5 16q35 0 64.5 -6.5t50.5 -17.5t33 -25
t12 -29q0 -9 -3.5 -20t-10.5 -20.5t-16 -16t-21 -6.5q-8 0 -16.5 4.5t-19.5 9.5t-26 9.5t-37 4.5q-51 0 -74 -24t-23 -68v-80q0 -44 23 -68t75 -24q22 0 37 4.5t26 10.5t19.5 10.5t17.5 4.5q13 0 23.5 -6t17.5 -15t10.5 -20t3.5 -20q0 -15 -12.5 -29.5t-34.5 -26.5
t-52.5 -19t-65.5 -7z" />
    <glyph glyph-name="Ccircumflex" unicode="&#x108;" horiz-adv-x="550" 
d="M183 822q-6 -3 -11 -3q-12 0 -20 12t-8 28q0 11 5 21t17 16l104 56q8 5 17 5q7 0 17 -5l104 -55q11 -7 16 -17.5t5 -21.5q0 -15 -8 -27t-20 -12q-6 0 -10 3l-104 56zM392 518q-1 12 -4 28.5t-13.5 32.5t-30.5 27t-56 11q-51 0 -78 -28t-27 -87v-279q0 -59 27.5 -87
t79.5 -28q34 0 54 11t30 27t13.5 34.5t4.5 34.5q2 23 20 32t44 9q34 0 50 -13t16 -51q0 -45 -17.5 -82t-49.5 -62.5t-76 -39.5t-96 -14q-47 0 -89 12.5t-73.5 39.5t-49.5 70.5t-18 106.5v279q0 63 18.5 106.5t50 70.5t73.5 39.5t89 12.5q52 0 96 -13.5t75.5 -38t49 -60
t17.5 -78.5q0 -39 -16 -51.5t-49 -12.5q-28 0 -46 9t-19 32z" />
    <glyph glyph-name="ccircumflex" unicode="&#x109;" horiz-adv-x="434" 
d="M132 579q-6 -3 -11 -3q-12 0 -20 12t-8 28q0 11 5 21t17 16l104 56q8 5 17 5q7 0 17 -5l104 -55q11 -7 16 -17.5t5 -21.5q0 -15 -8 -27t-20 -12q-6 0 -10 3l-104 56zM251 -9q-57 0 -98 15.5t-67.5 43t-39 65t-12.5 81.5v80q0 43 12.5 80.5t39 65t67 43.5t97.5 16
q35 0 64.5 -6.5t50.5 -17.5t33 -25t12 -29q0 -9 -3.5 -20t-10.5 -20.5t-16 -16t-21 -6.5q-8 0 -16.5 4.5t-19.5 9.5t-26 9.5t-37 4.5q-51 0 -74 -24t-23 -68v-80q0 -44 23 -68t75 -24q22 0 37 4.5t26 10.5t19.5 10.5t17.5 4.5q13 0 23.5 -6t17.5 -15t10.5 -20t3.5 -20
q0 -15 -12.5 -29.5t-34.5 -26.5t-52.5 -19t-65.5 -7z" />
    <glyph glyph-name="Cdotaccent" unicode="&#x10a;" horiz-adv-x="550" 
d="M392 518q-1 12 -4 28.5t-13.5 32.5t-30.5 27t-56 11q-51 0 -78 -28t-27 -87v-279q0 -59 27.5 -87t79.5 -28q34 0 54 11t30 27t13.5 34.5t4.5 34.5q2 23 20 32t44 9q34 0 50 -13t16 -51q0 -45 -17.5 -82t-49.5 -62.5t-76 -39.5t-96 -14q-47 0 -89 12.5t-73.5 39.5
t-49.5 70.5t-18 106.5v279q0 63 18.5 106.5t50 70.5t73.5 39.5t89 12.5q52 0 96 -13.5t75.5 -38t49 -60t17.5 -78.5q0 -39 -16 -51.5t-49 -12.5q-28 0 -46 9t-19 32zM289 925q21 0 35.5 -15.5t14.5 -36.5t-14.5 -37t-35.5 -16t-36 16t-15 37t15 36.5t36 15.5z" />
    <glyph glyph-name="cdotaccent" unicode="&#x10b;" horiz-adv-x="434" 
d="M251 -9q-57 0 -98 15.5t-67.5 43t-39 65t-12.5 81.5v80q0 43 12.5 80.5t39 65t67 43.5t97.5 16q35 0 64.5 -6.5t50.5 -17.5t33 -25t12 -29q0 -9 -3.5 -20t-10.5 -20.5t-16 -16t-21 -6.5q-8 0 -16.5 4.5t-19.5 9.5t-26 9.5t-37 4.5q-51 0 -74 -24t-23 -68v-80
q0 -44 23 -68t75 -24q22 0 37 4.5t26 10.5t19.5 10.5t17.5 4.5q13 0 23.5 -6t17.5 -15t10.5 -20t3.5 -20q0 -15 -12.5 -29.5t-34.5 -26.5t-52.5 -19t-65.5 -7zM233 682q21 0 35.5 -15.5t14.5 -36.5t-14.5 -37t-35.5 -16t-36 16t-15 37t15 36.5t36 15.5z" />
    <glyph glyph-name="Ccaron" unicode="&#x10c;" horiz-adv-x="550" 
d="M286 905l102 66q7 4 12 4q13 0 20.5 -12.5t7.5 -26.5q0 -25 -21 -38l-103 -66q-11 -6 -18 -6q-9 0 -18 6l-103 66q-22 13 -22 38q0 14 8 26.5t20 12.5q7 0 12 -4zM392 518q-1 12 -4 28.5t-13.5 32.5t-30.5 27t-56 11q-51 0 -78 -28t-27 -87v-279q0 -59 27.5 -87t79.5 -28
q34 0 54 11t30 27t13.5 34.5t4.5 34.5q2 23 20 32t44 9q34 0 50 -13t16 -51q0 -45 -17.5 -82t-49.5 -62.5t-76 -39.5t-96 -14q-47 0 -89 12.5t-73.5 39.5t-49.5 70.5t-18 106.5v279q0 63 18.5 106.5t50 70.5t73.5 39.5t89 12.5q52 0 96 -13.5t75.5 -38t49 -60t17.5 -78.5
q0 -39 -16 -51.5t-49 -12.5q-28 0 -46 9t-19 32z" />
    <glyph glyph-name="ccaron" unicode="&#x10d;" horiz-adv-x="434" 
d="M231 662l102 66q7 4 12 4q13 0 20.5 -12.5t7.5 -26.5q0 -25 -21 -38l-103 -66q-11 -6 -18 -6q-9 0 -18 6l-103 66q-22 13 -22 38q0 14 8 26.5t20 12.5q7 0 12 -4zM251 -9q-57 0 -98 15.5t-67.5 43t-39 65t-12.5 81.5v80q0 43 12.5 80.5t39 65t67 43.5t97.5 16
q35 0 64.5 -6.5t50.5 -17.5t33 -25t12 -29q0 -9 -3.5 -20t-10.5 -20.5t-16 -16t-21 -6.5q-8 0 -16.5 4.5t-19.5 9.5t-26 9.5t-37 4.5q-51 0 -74 -24t-23 -68v-80q0 -44 23 -68t75 -24q22 0 37 4.5t26 10.5t19.5 10.5t17.5 4.5q13 0 23.5 -6t17.5 -15t10.5 -20t3.5 -20
q0 -15 -12.5 -29.5t-34.5 -26.5t-52.5 -19t-65.5 -7z" />
    <glyph glyph-name="Dcaron" unicode="&#x10e;" horiz-adv-x="580" 
d="M275 905l102 66q7 4 12 4q13 0 20.5 -12.5t7.5 -26.5q0 -25 -21 -38l-103 -66q-11 -6 -18 -6q-9 0 -18 6l-103 66q-22 13 -22 38q0 14 8 26.5t20 12.5q7 0 12 -4zM294 731q49 0 92 -12.5t75 -39.5t50 -70.5t18 -106.5v-273q0 -63 -18 -106.5t-50 -70.5t-75 -39.5
t-92 -12.5h-177q-26 0 -41.5 12t-15.5 28v651q0 16 15.5 28t41.5 12h177zM190 617v-503h104q50 0 77.5 28t27.5 87v273q0 59 -27.5 87t-77.5 28h-104z" />
    <glyph glyph-name="dcaron" unicode="&#x10f;" horiz-adv-x="520" 
d="M586 741q28 0 48 -20t20 -47q0 -5 -1.5 -12.5t-7.5 -23t-17 -42t-29 -69.5q-5 -9 -12 -12.5t-15 -3.5q-14 0 -28.5 8.5t-14.5 25.5q0 7 4 14l23 53q-17 9 -27 25t-10 36q0 28 19.5 48t47.5 20zM405 752q28 0 46 -11t18 -29v-671q0 -15 -18 -28t-46 -13q-24 0 -41 13
t-17 28v29q-15 -31 -53 -55t-86 -24q-35 0 -66.5 17t-55.5 45.5t-38.5 65.5t-14.5 77v82q0 42 14 78.5t38 64.5t56.5 44t69.5 16q47 0 79.5 -23.5t49.5 -52.5v307q0 18 19 29t46 11zM162 196q0 -17 7 -33.5t19 -29.5t27.5 -21t33.5 -8q19 0 35.5 8.5t29 20.5t19.5 24.5
t7 20.5v100q0 21 -8 37.5t-21 28.5t-29 18t-32 6q-18 0 -34 -7.5t-28 -20.5t-19 -29t-7 -33v-82z" />
    <glyph glyph-name="Dcroat" unicode="&#x110;" horiz-adv-x="587" 
d="M301 731q49 0 92 -12.5t75 -39.5t50 -70.5t18 -106.5v-273q0 -63 -18 -106.5t-50 -70.5t-75 -39.5t-92 -12.5h-177q-26 0 -41.5 12t-15.5 28v296h-41q-16 0 -24.5 14t-8.5 32t8.5 32.5t24.5 14.5h41v262q0 16 15.5 28t41.5 12h177zM197 617v-188h77q17 0 25.5 -14.5
t8.5 -32.5t-8.5 -32t-25.5 -14h-77v-222h104q50 0 77.5 28t27.5 87v273q0 59 -27.5 87t-77.5 28h-104z" />
    <glyph glyph-name="dcroat" unicode="&#x111;" horiz-adv-x="520" 
d="M405 752q28 0 46 -11t18 -29v-65h29q17 0 25.5 -15t8.5 -32q0 -19 -8.5 -33t-25.5 -14h-29v-512q0 -15 -18 -28t-46 -13q-24 0 -41 13t-17 28v29q-15 -31 -53 -55t-86 -24q-35 0 -66.5 17t-55.5 45.5t-38.5 65.5t-14.5 77v82q0 42 14 78.5t38 64.5t56.5 44t69.5 16
q47 0 79.5 -23.5t49.5 -52.5v148h-78q-17 0 -25.5 14.5t-8.5 32.5q0 17 8.5 32t25.5 15h78v65q0 18 19 29t46 11zM162 196q0 -17 7 -33.5t19 -29.5t27.5 -21t33.5 -8q19 0 35.5 8.5t29 20.5t19.5 24.5t7 20.5v100q0 21 -8 37.5t-21 28.5t-29 18t-32 6q-18 0 -34 -7.5
t-28 -20.5t-19 -29t-7 -33v-82z" />
    <glyph glyph-name="Emacron" unicode="&#x112;" horiz-adv-x="530" 
d="M190 417h152q20 0 30.5 -16t10.5 -36q0 -17 -10 -33.5t-31 -16.5h-152v-201h283q20 0 30.5 -17.5t10.5 -40.5q0 -20 -10 -38t-31 -18h-356q-22 0 -39.5 10.5t-17.5 30.5v649q0 20 17.5 30.5t39.5 10.5h356q21 0 31 -18t10 -38q0 -23 -10.5 -40.5t-30.5 -17.5h-283v-200z
M147 895q0 18 11 30.5t29 12.5h205q16 0 28.5 -12.5t12.5 -30.5q0 -19 -12.5 -30.5t-28.5 -11.5h-205q-18 0 -29 11.5t-11 30.5z" />
    <glyph glyph-name="emacron" unicode="&#x113;" horiz-adv-x="484" 
d="M251 481q41 0 78.5 -14t66 -38.5t45 -59t16.5 -76.5q0 -32 -8 -50t-21.5 -26.5t-30 -10.5t-33.5 -2h-203v-15q0 -44 32 -70t85 -26q25 0 43 6t32 13t25.5 13t22.5 6t20 -6t15.5 -15t10 -19t3.5 -17q0 -13 -12.5 -27.5t-35.5 -27t-55.5 -20.5t-72.5 -8q-53 0 -97.5 14.5
t-76.5 41.5t-50 65t-18 84v85q0 40 17 76.5t46.5 64t69.5 43.5t86 16zM307 280q16 0 22.5 5t6.5 22q0 35 -26 57t-62 22q-34 0 -60.5 -21t-26.5 -57v-28h146zM107 652q0 18 11 30.5t29 12.5h205q16 0 28.5 -12.5t12.5 -30.5q0 -19 -12.5 -30.5t-28.5 -11.5h-205
q-18 0 -29 11.5t-11 30.5z" />
    <glyph glyph-name="Ebreve" unicode="&#x114;" horiz-adv-x="530" 
d="M190 417h152q20 0 30.5 -16t10.5 -36q0 -17 -10 -33.5t-31 -16.5h-152v-201h283q20 0 30.5 -17.5t10.5 -40.5q0 -20 -10 -38t-31 -18h-356q-22 0 -39.5 10.5t-17.5 30.5v649q0 20 17.5 30.5t39.5 10.5h356q21 0 31 -18t10 -38q0 -23 -10.5 -40.5t-30.5 -17.5h-283v-200z
M419 964q0 -27 -11 -51t-30 -42t-43 -29t-49 -11q-26 0 -50 11t-42.5 29t-29.5 42t-11 51h70q0 -33 19.5 -54t43.5 -21q23 0 43 21t20 54h70z" />
    <glyph glyph-name="ebreve" unicode="&#x115;" horiz-adv-x="484" 
d="M251 481q41 0 78.5 -14t66 -38.5t45 -59t16.5 -76.5q0 -32 -8 -50t-21.5 -26.5t-30 -10.5t-33.5 -2h-203v-15q0 -44 32 -70t85 -26q25 0 43 6t32 13t25.5 13t22.5 6t20 -6t15.5 -15t10 -19t3.5 -17q0 -13 -12.5 -27.5t-35.5 -27t-55.5 -20.5t-72.5 -8q-53 0 -97.5 14.5
t-76.5 41.5t-50 65t-18 84v85q0 40 17 76.5t46.5 64t69.5 43.5t86 16zM307 280q16 0 22.5 5t6.5 22q0 35 -26 57t-62 22q-34 0 -60.5 -21t-26.5 -57v-28h146zM382 721q0 -27 -11 -51t-30 -42t-43 -29t-49 -11q-26 0 -50 11t-42.5 29t-29.5 42t-11 51h70q0 -33 19.5 -54
t43.5 -21q23 0 43 21t20 54h70z" />
    <glyph glyph-name="Edotaccent" unicode="&#x116;" horiz-adv-x="530" 
d="M190 417h152q20 0 30.5 -16t10.5 -36q0 -17 -10 -33.5t-31 -16.5h-152v-201h283q20 0 30.5 -17.5t10.5 -40.5q0 -20 -10 -38t-31 -18h-356q-22 0 -39.5 10.5t-17.5 30.5v649q0 20 17.5 30.5t39.5 10.5h356q21 0 31 -18t10 -38q0 -23 -10.5 -40.5t-30.5 -17.5h-283v-200z
M298 925q21 0 35.5 -15.5t14.5 -36.5t-14.5 -37t-35.5 -16t-36 16t-15 37t15 36.5t36 15.5z" />
    <glyph glyph-name="edotaccent" unicode="&#x117;" horiz-adv-x="484" 
d="M251 481q41 0 78.5 -14t66 -38.5t45 -59t16.5 -76.5q0 -32 -8 -50t-21.5 -26.5t-30 -10.5t-33.5 -2h-203v-15q0 -44 32 -70t85 -26q25 0 43 6t32 13t25.5 13t22.5 6t20 -6t15.5 -15t10 -19t3.5 -17q0 -13 -12.5 -27.5t-35.5 -27t-55.5 -20.5t-72.5 -8q-53 0 -97.5 14.5
t-76.5 41.5t-50 65t-18 84v85q0 40 17 76.5t46.5 64t69.5 43.5t86 16zM307 280q16 0 22.5 5t6.5 22q0 35 -26 57t-62 22q-34 0 -60.5 -21t-26.5 -57v-28h146zM249 682q21 0 35.5 -15.5t14.5 -36.5t-14.5 -37t-35.5 -16t-36 16t-15 37t15 36.5t36 15.5z" />
    <glyph glyph-name="Eogonek" unicode="&#x118;" horiz-adv-x="530" 
d="M190 417h152q20 0 30.5 -16t10.5 -36q0 -17 -10 -33.5t-31 -16.5h-152v-201h283q20 0 30.5 -17.5t10.5 -40.5q0 -17 -6.5 -32t-20.5 -21q-31 -21 -51 -52.5t-20 -61.5q0 -22 14 -34.5t46 -12.5q13 0 18 -9.5t5 -19.5q0 -11 -5.5 -18.5t-23.5 -7.5q-58 0 -87.5 25
t-29.5 65q0 32 15.5 64.5t44.5 58.5h-296q-22 0 -39.5 10.5t-17.5 30.5v649q0 20 17.5 30.5t39.5 10.5h356q21 0 31 -18t10 -38q0 -23 -10.5 -40.5t-30.5 -17.5h-283v-200z" />
    <glyph glyph-name="eogonek" unicode="&#x119;" horiz-adv-x="484" 
d="M251 481q41 0 78.5 -14t66 -38.5t45 -59t16.5 -76.5q0 -32 -8 -50t-21.5 -26.5t-30 -10.5t-33.5 -2h-203v-15q0 -44 32 -70t85 -26q25 0 43 6t32 13t25.5 13t22.5 6t20 -6t15.5 -15t10 -19t3.5 -17q0 -15 -17 -32t-47 -30q-33 -21 -55.5 -53.5t-22.5 -64.5
q0 -22 14 -34.5t46 -12.5q13 0 18 -9.5t5 -19.5q0 -11 -5.5 -18.5t-23.5 -7.5q-58 0 -87.5 25t-29.5 65q0 29 12 57t34 53q-4 -1 -8 -1h-9q-53 0 -97.5 14.5t-76.5 41.5t-50 65t-18 84v85q0 40 17 76.5t46.5 64t69.5 43.5t86 16zM307 280q16 0 22.5 5t6.5 22q0 35 -26 57
t-62 22q-34 0 -60.5 -21t-26.5 -57v-28h146z" />
    <glyph glyph-name="Ecaron" unicode="&#x11a;" horiz-adv-x="530" 
d="M286 905l102 66q7 4 12 4q13 0 20.5 -12.5t7.5 -26.5q0 -25 -21 -38l-103 -66q-11 -6 -18 -6q-9 0 -18 6l-103 66q-22 13 -22 38q0 14 8 26.5t20 12.5q7 0 12 -4zM190 417h152q20 0 30.5 -16t10.5 -36q0 -17 -10 -33.5t-31 -16.5h-152v-201h283q20 0 30.5 -17.5
t10.5 -40.5q0 -20 -10 -38t-31 -18h-356q-22 0 -39.5 10.5t-17.5 30.5v649q0 20 17.5 30.5t39.5 10.5h356q21 0 31 -18t10 -38q0 -23 -10.5 -40.5t-30.5 -17.5h-283v-200z" />
    <glyph glyph-name="ecaron" unicode="&#x11b;" horiz-adv-x="484" 
d="M251 662l102 66q7 4 12 4q13 0 20.5 -12.5t7.5 -26.5q0 -25 -21 -38l-103 -66q-11 -6 -18 -6q-9 0 -18 6l-103 66q-22 13 -22 38q0 14 8 26.5t20 12.5q7 0 12 -4zM251 481q41 0 78.5 -14t66 -38.5t45 -59t16.5 -76.5q0 -32 -8 -50t-21.5 -26.5t-30 -10.5t-33.5 -2h-203
v-15q0 -44 32 -70t85 -26q25 0 43 6t32 13t25.5 13t22.5 6t20 -6t15.5 -15t10 -19t3.5 -17q0 -13 -12.5 -27.5t-35.5 -27t-55.5 -20.5t-72.5 -8q-53 0 -97.5 14.5t-76.5 41.5t-50 65t-18 84v85q0 40 17 76.5t46.5 64t69.5 43.5t86 16zM307 280q16 0 22.5 5t6.5 22
q0 35 -26 57t-62 22q-34 0 -60.5 -21t-26.5 -57v-28h146z" />
    <glyph glyph-name="Gcircumflex" unicode="&#x11c;" horiz-adv-x="564" 
d="M170 822q-6 -3 -11 -3q-12 0 -20 12t-8 28q0 11 5 21t17 16l104 56q8 5 17 5q7 0 17 -5l104 -55q11 -7 16 -17.5t5 -21.5q0 -15 -8 -27t-20 -12q-6 0 -10 3l-104 56zM391 518q-1 18 -5.5 35.5t-16 31.5t-31 23t-51.5 9q-51 0 -78 -28t-27 -87v-279q0 -59 27 -87t77 -28
q49 0 77 28t28 87v59h-81q-20 0 -30 15.5t-10 35.5q0 19 10 35t30 16h170q20 0 30.5 -12.5t10.5 -29.5v-119q0 -63 -18 -106.5t-50 -70.5t-75 -39.5t-92 -12.5q-50 0 -92.5 12.5t-74 39.5t-49.5 70.5t-18 106.5v279q0 63 18 106.5t49.5 70.5t73 39.5t89.5 12.5
q52 0 95.5 -13t75.5 -38t50 -60.5t18 -80.5q0 -38 -16.5 -50t-48.5 -12q-26 0 -45 9t-20 32z" />
    <glyph glyph-name="gcircumflex" unicode="&#x11d;" horiz-adv-x="470" 
d="M131 579q-6 -3 -11 -3q-12 0 -20 12t-8 28q0 11 5 21t17 16l104 56q8 5 17 5q7 0 17 -5l104 -55q11 -7 16 -17.5t5 -21.5q0 -15 -8 -27t-20 -12q-6 0 -10 3l-104 56zM230 128q-37 0 -65 9q-12 -10 -12 -20q0 -16 22.5 -23t55.5 -11.5t72.5 -10.5t72.5 -20.5t55.5 -41.5
t22.5 -74q0 -42 -18.5 -71.5t-48.5 -48.5t-69.5 -28t-81.5 -9q-44 0 -84 9.5t-70.5 27.5t-48.5 44t-18 60q0 38 21 64t52 42q-19 9 -30.5 24t-11.5 40q0 28 14 45.5t37 32.5q-29 23 -45.5 55.5t-16.5 71.5v21q0 36 14 66.5t39.5 52.5t61.5 34t80 12q33 0 62 -7.5t52 -21.5
q17 40 32 54t29 14q25 0 38 -14t13 -26q0 -9 -4.5 -16t-11.5 -12q-10 -7 -23 -15.5t-24 -22.5q35 -41 35 -98v-21q0 -36 -14.5 -66.5t-41 -53t-63 -35t-79.5 -12.5zM303 316q0 36 -18.5 61.5t-53.5 25.5t-53 -25.5t-18 -61.5v-20q0 -38 18.5 -64t53.5 -26q33 0 52 25t19 64
v21zM329 -68q0 21 -12.5 33.5t-32.5 20t-44.5 10.5t-48.5 6q-24 -11 -39 -28.5t-15 -40.5q0 -34 28.5 -52.5t68.5 -18.5t67.5 19t27.5 51z" />
    <glyph glyph-name="Gbreve" unicode="&#x11e;" horiz-adv-x="564" 
d="M391 518q-1 18 -5.5 35.5t-16 31.5t-31 23t-51.5 9q-51 0 -78 -28t-27 -87v-279q0 -59 27 -87t77 -28q49 0 77 28t28 87v59h-81q-20 0 -30 15.5t-10 35.5q0 19 10 35t30 16h170q20 0 30.5 -12.5t10.5 -29.5v-119q0 -63 -18 -106.5t-50 -70.5t-75 -39.5t-92 -12.5
q-50 0 -92.5 12.5t-74 39.5t-49.5 70.5t-18 106.5v279q0 63 18 106.5t49.5 70.5t73 39.5t89.5 12.5q52 0 95.5 -13t75.5 -38t50 -60.5t18 -80.5q0 -38 -16.5 -50t-48.5 -12q-26 0 -45 9t-20 32zM418 964q0 -27 -11 -51t-30 -42t-43 -29t-49 -11q-26 0 -50 11t-42.5 29
t-29.5 42t-11 51h70q0 -33 19.5 -54t43.5 -21q23 0 43 21t20 54h70z" />
    <glyph glyph-name="gbreve" unicode="&#x11f;" horiz-adv-x="470" 
d="M230 128q-37 0 -65 9q-12 -10 -12 -20q0 -16 22.5 -23t55.5 -11.5t72.5 -10.5t72.5 -20.5t55.5 -41.5t22.5 -74q0 -42 -18.5 -71.5t-48.5 -48.5t-69.5 -28t-81.5 -9q-44 0 -84 9.5t-70.5 27.5t-48.5 44t-18 60q0 38 21 64t52 42q-19 9 -30.5 24t-11.5 40q0 28 14 45.5
t37 32.5q-29 23 -45.5 55.5t-16.5 71.5v21q0 36 14 66.5t39.5 52.5t61.5 34t80 12q33 0 62 -7.5t52 -21.5q17 40 32 54t29 14q25 0 38 -14t13 -26q0 -9 -4.5 -16t-11.5 -12q-10 -7 -23 -15.5t-24 -22.5q35 -41 35 -98v-21q0 -36 -14.5 -66.5t-41 -53t-63 -35t-79.5 -12.5z
M303 316q0 36 -18.5 61.5t-53.5 25.5t-53 -25.5t-18 -61.5v-20q0 -38 18.5 -64t53.5 -26q33 0 52 25t19 64v21zM329 -68q0 21 -12.5 33.5t-32.5 20t-44.5 10.5t-48.5 6q-24 -11 -39 -28.5t-15 -40.5q0 -34 28.5 -52.5t68.5 -18.5t67.5 19t27.5 51zM367 721q0 -27 -11 -51
t-30 -42t-43 -29t-49 -11q-26 0 -50 11t-42.5 29t-29.5 42t-11 51h70q0 -33 19.5 -54t43.5 -21q23 0 43 21t20 54h70z" />
    <glyph glyph-name="Gdotaccent" unicode="&#x120;" horiz-adv-x="564" 
d="M391 518q-1 18 -5.5 35.5t-16 31.5t-31 23t-51.5 9q-51 0 -78 -28t-27 -87v-279q0 -59 27 -87t77 -28q49 0 77 28t28 87v59h-81q-20 0 -30 15.5t-10 35.5q0 19 10 35t30 16h170q20 0 30.5 -12.5t10.5 -29.5v-119q0 -63 -18 -106.5t-50 -70.5t-75 -39.5t-92 -12.5
q-50 0 -92.5 12.5t-74 39.5t-49.5 70.5t-18 106.5v279q0 63 18 106.5t49.5 70.5t73 39.5t89.5 12.5q52 0 95.5 -13t75.5 -38t50 -60.5t18 -80.5q0 -38 -16.5 -50t-48.5 -12q-26 0 -45 9t-20 32zM283 925q21 0 35.5 -15.5t14.5 -36.5t-14.5 -37t-35.5 -16t-36 16t-15 37
t15 36.5t36 15.5z" />
    <glyph glyph-name="gdotaccent" unicode="&#x121;" horiz-adv-x="470" 
d="M230 128q-37 0 -65 9q-12 -10 -12 -20q0 -16 22.5 -23t55.5 -11.5t72.5 -10.5t72.5 -20.5t55.5 -41.5t22.5 -74q0 -42 -18.5 -71.5t-48.5 -48.5t-69.5 -28t-81.5 -9q-44 0 -84 9.5t-70.5 27.5t-48.5 44t-18 60q0 38 21 64t52 42q-19 9 -30.5 24t-11.5 40q0 28 14 45.5
t37 32.5q-29 23 -45.5 55.5t-16.5 71.5v21q0 36 14 66.5t39.5 52.5t61.5 34t80 12q33 0 62 -7.5t52 -21.5q17 40 32 54t29 14q25 0 38 -14t13 -26q0 -9 -4.5 -16t-11.5 -12q-10 -7 -23 -15.5t-24 -22.5q35 -41 35 -98v-21q0 -36 -14.5 -66.5t-41 -53t-63 -35t-79.5 -12.5z
M303 316q0 36 -18.5 61.5t-53.5 25.5t-53 -25.5t-18 -61.5v-20q0 -38 18.5 -64t53.5 -26q33 0 52 25t19 64v21zM329 -68q0 21 -12.5 33.5t-32.5 20t-44.5 10.5t-48.5 6q-24 -11 -39 -28.5t-15 -40.5q0 -34 28.5 -52.5t68.5 -18.5t67.5 19t27.5 51zM234 682q21 0 35.5 -15.5
t14.5 -36.5t-14.5 -37t-35.5 -16t-36 16t-15 37t15 36.5t36 15.5z" />
    <glyph glyph-name="Gcommaaccent" unicode="&#x122;" horiz-adv-x="564" 
d="M238 -190q-4 -2 -7 -3t-7 -1q-17 0 -28.5 16t-11.5 33q0 21 17 30l132 64q7 3 13 3q17 0 28.5 -16t11.5 -33q0 -10 -4 -18t-14 -13zM391 518q-1 18 -5.5 35.5t-16 31.5t-31 23t-51.5 9q-51 0 -78 -28t-27 -87v-279q0 -59 27 -87t77 -28q49 0 77 28t28 87v59h-81
q-20 0 -30 15.5t-10 35.5q0 19 10 35t30 16h170q20 0 30.5 -12.5t10.5 -29.5v-119q0 -63 -18 -106.5t-50 -70.5t-75 -39.5t-92 -12.5q-50 0 -92.5 12.5t-74 39.5t-49.5 70.5t-18 106.5v279q0 63 18 106.5t49.5 70.5t73 39.5t89.5 12.5q52 0 95.5 -13t75.5 -38t50 -60.5
t18 -80.5q0 -38 -16.5 -50t-48.5 -12q-26 0 -45 9t-20 32z" />
    <glyph glyph-name="gcommaaccent" unicode="&#x123;" horiz-adv-x="470" 
d="M202 572q-4 -2 -7 -3t-7 -1q-17 0 -28.5 16t-11.5 33q0 22 17 31l132 64q4 1 7 1.5t6 0.5q17 0 28.5 -16t11.5 -33q0 -9 -4 -17t-14 -13zM230 128q-37 0 -65 9q-12 -10 -12 -20q0 -16 22.5 -23t55.5 -11.5t72.5 -10.5t72.5 -20.5t55.5 -41.5t22.5 -74q0 -42 -18.5 -71.5
t-48.5 -48.5t-69.5 -28t-81.5 -9q-44 0 -84 9.5t-70.5 27.5t-48.5 44t-18 60q0 38 21 64t52 42q-19 9 -30.5 24t-11.5 40q0 28 14 45.5t37 32.5q-29 23 -45.5 55.5t-16.5 71.5v21q0 36 14 66.5t39.5 52.5t61.5 34t80 12q33 0 62 -7.5t52 -21.5q17 40 32 54t29 14
q25 0 38 -14t13 -26q0 -9 -4.5 -16t-11.5 -12q-10 -7 -23 -15.5t-24 -22.5q35 -41 35 -98v-21q0 -36 -14.5 -66.5t-41 -53t-63 -35t-79.5 -12.5zM303 316q0 36 -18.5 61.5t-53.5 25.5t-53 -25.5t-18 -61.5v-20q0 -38 18.5 -64t53.5 -26q33 0 52 25t19 64v21zM329 -68
q0 21 -12.5 33.5t-32.5 20t-44.5 10.5t-48.5 6q-24 -11 -39 -28.5t-15 -40.5q0 -34 28.5 -52.5t68.5 -18.5t67.5 19t27.5 51zM238 770q-28 0 -48 20t-20 47q0 5 1.5 12.5t7.5 23t17 42t30 69.5q4 9 11.5 12.5t14.5 3.5q14 0 28.5 -8.5t14.5 -25.5q0 -5 -3 -14l-24 -53
q17 -9 27 -25t10 -36q0 -28 -19.5 -48t-47.5 -20z" />
    <glyph glyph-name="Hcircumflex" unicode="&#x124;" horiz-adv-x="605" 
d="M199 822q-6 -3 -11 -3q-12 0 -20 12t-8 28q0 11 5 21t17 16l104 56q8 5 17 5q7 0 17 -5l104 -55q11 -7 16 -17.5t5 -21.5q0 -15 -8 -27t-20 -12q-6 0 -10 3l-104 56zM415 328h-225v-287q0 -20 -20.5 -30.5t-44.5 -10.5q-25 0 -45 10.5t-20 30.5v650q0 21 20 30.5t45 9.5
q24 0 44.5 -9.5t20.5 -30.5v-261h225v261q0 21 20 30.5t45 9.5q24 0 44.5 -9.5t20.5 -30.5v-650q0 -20 -20.5 -30.5t-44.5 -10.5q-25 0 -45 10.5t-20 30.5v287z" />
    <glyph glyph-name="hcircumflex" unicode="&#x125;" 
d="M9 834q-6 -3 -11 -3q-12 0 -20 12t-8 28q0 11 5 21t17 16l104 56q8 5 17 5q7 0 17 -5l104 -55q11 -7 16 -17.5t5 -21.5q0 -15 -8 -27t-20 -12q-6 0 -10 3l-104 56zM180 41q0 -15 -19.5 -28t-45.5 -13q-29 0 -46.5 13t-17.5 28v671q0 18 17.5 29t46.5 11q26 0 45.5 -11
t19.5 -29v-307q14 29 46 52.5t80 23.5q34 0 65.5 -16t55 -44t37.5 -64.5t14 -78.5v-237q0 -20 -20.5 -30.5t-44.5 -10.5q-23 0 -43.5 10.5t-20.5 30.5v237q0 17 -7 33t-19 29t-27.5 20.5t-33.5 7.5q-31 0 -56.5 -24t-25.5 -66v-237z" />
    <glyph glyph-name="Hbar" unicode="&#x126;" horiz-adv-x="610" 
d="M418 328h-225v-287q0 -20 -20.5 -30.5t-44.5 -10.5q-25 0 -45 10.5t-20 30.5v493h-13q-16 0 -24.5 13t-8.5 29t8.5 29.5t24.5 13.5h13v72q0 21 20 30.5t45 9.5q24 0 44.5 -9.5t20.5 -30.5v-72h225v72q0 21 20 30.5t45 9.5q24 0 44.5 -9.5t20.5 -30.5v-72h11
q16 0 24.5 -13.5t8.5 -29.5q0 -17 -8.5 -29.5t-24.5 -12.5h-11v-493q0 -20 -20.5 -30.5t-44.5 -10.5q-25 0 -45 10.5t-20 30.5v287zM418 430v104h-225v-104h225z" />
    <glyph glyph-name="hbar" unicode="&#x127;" 
d="M-15 597q0 18 11 30.5t29 12.5h26v72q0 18 17.5 29t46.5 11q26 0 45.5 -11t19.5 -29v-72h50q16 0 28.5 -12.5t12.5 -30.5q0 -19 -12.5 -30.5t-28.5 -11.5h-50v-150q14 29 46 52.5t80 23.5q34 0 65.5 -16t55 -44t37.5 -64.5t14 -78.5v-237q0 -20 -20.5 -30.5t-44.5 -10.5
q-23 0 -43.5 10.5t-20.5 30.5v237q0 17 -7 33t-19 29t-27.5 20.5t-33.5 7.5q-31 0 -56.5 -24t-25.5 -66v-237q0 -15 -19.5 -28t-45.5 -13q-29 0 -46.5 13t-17.5 28v514h-26q-18 0 -29 11.5t-11 30.5z" />
    <glyph glyph-name="Itilde" unicode="&#x128;" horiz-adv-x="250" 
d="M60 691q0 21 20 30.5t45 9.5q24 0 44.5 -9.5t20.5 -30.5v-650q0 -20 -20.5 -30.5t-44.5 -10.5q-25 0 -45 10.5t-20 30.5v650zM69 860q-16 0 -27.5 -4t-21 -8.5t-17.5 -8t-16 -3.5q-10 0 -16.5 5t-10 12t-5 14t-1.5 11q0 23 10 36.5t24 20.5t28.5 9t23.5 2q22 0 39 -4.5
t33.5 -10t33 -10t36.5 -4.5q16 0 28 3.5t21 8t16.5 8.5t15.5 4q10 0 16 -5t10 -12t5.5 -14t1.5 -11q0 -23 -10 -36.5t-24 -20.5t-28.5 -9t-22.5 -2q-25 0 -43 4.5t-34 10t-31 10t-34 4.5z" />
    <glyph glyph-name="itilde" unicode="&#x129;" horiz-adv-x="229" 
d="M114 475q27 0 46 -11t19 -29v-394q0 -15 -19 -28t-46 -13q-28 0 -46 13t-18 28v394q0 18 18 29t46 11zM59 617q-16 0 -27.5 -4t-21 -8.5t-17.5 -8t-16 -3.5q-10 0 -16.5 5t-10 12t-5 14t-1.5 11q0 23 10 36.5t24 20.5t28.5 9t23.5 2q22 0 39 -4.5t33.5 -10t33 -10
t36.5 -4.5q16 0 28 3.5t21 8t16.5 8.5t15.5 4q10 0 16 -5t10 -12t5.5 -14t1.5 -11q0 -23 -10 -36.5t-24 -20.5t-28.5 -9t-22.5 -2q-25 0 -43 4.5t-34 10t-31 10t-34 4.5z" />
    <glyph glyph-name="Imacron" unicode="&#x12a;" horiz-adv-x="250" 
d="M60 691q0 21 20 30.5t45 9.5q24 0 44.5 -9.5t20.5 -30.5v-650q0 -20 -20.5 -30.5t-44.5 -10.5q-25 0 -45 10.5t-20 30.5v650zM-19 895q0 18 11 30.5t29 12.5h205q16 0 28.5 -12.5t12.5 -30.5q0 -19 -12.5 -30.5t-28.5 -11.5h-205q-18 0 -29 11.5t-11 30.5z" />
    <glyph glyph-name="imacron" unicode="&#x12b;" horiz-adv-x="229" 
d="M114 475q27 0 46 -11t19 -29v-394q0 -15 -19 -28t-46 -13q-28 0 -46 13t-18 28v394q0 18 18 29t46 11zM-28 652q0 18 11 30.5t29 12.5h205q16 0 28.5 -12.5t12.5 -30.5q0 -19 -12.5 -30.5t-28.5 -11.5h-205q-18 0 -29 11.5t-11 30.5z" />
    <glyph glyph-name="Ibreve" unicode="&#x12c;" horiz-adv-x="250" 
d="M60 691q0 21 20 30.5t45 9.5q24 0 44.5 -9.5t20.5 -30.5v-650q0 -20 -20.5 -30.5t-44.5 -10.5q-25 0 -45 10.5t-20 30.5v650zM258 964q0 -27 -11 -51t-30 -42t-43 -29t-49 -11q-26 0 -50 11t-42.5 29t-29.5 42t-11 51h70q0 -33 19.5 -54t43.5 -21q23 0 43 21t20 54h70z
" />
    <glyph glyph-name="ibreve" unicode="&#x12d;" horiz-adv-x="229" 
d="M114 475q27 0 46 -11t19 -29v-394q0 -15 -19 -28t-46 -13q-28 0 -46 13t-18 28v394q0 18 18 29t46 11zM248 721q0 -27 -11 -51t-30 -42t-43 -29t-49 -11q-26 0 -50 11t-42.5 29t-29.5 42t-11 51h70q0 -33 19.5 -54t43.5 -21q23 0 43 21t20 54h70z" />
    <glyph glyph-name="Iogonek" unicode="&#x12e;" horiz-adv-x="250" 
d="M146 -157q13 0 18 -9.5t5 -19.5q0 -11 -5.5 -18.5t-23.5 -7.5q-58 0 -87.5 25t-29.5 65q0 35 17 68.5t48 59.5q-12 5 -20 13.5t-8 21.5v650q0 21 20 30.5t45 9.5q24 0 44.5 -9.5t20.5 -30.5v-650q0 -13 -8.5 -21.5t-20.5 -13.5q-32 -20 -53.5 -52.5t-21.5 -63.5
q0 -22 14 -34.5t46 -12.5z" />
    <glyph glyph-name="iogonek" unicode="&#x12f;" horiz-adv-x="229" 
d="M133 -158q13 0 18 -9.5t5 -19.5q0 -11 -5.5 -18.5t-23.5 -7.5q-58 0 -87.5 25t-29.5 65q0 35 18 69.5t50 60.5q-28 13 -28 34v394q0 18 18 29t46 11q27 0 46 -11t19 -29v-394q0 -10 -8 -19t-20 -15q-33 -21 -55.5 -53.5t-22.5 -64.5q0 -22 14 -34.5t46 -12.5zM114 707
q29 0 49.5 -18.5t20.5 -44.5q0 -25 -20.5 -44t-49.5 -19q-30 0 -50.5 19t-20.5 44q0 26 20.5 44.5t50.5 18.5z" />
    <glyph glyph-name="Idotaccent" unicode="&#x130;" horiz-adv-x="250" 
d="M60 691q0 21 20 30.5t45 9.5q24 0 44.5 -9.5t20.5 -30.5v-650q0 -20 -20.5 -30.5t-44.5 -10.5q-25 0 -45 10.5t-20 30.5v650zM126 925q21 0 35.5 -15.5t14.5 -36.5t-14.5 -37t-35.5 -16t-36 16t-15 37t15 36.5t36 15.5z" />
    <glyph glyph-name="dotlessi" unicode="&#x131;" horiz-adv-x="229" 
d="M114 475q27 0 46 -11t19 -29v-394q0 -15 -19 -28t-46 -13q-28 0 -46 13t-18 28v394q0 18 18 29t46 11z" />
    <glyph glyph-name="IJ" unicode="&#x132;" horiz-adv-x="781" 
d="M60 691q0 21 20 30.5t45 9.5q24 0 44.5 -9.5t20.5 -30.5v-650q0 -20 -20.5 -30.5t-44.5 -10.5q-25 0 -45 10.5t-20 30.5v650zM492 617q-20 0 -30.5 17.5t-10.5 40.5q0 20 9.5 38t31.5 18h175q22 0 39.5 -10.5t17.5 -30.5v-467q0 -63 -18 -106.5t-49.5 -70.5t-73.5 -39.5
t-89 -12.5q-52 0 -96 13.5t-75.5 39.5t-49.5 62.5t-18 83.5q0 38 16 50.5t49 12.5q26 0 44.5 -8.5t20.5 -32.5q1 -19 5.5 -38t16 -34.5t31.5 -25t50 -9.5q51 0 78.5 28t27.5 87v394h-102z" />
    <glyph glyph-name="ij" unicode="&#x133;" horiz-adv-x="438" 
d="M114 475q27 0 46 -11t19 -29v-394q0 -15 -19 -28t-46 -13q-28 0 -46 13t-18 28v394q0 18 18 29t46 11zM114 707q29 0 49.5 -18.5t20.5 -44.5q0 -25 -20.5 -44t-49.5 -19q-30 0 -50.5 19t-20.5 44q0 26 20.5 44.5t50.5 18.5zM322 707q29 0 49.5 -18.5t20.5 -44.5
q0 -25 -20.5 -44t-49.5 -19q-30 0 -50.5 19t-20.5 44q0 26 20.5 44.5t50.5 18.5zM321 475q28 0 47 -11t19 -29v-467q0 -42 -9.5 -76.5t-28.5 -59.5t-47.5 -39t-65.5 -14q-20 0 -33 4.5t-20.5 12t-10.5 17t-3 19.5q0 26 14.5 41t34.5 15q27 0 33.5 22.5t6.5 57.5v467
q0 18 18 29t45 11z" />
    <glyph glyph-name="Jcircumflex" unicode="&#x134;" horiz-adv-x="539" 
d="M167 822q-6 -3 -11 -3q-12 0 -20 12t-8 28q0 11 5 21t17 16l104 56q8 5 17 5q7 0 17 -5l104 -55q11 -7 16 -17.5t5 -21.5q0 -15 -8 -27t-20 -12q-6 0 -10 3l-104 56zM250 617q-20 0 -30.5 17.5t-10.5 40.5q0 20 9.5 38t31.5 18h175q22 0 39.5 -10.5t17.5 -30.5v-467
q0 -63 -18 -106.5t-49.5 -70.5t-73.5 -39.5t-89 -12.5q-52 0 -96 13.5t-75.5 39.5t-49.5 62.5t-18 83.5q0 38 16 50.5t49 12.5q26 0 44.5 -8.5t20.5 -32.5q1 -19 5.5 -38t16 -34.5t31.5 -25t50 -9.5q51 0 78.5 28t27.5 87v394h-102z" />
    <glyph glyph-name="jcircumflex" unicode="&#x135;" horiz-adv-x="231" 
d="M114 475q28 0 47 -11t19 -29v-467q0 -42 -9.5 -76.5t-28.5 -59.5t-47.5 -39t-65.5 -14q-20 0 -33 4.5t-20.5 12t-10.5 17t-3 19.5q0 26 14.5 41t34.5 15q27 0 33.5 22.5t6.5 57.5v467q0 18 18 29t45 11zM12 579q-6 -3 -11 -3q-12 0 -20 12t-8 28q0 11 5 21t17 16l104 56
q8 5 17 5q7 0 17 -5l104 -55q11 -7 16 -17.5t5 -21.5q0 -15 -8 -27t-20 -12q-6 0 -10 3l-104 56z" />
    <glyph glyph-name="Kcommaaccent" unicode="&#x136;" horiz-adv-x="552" 
d="M233 -190q-4 -2 -7 -3t-7 -1q-17 0 -28.5 16t-11.5 33q0 21 17 30l132 64q7 3 13 3q17 0 28.5 -16t11.5 -33q0 -10 -4 -18t-14 -13zM60 691q0 21 20 30.5t45 9.5q24 0 44.5 -9.5t20.5 -30.5v-273l216 294q14 19 36 19q12 0 25.5 -6t24.5 -15.5t18 -21.5t7 -24
q0 -5 -1.5 -11.5t-6.5 -13.5l-179 -224l218 -332q7 -10 7 -23q0 -12 -7 -23.5t-18 -21t-25 -15t-28 -5.5q-13 0 -25 5.5t-20 19.5l-188 285l-54 -68v-196q0 -20 -20.5 -30.5t-44.5 -10.5q-25 0 -45 10.5t-20 30.5v650z" />
    <glyph glyph-name="kcommaaccent" unicode="&#x137;" horiz-adv-x="492" 
d="M198 -190q-4 -2 -7 -3t-7 -1q-17 0 -28.5 16t-11.5 33q0 21 17 30l132 64q7 3 13 3q17 0 28.5 -16t11.5 -33q0 -10 -4 -18t-14 -13zM328 287l147 -210q7 -10 7 -21t-7 -22.5t-18 -20.5t-23.5 -15t-24.5 -6q-20 0 -32 17l-135 199l-62 -57v-110q0 -15 -19.5 -28t-46.5 -13
q-28 0 -45.5 13t-17.5 28v671q0 18 17.5 29t45.5 11q27 0 46.5 -11t19.5 -29v-419l188 177q12 10 26 10q10 0 21.5 -5.5t20.5 -14.5t15 -20t6 -22q0 -13 -11 -24z" />
    <glyph glyph-name="kgreenlandic" unicode="&#x138;" horiz-adv-x="491" 
d="M327 287l147 -210q7 -10 7 -21t-7 -22.5t-18 -20.5t-23.5 -15t-24.5 -6q-20 0 -32 17l-135 199l-62 -57v-110q0 -15 -19.5 -28t-46.5 -13q-28 0 -45.5 13t-17.5 28v394q0 18 17.5 29t45.5 11q27 0 46.5 -11t19.5 -29v-142l188 177q12 10 26 10q10 0 21.5 -5.5t20.5 -14.5
t15 -20t6 -22q0 -13 -11 -24z" />
    <glyph glyph-name="Lacute" unicode="&#x139;" horiz-adv-x="484" 
d="M210 815q-4 -2 -7 -3t-7 -1q-17 0 -28.5 16t-11.5 33q0 22 17 31l132 64q4 1 7 1.5t6 0.5q17 0 28.5 -16t11.5 -33q0 -9 -4 -17t-14 -13zM117 0q-22 0 -39.5 10.5t-17.5 30.5v650q0 21 20 30.5t45 9.5q24 0 44.5 -9.5t20.5 -30.5v-577h244q20 0 29.5 -17.5t9.5 -39.5
q0 -21 -9.5 -39t-29.5 -18h-317z" />
    <glyph glyph-name="lacute" unicode="&#x13a;" horiz-adv-x="247" 
d="M100 798q-4 -2 -7 -3t-7 -1q-17 0 -28.5 16t-11.5 33q0 22 17 31l132 64q4 1 7 1.5t6 0.5q17 0 28.5 -16t11.5 -33q0 -9 -4 -17t-14 -13zM123 752q26 0 45.5 -11t19.5 -29v-671q0 -15 -19.5 -28t-45.5 -13q-29 0 -46.5 13t-17.5 28v671q0 18 17.5 29t46.5 11z" />
    <glyph glyph-name="Lcommaaccent" unicode="&#x13b;" horiz-adv-x="484" 
d="M211 -190q-4 -2 -7 -3t-7 -1q-17 0 -28.5 16t-11.5 33q0 21 17 30l132 64q7 3 13 3q17 0 28.5 -16t11.5 -33q0 -10 -4 -18t-14 -13zM117 0q-22 0 -39.5 10.5t-17.5 30.5v650q0 21 20 30.5t45 9.5q24 0 44.5 -9.5t20.5 -30.5v-577h244q20 0 29.5 -17.5t9.5 -39.5
q0 -21 -9.5 -39t-29.5 -18h-317z" />
    <glyph glyph-name="lcommaaccent" unicode="&#x13c;" horiz-adv-x="247" 
d="M77 -190q-4 -2 -7 -3t-7 -1q-17 0 -28.5 16t-11.5 33q0 21 17 30l132 64q7 3 13 3q17 0 28.5 -16t11.5 -33q0 -10 -4 -18t-14 -13zM123 752q26 0 45.5 -11t19.5 -29v-671q0 -15 -19.5 -28t-45.5 -13q-29 0 -46.5 13t-17.5 28v671q0 18 17.5 29t46.5 11z" />
    <glyph glyph-name="Lcaron" unicode="&#x13d;" horiz-adv-x="485" 
d="M374 741q28 0 48 -20t20 -47q0 -5 -1.5 -12.5t-7.5 -23t-17 -42t-29 -69.5q-5 -9 -12 -12.5t-15 -3.5q-14 0 -28.5 8.5t-14.5 25.5q0 7 4 14l23 53q-17 9 -27 25t-10 36q0 28 19.5 48t47.5 20zM117 0q-22 0 -39.5 10.5t-17.5 30.5v650q0 21 20 30.5t45 9.5
q24 0 44.5 -9.5t20.5 -30.5v-577h244q20 0 29.5 -17.5t9.5 -39.5q0 -21 -9.5 -39t-29.5 -18h-317z" />
    <glyph glyph-name="lcaron" unicode="&#x13e;" horiz-adv-x="247" 
d="M308 741q28 0 48 -20t20 -47q0 -5 -1.5 -12.5t-7.5 -23t-17 -42t-29 -69.5q-5 -9 -12 -12.5t-15 -3.5q-14 0 -28.5 8.5t-14.5 25.5q0 7 4 14l23 53q-17 9 -27 25t-10 36q0 28 19.5 48t47.5 20zM123 752q26 0 45.5 -11t19.5 -29v-671q0 -15 -19.5 -28t-45.5 -13
q-29 0 -46.5 13t-17.5 28v671q0 18 17.5 29t46.5 11z" />
    <glyph glyph-name="Ldot" unicode="&#x13f;" horiz-adv-x="485" 
d="M117 0q-22 0 -39.5 10.5t-17.5 30.5v650q0 21 20 30.5t45 9.5q24 0 44.5 -9.5t20.5 -30.5v-577h244q20 0 29.5 -17.5t9.5 -39.5q0 -21 -9.5 -39t-29.5 -18h-317zM368 484q30 0 50.5 -18.5t20.5 -44.5t-20.5 -45t-50.5 -19t-51 19t-21 45t21 44.5t51 18.5z" />
    <glyph glyph-name="ldot" unicode="&#x140;" horiz-adv-x="370" 
d="M123 752q26 0 45.5 -11t19.5 -29v-671q0 -15 -19.5 -28t-45.5 -13q-29 0 -46.5 13t-17.5 28v671q0 18 17.5 29t46.5 11zM299 363q30 0 50.5 -18.5t20.5 -44.5t-20.5 -45t-50.5 -19t-51 19t-21 45t21 44.5t51 18.5z" />
    <glyph glyph-name="Lslash" unicode="&#x141;" horiz-adv-x="490" 
d="M123 0q-22 0 -39.5 10.5t-17.5 30.5v222l-16 -8q-6 -3 -12 -3q-18 0 -31.5 19t-13.5 39q0 9 4 17.5t12 12.5l57 28v323q0 21 20 30.5t45 9.5q24 0 44.5 -9.5t20.5 -30.5v-260l60 30q4 2 12 2q9 0 17.5 -5.5t14.5 -14t10 -18.5t4 -19q0 -22 -17 -30l-101 -50v-212h244
q20 0 29.5 -17.5t9.5 -39.5q0 -21 -9.5 -39t-29.5 -18h-317z" />
    <glyph glyph-name="lslash" unicode="&#x142;" horiz-adv-x="319" 
d="M158 752q26 0 45.5 -11t19.5 -29v-276l30 15q6 3 11 3q19 0 32.5 -19.5t13.5 -38.5q0 -22 -17 -30l-70 -35v-290q0 -15 -19.5 -28t-45.5 -13q-29 0 -46.5 13t-17.5 28v227l-27 -13q-6 -3 -12 -3q-18 0 -31.5 19t-13.5 39q0 9 4 17.5t12 12.5l68 33v339q0 18 17.5 29
t46.5 11z" />
    <glyph glyph-name="Nacute" unicode="&#x143;" horiz-adv-x="605" 
d="M244 815q-4 -2 -7 -3t-7 -1q-17 0 -28.5 16t-11.5 33q0 22 17 31l132 64q4 1 7 1.5t6 0.5q17 0 28.5 -16t11.5 -33q0 -9 -4 -17t-14 -13zM480 0q-23 0 -42.5 9t-32.5 32l-215 402v-402q0 -20 -20.5 -30.5t-44.5 -10.5q-25 0 -45 10.5t-20 30.5v649q0 21 20 31t45 10
q18 0 31 -2.5t23.5 -10t20.5 -21t22 -35.5l193 -373v402q0 21 20 30.5t45 9.5q24 0 44.5 -9.5t20.5 -30.5v-650q0 -20 -20.5 -30.5t-44.5 -10.5z" />
    <glyph glyph-name="nacute" unicode="&#x144;" horiz-adv-x="523" 
d="M221 572q-4 -2 -7 -3t-7 -1q-17 0 -28.5 16t-11.5 33q0 22 17 31l132 64q4 1 7 1.5t6 0.5q17 0 28.5 -16t11.5 -33q0 -9 -4 -17t-14 -13zM179 41q0 -15 -19.5 -28t-45.5 -13q-29 0 -46.5 13t-17.5 28v394q0 18 17.5 29t46.5 11q23 0 40 -11t17 -29v-30q14 29 49 52.5
t85 23.5q34 0 65.5 -16t55 -44t37.5 -64.5t14 -78.5v-237q0 -20 -20.5 -30.5t-44.5 -10.5q-23 0 -43.5 10.5t-20.5 30.5v237q0 17 -7 33t-18.5 29t-27.5 20.5t-34 7.5q-31 0 -56.5 -24t-25.5 -66v-237z" />
    <glyph glyph-name="Ncommaaccent" unicode="&#x145;" horiz-adv-x="605" 
d="M255 -190q-4 -2 -7 -3t-7 -1q-17 0 -28.5 16t-11.5 33q0 21 17 30l132 64q7 3 13 3q17 0 28.5 -16t11.5 -33q0 -10 -4 -18t-14 -13zM480 0q-23 0 -42.5 9t-32.5 32l-215 402v-402q0 -20 -20.5 -30.5t-44.5 -10.5q-25 0 -45 10.5t-20 30.5v649q0 21 20 31t45 10
q18 0 31 -2.5t23.5 -10t20.5 -21t22 -35.5l193 -373v402q0 21 20 30.5t45 9.5q24 0 44.5 -9.5t20.5 -30.5v-650q0 -20 -20.5 -30.5t-44.5 -10.5z" />
    <glyph glyph-name="ncommaaccent" unicode="&#x146;" horiz-adv-x="523" 
d="M212 -190q-4 -2 -7 -3t-7 -1q-17 0 -28.5 16t-11.5 33q0 21 17 30l132 64q7 3 13 3q17 0 28.5 -16t11.5 -33q0 -10 -4 -18t-14 -13zM179 41q0 -15 -19.5 -28t-45.5 -13q-29 0 -46.5 13t-17.5 28v394q0 18 17.5 29t46.5 11q23 0 40 -11t17 -29v-30q14 29 49 52.5t85 23.5
q34 0 65.5 -16t55 -44t37.5 -64.5t14 -78.5v-237q0 -20 -20.5 -30.5t-44.5 -10.5q-23 0 -43.5 10.5t-20.5 30.5v237q0 17 -7 33t-18.5 29t-27.5 20.5t-34 7.5q-31 0 -56.5 -24t-25.5 -66v-237z" />
    <glyph glyph-name="Ncaron" unicode="&#x147;" horiz-adv-x="605" 
d="M303 905l102 66q7 4 12 4q13 0 20.5 -12.5t7.5 -26.5q0 -25 -21 -38l-103 -66q-11 -6 -18 -6q-9 0 -18 6l-103 66q-22 13 -22 38q0 14 8 26.5t20 12.5q7 0 12 -4zM480 0q-23 0 -42.5 9t-32.5 32l-215 402v-402q0 -20 -20.5 -30.5t-44.5 -10.5q-25 0 -45 10.5t-20 30.5
v649q0 21 20 31t45 10q18 0 31 -2.5t23.5 -10t20.5 -21t22 -35.5l193 -373v402q0 21 20 30.5t45 9.5q24 0 44.5 -9.5t20.5 -30.5v-650q0 -20 -20.5 -30.5t-44.5 -10.5z" />
    <glyph glyph-name="ncaron" unicode="&#x148;" horiz-adv-x="523" 
d="M258 662l102 66q7 4 12 4q13 0 20.5 -12.5t7.5 -26.5q0 -25 -21 -38l-103 -66q-11 -6 -18 -6q-9 0 -18 6l-103 66q-22 13 -22 38q0 14 8 26.5t20 12.5q7 0 12 -4zM179 41q0 -15 -19.5 -28t-45.5 -13q-29 0 -46.5 13t-17.5 28v394q0 18 17.5 29t46.5 11q23 0 40 -11
t17 -29v-30q14 29 49 52.5t85 23.5q34 0 65.5 -16t55 -44t37.5 -64.5t14 -78.5v-237q0 -20 -20.5 -30.5t-44.5 -10.5q-23 0 -43.5 10.5t-20.5 30.5v237q0 17 -7 33t-18.5 29t-27.5 20.5t-34 7.5q-31 0 -56.5 -24t-25.5 -66v-237z" />
    <glyph glyph-name="Eng" unicode="&#x14a;" horiz-adv-x="606" 
d="M376 -112q26 0 32.5 22.5t6.5 57.5v38q0 10 -2.5 17.5t-7.5 17.5l-215 402v-402q0 -20 -20.5 -30.5t-44.5 -10.5q-25 0 -45 10.5t-20 30.5v649q0 21 20 31t45 10q18 0 31 -2.5t23.5 -10t20.5 -21t22 -35.5l193 -373v402q0 21 20 30.5t45 9.5q24 0 44.5 -9.5t20.5 -30.5
v-723q0 -42 -9.5 -76.5t-28.5 -59.5t-47.5 -39t-65.5 -14q-20 0 -33 4.5t-20.5 12t-10.5 17t-3 19.5q0 26 14.5 41t34.5 15z" />
    <glyph glyph-name="eng" unicode="&#x14b;" 
d="M305 481q34 0 65.5 -16t55 -44t37.5 -64.5t14 -78.5v-310q0 -42 -9.5 -76.5t-28.5 -59.5t-47.5 -39t-65.5 -14q-20 0 -33 4.5t-20.5 12t-10.5 17t-3 19.5q0 26 14.5 41t34.5 15q26 0 33 22.5t7 57.5v310q0 17 -7 33t-18.5 29t-27.5 20.5t-34 7.5q-31 0 -56.5 -24
t-25.5 -66v-237q0 -15 -19.5 -28t-45.5 -13q-29 0 -46.5 13t-17.5 28v394q0 18 17.5 29t46.5 11q23 0 40 -11t17 -29v-30q14 29 49 52.5t85 23.5z" />
    <glyph glyph-name="Omacron" unicode="&#x14c;" horiz-adv-x="572" 
d="M143 895q0 18 11 30.5t29 12.5h205q16 0 28.5 -12.5t12.5 -30.5q0 -19 -12.5 -30.5t-28.5 -11.5h-205q-18 0 -29 11.5t-11 30.5zM286 -6q-50 0 -92.5 12.5t-74 39.5t-49.5 70.5t-18 106.5v279q0 63 18 106.5t49.5 70.5t74 39.5t92.5 12.5q49 0 92 -12.5t75 -39.5
t50 -70.5t18 -106.5v-279q0 -63 -18 -106.5t-50 -70.5t-75 -39.5t-92 -12.5zM391 502q0 60 -28 87.5t-77 27.5q-50 0 -77 -27.5t-27 -87.5v-279q0 -60 27 -87.5t77 -27.5q49 0 77 27.5t28 87.5v279z" />
    <glyph glyph-name="omacron" unicode="&#x14d;" horiz-adv-x="498" 
d="M106 652q0 18 11 30.5t29 12.5h205q16 0 28.5 -12.5t12.5 -30.5q0 -19 -12.5 -30.5t-28.5 -11.5h-205q-18 0 -29 11.5t-11 30.5zM249 481q43 0 82.5 -16t69.5 -44t47.5 -64.5t17.5 -78.5v-82q0 -40 -17.5 -77t-47.5 -65.5t-69.5 -45.5t-82.5 -17q-44 0 -83.5 17t-69 45
t-47 65t-17.5 78v82q0 40 17 77t46.5 65t69 44.5t84.5 16.5zM337 278q0 17 -7 33t-19 29t-28 20.5t-34 7.5t-34 -7.5t-28 -20.5t-19 -29t-7 -33v-82q0 -18 7 -34.5t19 -29t28 -20.5t34 -8t34 8t28 20.5t19 29t7 34.5v82z" />
    <glyph glyph-name="Obreve" unicode="&#x14e;" horiz-adv-x="572" 
d="M286 -6q-50 0 -92.5 12.5t-74 39.5t-49.5 70.5t-18 106.5v279q0 63 18 106.5t49.5 70.5t74 39.5t92.5 12.5q49 0 92 -12.5t75 -39.5t50 -70.5t18 -106.5v-279q0 -63 -18 -106.5t-50 -70.5t-75 -39.5t-92 -12.5zM391 502q0 60 -28 87.5t-77 27.5q-50 0 -77 -27.5
t-27 -87.5v-279q0 -60 27 -87.5t77 -27.5q49 0 77 27.5t28 87.5v279zM418 964q0 -27 -11 -51t-30 -42t-43 -29t-49 -11q-26 0 -50 11t-42.5 29t-29.5 42t-11 51h70q0 -33 19.5 -54t43.5 -21q23 0 43 21t20 54h70z" />
    <glyph glyph-name="obreve" unicode="&#x14f;" horiz-adv-x="498" 
d="M249 481q43 0 82.5 -16t69.5 -44t47.5 -64.5t17.5 -78.5v-82q0 -40 -17.5 -77t-47.5 -65.5t-69.5 -45.5t-82.5 -17q-44 0 -83.5 17t-69 45t-47 65t-17.5 78v82q0 40 17 77t46.5 65t69 44.5t84.5 16.5zM337 278q0 17 -7 33t-19 29t-28 20.5t-34 7.5t-34 -7.5t-28 -20.5
t-19 -29t-7 -33v-82q0 -18 7 -34.5t19 -29t28 -20.5t34 -8t34 8t28 20.5t19 29t7 34.5v82zM383 721q0 -27 -11 -51t-30 -42t-43 -29t-49 -11q-26 0 -50 11t-42.5 29t-29.5 42t-11 51h70q0 -33 19.5 -54t43.5 -21q23 0 43 21t20 54h70z" />
    <glyph glyph-name="Ohungarumlaut" unicode="&#x150;" horiz-adv-x="572" 
d="M222 818q-8 -9 -19 -9q-15 0 -27.5 12t-12.5 26q0 9 7 16l84 88q7 8 19 8q14 0 26 -12.5t12 -25.5q0 -10 -7 -17zM379 818q-8 -9 -19 -9q-15 0 -27.5 12t-12.5 26q0 9 7 16l84 88q8 8 19 8q14 0 26 -12.5t12 -25.5q0 -10 -7 -17zM286 -6q-50 0 -92.5 12.5t-74 39.5
t-49.5 70.5t-18 106.5v279q0 63 18 106.5t49.5 70.5t74 39.5t92.5 12.5q49 0 92 -12.5t75 -39.5t50 -70.5t18 -106.5v-279q0 -63 -18 -106.5t-50 -70.5t-75 -39.5t-92 -12.5zM391 502q0 60 -28 87.5t-77 27.5q-50 0 -77 -27.5t-27 -87.5v-279q0 -60 27 -87.5t77 -27.5
q49 0 77 27.5t28 87.5v279z" />
    <glyph glyph-name="ohungarumlaut" unicode="&#x151;" horiz-adv-x="498" 
d="M185 577q-8 -9 -19 -9q-15 0 -27.5 12t-12.5 26q0 9 7 16l84 88q7 8 19 8q14 0 26 -12.5t12 -25.5q0 -10 -7 -17zM342 577q-8 -9 -19 -9q-15 0 -27.5 12t-12.5 26q0 9 7 16l84 88q8 8 19 8q14 0 26 -12.5t12 -25.5q0 -10 -7 -17zM249 481q43 0 82.5 -16t69.5 -44
t47.5 -64.5t17.5 -78.5v-82q0 -40 -17.5 -77t-47.5 -65.5t-69.5 -45.5t-82.5 -17q-44 0 -83.5 17t-69 45t-47 65t-17.5 78v82q0 40 17 77t46.5 65t69 44.5t84.5 16.5zM337 278q0 17 -7 33t-19 29t-28 20.5t-34 7.5t-34 -7.5t-28 -20.5t-19 -29t-7 -33v-82q0 -18 7 -34.5
t19 -29t28 -20.5t34 -8t34 8t28 20.5t19 29t7 34.5v82z" />
    <glyph glyph-name="OE" unicode="&#x152;" horiz-adv-x="829" 
d="M263 -6q-46 0 -84.5 12.5t-66.5 39.5t-43.5 70.5t-15.5 106.5v279q0 63 15.5 106.5t43.5 70.5t66.5 39.5t84.5 12.5q42 0 83.5 -18t62.5 -56v33q0 20 17.5 30.5t39.5 10.5h307q21 0 30.5 -18t9.5 -38q0 -23 -10 -40.5t-30 -17.5h-251v-200h120q20 0 30 -16t10 -36
q0 -17 -9.5 -33.5t-30.5 -16.5h-120v-201h251q20 0 30 -17.5t10 -40.5q0 -20 -9.5 -38t-30.5 -18h-307q-22 0 -39.5 10.5t-17.5 30.5v27q-21 -38 -62.5 -56t-83.5 -18zM392 502q0 60 -28 87.5t-77 27.5q-50 0 -77 -27.5t-27 -87.5v-279q0 -60 27 -87.5t77 -27.5
q49 0 77 27.5t28 87.5v279z" />
    <glyph glyph-name="oe" unicode="&#x153;" horiz-adv-x="789" 
d="M249 481q48 0 89 -21.5t69 -57.5q28 36 65.5 57.5t82.5 21.5q42 0 79.5 -14t66 -38.5t45 -59t16.5 -75.5q0 -32 -8 -50t-21.5 -27t-30.5 -11t-34 -2h-202v-15q0 -44 32 -70t85 -26q25 0 43 6t32 13t25 13t23 6q11 0 20 -6t15 -15t9.5 -19t3.5 -18q0 -12 -12.5 -26.5
t-35.5 -27t-55.5 -20.5t-72.5 -8q-54 0 -98 20.5t-73 58.5q-29 -36 -69.5 -57.5t-88.5 -21.5q-44 0 -83.5 17t-69 45t-47 65t-17.5 78v82q0 40 17 77t46.5 65t69 44.5t84.5 16.5zM337 278q0 17 -7 33t-19 29t-28 20.5t-34 7.5t-34 -7.5t-28 -20.5t-19 -29t-7 -33v-82
q0 -18 7 -34.5t19 -29t28 -20.5t34 -8t34 8t28 20.5t19 29t7 34.5v82zM612 280q16 0 22.5 5t6.5 22q0 35 -26 57t-62 22q-34 0 -60.5 -21t-26.5 -56v-29h146z" />
    <glyph glyph-name="Racute" unicode="&#x154;" horiz-adv-x="570" 
d="M271 815q-4 -2 -7 -3t-7 -1q-17 0 -28.5 16t-11.5 33q0 22 17 31l132 64q4 1 7 1.5t6 0.5q17 0 28.5 -16t11.5 -33q0 -9 -4 -17t-14 -13zM60 691q0 16 11.5 28t30.5 12h198q49 0 92 -10.5t75.5 -34.5t51 -64t18.5 -100q0 -86 -37.5 -134.5t-93.5 -65.5l131 -243
q3 -4 4 -8.5t1 -7.5q0 -12 -7.5 -24.5t-19 -22t-26 -15.5t-28.5 -6t-25.5 8t-19.5 23l-142 276h-84v-261q0 -20 -20 -30.5t-45 -10.5q-24 0 -44.5 10.5t-20.5 30.5v650zM190 617v-213h110q49 0 78 23.5t29 82.5t-29 83t-78 24h-110z" />
    <glyph glyph-name="racute" unicode="&#x155;" horiz-adv-x="377" 
d="M161 572q-4 -2 -7 -3t-7 -1q-17 0 -28.5 16t-11.5 33q0 22 17 31l132 64q4 1 7 1.5t6 0.5q17 0 28.5 -16t11.5 -33q0 -9 -4 -17t-14 -13zM294 368q-22 0 -42.5 -10.5t-36.5 -29.5t-26 -46.5t-10 -61.5v-179q0 -15 -19.5 -28t-46.5 -13q-28 0 -45.5 13t-17.5 28v394
q0 18 17.5 29t45.5 11q24 0 41 -11t17 -29v-41q7 16 19.5 31.5t28.5 28t35 20t40 7.5h31q18 0 32.5 -16.5t14.5 -39.5t-14.5 -40t-32.5 -17h-31z" />
    <glyph glyph-name="Rcommaaccent" unicode="&#x156;" horiz-adv-x="570" 
d="M235 -190q-4 -2 -7 -3t-7 -1q-17 0 -28.5 16t-11.5 33q0 21 17 30l132 64q7 3 13 3q17 0 28.5 -16t11.5 -33q0 -10 -4 -18t-14 -13zM60 691q0 16 11.5 28t30.5 12h198q49 0 92 -10.5t75.5 -34.5t51 -64t18.5 -100q0 -86 -37.5 -134.5t-93.5 -65.5l131 -243q3 -4 4 -8.5
t1 -7.5q0 -12 -7.5 -24.5t-19 -22t-26 -15.5t-28.5 -6t-25.5 8t-19.5 23l-142 276h-84v-261q0 -20 -20 -30.5t-45 -10.5q-24 0 -44.5 10.5t-20.5 30.5v650zM190 617v-213h110q49 0 78 23.5t29 82.5t-29 83t-78 24h-110z" />
    <glyph glyph-name="rcommaaccent" unicode="&#x157;" horiz-adv-x="377" 
d="M61 -190q-4 -2 -7 -3t-7 -1q-17 0 -28.5 16t-11.5 33q0 21 17 30l132 64q7 3 13 3q17 0 28.5 -16t11.5 -33q0 -10 -4 -18t-14 -13zM294 368q-22 0 -42.5 -10.5t-36.5 -29.5t-26 -46.5t-10 -61.5v-179q0 -15 -19.5 -28t-46.5 -13q-28 0 -45.5 13t-17.5 28v394
q0 18 17.5 29t45.5 11q24 0 41 -11t17 -29v-41q7 16 19.5 31.5t28.5 28t35 20t40 7.5h31q18 0 32.5 -16.5t14.5 -39.5t-14.5 -40t-32.5 -17h-31z" />
    <glyph glyph-name="Rcaron" unicode="&#x158;" horiz-adv-x="570" 
d="M275 905l102 66q7 4 12 4q13 0 20.5 -12.5t7.5 -26.5q0 -25 -21 -38l-103 -66q-11 -6 -18 -6q-9 0 -18 6l-103 66q-22 13 -22 38q0 14 8 26.5t20 12.5q7 0 12 -4zM60 691q0 16 11.5 28t30.5 12h198q49 0 92 -10.5t75.5 -34.5t51 -64t18.5 -100q0 -86 -37.5 -134.5
t-93.5 -65.5l131 -243q3 -4 4 -8.5t1 -7.5q0 -12 -7.5 -24.5t-19 -22t-26 -15.5t-28.5 -6t-25.5 8t-19.5 23l-142 276h-84v-261q0 -20 -20 -30.5t-45 -10.5q-24 0 -44.5 10.5t-20.5 30.5v650zM190 617v-213h110q49 0 78 23.5t29 82.5t-29 83t-78 24h-110z" />
    <glyph glyph-name="rcaron" unicode="&#x159;" horiz-adv-x="377" 
d="M193 662l102 66q7 4 12 4q13 0 20.5 -12.5t7.5 -26.5q0 -25 -21 -38l-103 -66q-11 -6 -18 -6q-9 0 -18 6l-103 66q-22 13 -22 38q0 14 8 26.5t20 12.5q7 0 12 -4zM294 368q-22 0 -42.5 -10.5t-36.5 -29.5t-26 -46.5t-10 -61.5v-179q0 -15 -19.5 -28t-46.5 -13
q-28 0 -45.5 13t-17.5 28v394q0 18 17.5 29t45.5 11q24 0 41 -11t17 -29v-41q7 16 19.5 31.5t28.5 28t35 20t40 7.5h31q18 0 32.5 -16.5t14.5 -39.5t-14.5 -40t-32.5 -17h-31z" />
    <glyph glyph-name="Sacute" unicode="&#x15a;" horiz-adv-x="522" 
d="M230 815q-4 -2 -7 -3t-7 -1q-17 0 -28.5 16t-11.5 33q0 22 17 31l132 64q4 1 7 1.5t6 0.5q17 0 28.5 -16t11.5 -33q0 -9 -4 -17t-14 -13zM251 108q45 0 78.5 21t33.5 66q0 37 -24 60.5t-59.5 42t-77 35.5t-77 42.5t-59.5 63.5t-24 97q0 56 22 94t56.5 61.5t78 34
t86.5 10.5q22 0 54.5 -3t62.5 -12t51.5 -24.5t21.5 -40.5q0 -9 -3 -20.5t-9.5 -22.5t-16.5 -18.5t-23 -7.5q-12 0 -23 6t-26 13t-36.5 13t-52.5 6q-54 0 -83.5 -20.5t-29.5 -56.5q0 -31 24 -50.5t59.5 -35.5t77 -33.5t77 -45t59.5 -69t24 -106.5q0 -54 -18 -94.5
t-49.5 -67.5t-75 -41t-95.5 -14q-49 0 -91.5 11t-73.5 29t-48.5 40t-17.5 44q0 10 4.5 22.5t12.5 23t18 17.5t22 7q15 0 29.5 -12t33 -26.5t44 -26.5t63.5 -12z" />
    <glyph glyph-name="sacute" unicode="&#x15b;" horiz-adv-x="414" 
d="M169 572q-4 -2 -7 -3t-7 -1q-17 0 -28.5 16t-11.5 33q0 22 17 31l132 64q4 1 7 1.5t6 0.5q17 0 28.5 -16t11.5 -33q0 -9 -4 -17t-14 -13zM201 89q44 0 58.5 14t14.5 29q0 22 -17.5 34t-44 20t-57 16.5t-57 23t-44 39.5t-17.5 67q0 27 9 53.5t30 47.5t55.5 34.5t84.5 13.5
q30 0 59 -5t51 -13.5t35.5 -20.5t13.5 -26q0 -7 -3 -17.5t-9 -20.5t-15 -17t-20 -7q-9 0 -19.5 4.5t-24 10t-29.5 10t-37 4.5q-38 0 -54 -15t-16 -30q0 -18 18 -28t44.5 -17.5t57.5 -16t57.5 -24.5t44.5 -43.5t18 -71.5q0 -67 -47.5 -106.5t-136.5 -39.5q-38 0 -71 7
t-57.5 19t-38.5 27.5t-14 32.5q0 8 3 18t9 18.5t14 14.5t17 6q11 0 21.5 -7t25.5 -15.5t35.5 -15.5t52.5 -7z" />
    <glyph glyph-name="Scircumflex" unicode="&#x15c;" horiz-adv-x="522" 
d="M155 822q-6 -3 -11 -3q-12 0 -20 12t-8 28q0 11 5 21t17 16l104 56q8 5 17 5q7 0 17 -5l104 -55q11 -7 16 -17.5t5 -21.5q0 -15 -8 -27t-20 -12q-6 0 -10 3l-104 56zM251 108q45 0 78.5 21t33.5 66q0 37 -24 60.5t-59.5 42t-77 35.5t-77 42.5t-59.5 63.5t-24 97
q0 56 22 94t56.5 61.5t78 34t86.5 10.5q22 0 54.5 -3t62.5 -12t51.5 -24.5t21.5 -40.5q0 -9 -3 -20.5t-9.5 -22.5t-16.5 -18.5t-23 -7.5q-12 0 -23 6t-26 13t-36.5 13t-52.5 6q-54 0 -83.5 -20.5t-29.5 -56.5q0 -31 24 -50.5t59.5 -35.5t77 -33.5t77 -45t59.5 -69t24 -106.5
q0 -54 -18 -94.5t-49.5 -67.5t-75 -41t-95.5 -14q-49 0 -91.5 11t-73.5 29t-48.5 40t-17.5 44q0 10 4.5 22.5t12.5 23t18 17.5t22 7q15 0 29.5 -12t33 -26.5t44 -26.5t63.5 -12z" />
    <glyph glyph-name="scircumflex" unicode="&#x15d;" horiz-adv-x="414" 
d="M101 579q-6 -3 -11 -3q-12 0 -20 12t-8 28q0 11 5 21t17 16l104 56q8 5 17 5q7 0 17 -5l104 -55q11 -7 16 -17.5t5 -21.5q0 -15 -8 -27t-20 -12q-6 0 -10 3l-104 56zM201 89q44 0 58.5 14t14.5 29q0 22 -17.5 34t-44 20t-57 16.5t-57 23t-44 39.5t-17.5 67q0 27 9 53.5
t30 47.5t55.5 34.5t84.5 13.5q30 0 59 -5t51 -13.5t35.5 -20.5t13.5 -26q0 -7 -3 -17.5t-9 -20.5t-15 -17t-20 -7q-9 0 -19.5 4.5t-24 10t-29.5 10t-37 4.5q-38 0 -54 -15t-16 -30q0 -18 18 -28t44.5 -17.5t57.5 -16t57.5 -24.5t44.5 -43.5t18 -71.5q0 -67 -47.5 -106.5
t-136.5 -39.5q-38 0 -71 7t-57.5 19t-38.5 27.5t-14 32.5q0 8 3 18t9 18.5t14 14.5t17 6q11 0 21.5 -7t25.5 -15.5t35.5 -15.5t52.5 -7z" />
    <glyph glyph-name="Scedilla" unicode="&#x15e;" horiz-adv-x="522" 
d="M251 108q45 0 78.5 21t33.5 66q0 37 -24 60.5t-59.5 42t-77 35.5t-77 42.5t-59.5 63.5t-24 97q0 56 22 94t56.5 61.5t78 34t86.5 10.5q22 0 54.5 -3t62.5 -12t51.5 -24.5t21.5 -40.5q0 -9 -3 -20.5t-9.5 -22.5t-16.5 -18.5t-23 -7.5q-12 0 -23 6t-26 13t-36.5 13t-52.5 6
q-54 0 -83.5 -20.5t-29.5 -56.5q0 -31 24 -50.5t59.5 -35.5t77 -33.5t77 -45t59.5 -69t24 -106.5q0 -95 -52.5 -148.5t-136.5 -64.5l-14 -46q51 -2 75 -24.5t24 -52.5q0 -13 -5 -28.5t-17.5 -28.5t-32.5 -22t-50 -9q-13 0 -28 1.5t-27.5 5.5t-21 9t-8.5 13q0 3 1.5 9t4 12.5
t7 11t10.5 4.5q8 0 20.5 -7t37.5 -7q47 0 47 33q0 32 -48 37l-55 5l23 80q-48 1 -88.5 12.5t-70.5 29t-47 39.5t-17 43q0 10 4.5 22.5t12.5 23t18 17.5t22 7q15 0 29.5 -12t33 -26.5t44 -26.5t63.5 -12z" />
    <glyph glyph-name="scedilla" unicode="&#x15f;" horiz-adv-x="414" 
d="M201 89q44 0 58.5 14t14.5 29q0 22 -17.5 34t-44 20t-57 16.5t-57 23t-44 39.5t-17.5 67q0 27 9 53.5t30 47.5t55.5 34.5t84.5 13.5q30 0 59 -5t51 -13.5t35.5 -20.5t13.5 -26q0 -7 -3 -17.5t-9 -20.5t-15 -17t-20 -7q-9 0 -19.5 4.5t-24 10t-29.5 10t-37 4.5
q-38 0 -54 -15t-16 -30q0 -18 18 -28t44.5 -17.5t57.5 -16t57.5 -24.5t44.5 -43.5t18 -71.5q0 -60 -37.5 -98t-108.5 -46l-14 -44q51 -2 75 -24.5t24 -52.5q0 -13 -5 -28.5t-17.5 -28.5t-32.5 -22t-50 -9q-13 0 -28 1.5t-27.5 5.5t-21 9t-8.5 13q0 3 1.5 9t4 12.5t7 11
t10.5 4.5q8 0 20.5 -7t37.5 -7q47 0 47 33q0 32 -48 37l-55 5l23 81q-35 2 -64.5 9.5t-51.5 19.5t-34 26.5t-12 29.5q0 8 3 18t9 18.5t14 14.5t17 6q11 0 21.5 -7t25.5 -15.5t35.5 -15.5t52.5 -7z" />
    <glyph glyph-name="Scaron" unicode="&#x160;" horiz-adv-x="522" 
d="M259 905l102 66q7 4 12 4q13 0 20.5 -12.5t7.5 -26.5q0 -25 -21 -38l-103 -66q-11 -6 -18 -6q-9 0 -18 6l-103 66q-22 13 -22 38q0 14 8 26.5t20 12.5q7 0 12 -4zM251 108q45 0 78.5 21t33.5 66q0 37 -24 60.5t-59.5 42t-77 35.5t-77 42.5t-59.5 63.5t-24 97q0 56 22 94
t56.5 61.5t78 34t86.5 10.5q22 0 54.5 -3t62.5 -12t51.5 -24.5t21.5 -40.5q0 -9 -3 -20.5t-9.5 -22.5t-16.5 -18.5t-23 -7.5q-12 0 -23 6t-26 13t-36.5 13t-52.5 6q-54 0 -83.5 -20.5t-29.5 -56.5q0 -31 24 -50.5t59.5 -35.5t77 -33.5t77 -45t59.5 -69t24 -106.5
q0 -54 -18 -94.5t-49.5 -67.5t-75 -41t-95.5 -14q-49 0 -91.5 11t-73.5 29t-48.5 40t-17.5 44q0 10 4.5 22.5t12.5 23t18 17.5t22 7q15 0 29.5 -12t33 -26.5t44 -26.5t63.5 -12z" />
    <glyph glyph-name="scaron" unicode="&#x161;" horiz-adv-x="414" 
d="M208 662l102 66q7 4 12 4q13 0 20.5 -12.5t7.5 -26.5q0 -25 -21 -38l-103 -66q-11 -6 -18 -6q-9 0 -18 6l-103 66q-22 13 -22 38q0 14 8 26.5t20 12.5q7 0 12 -4zM201 89q44 0 58.5 14t14.5 29q0 22 -17.5 34t-44 20t-57 16.5t-57 23t-44 39.5t-17.5 67q0 27 9 53.5
t30 47.5t55.5 34.5t84.5 13.5q30 0 59 -5t51 -13.5t35.5 -20.5t13.5 -26q0 -7 -3 -17.5t-9 -20.5t-15 -17t-20 -7q-9 0 -19.5 4.5t-24 10t-29.5 10t-37 4.5q-38 0 -54 -15t-16 -30q0 -18 18 -28t44.5 -17.5t57.5 -16t57.5 -24.5t44.5 -43.5t18 -71.5q0 -67 -47.5 -106.5
t-136.5 -39.5q-38 0 -71 7t-57.5 19t-38.5 27.5t-14 32.5q0 8 3 18t9 18.5t14 14.5t17 6q11 0 21.5 -7t25.5 -15.5t35.5 -15.5t52.5 -7z" />
    <glyph glyph-name="Tcommaaccent" unicode="&#x162;" horiz-adv-x="528" 
d="M215 -190q-4 -2 -7 -3t-7 -1q-17 0 -28.5 16t-11.5 33q0 21 17 30l132 64q7 3 13 3q17 0 28.5 -16t11.5 -33q0 -10 -4 -18t-14 -13zM476 731q21 0 31 -18.5t10 -39.5q0 -23 -10.5 -41t-30.5 -18h-146v-573q0 -20 -20.5 -30.5t-44.5 -10.5q-25 0 -45 10.5t-20 30.5v573
h-147q-20 0 -30.5 17.5t-10.5 41.5q0 21 10 39.5t31 18.5h423z" />
    <glyph glyph-name="tcommaaccent" unicode="&#x163;" horiz-adv-x="347" 
d="M121 -190q-4 -2 -7 -3t-7 -1q-17 0 -28.5 16t-11.5 33q0 21 17 30l132 64q7 3 13 3q17 0 28.5 -16t11.5 -33q0 -10 -4 -18t-14 -13zM178 162q0 -29 12 -41t44 -12h39q28 0 41.5 -17t13.5 -37q0 -21 -13.5 -38t-41.5 -17h-39q-91 0 -138 38.5t-47 123.5v485q0 18 20.5 29
t43.5 11q25 0 45 -11t20 -29v-172h118q16 0 24.5 -15t8.5 -32q0 -18 -8.5 -32.5t-24.5 -14.5h-118v-219z" />
    <glyph glyph-name="Tcaron" unicode="&#x164;" horiz-adv-x="528" 
d="M264 905l102 66q7 4 12 4q13 0 20.5 -12.5t7.5 -26.5q0 -25 -21 -38l-103 -66q-11 -6 -18 -6q-9 0 -18 6l-103 66q-22 13 -22 38q0 14 8 26.5t20 12.5q7 0 12 -4zM476 731q21 0 31 -18.5t10 -39.5q0 -23 -10.5 -41t-30.5 -18h-146v-573q0 -20 -20.5 -30.5t-44.5 -10.5
q-25 0 -45 10.5t-20 30.5v573h-147q-20 0 -30.5 17.5t-10.5 41.5q0 21 10 39.5t31 18.5h423z" />
    <glyph glyph-name="tcaron" unicode="&#x165;" horiz-adv-x="347" 
d="M287 762q28 0 48 -20t20 -47q0 -5 -1.5 -12.5t-7.5 -23t-17 -42t-29 -69.5q-5 -9 -12 -12.5t-15 -3.5q-14 0 -28.5 8.5t-14.5 25.5q0 7 4 14l23 53q-17 9 -27 25t-10 36q0 28 19.5 48t47.5 20zM178 162q0 -29 12 -41t44 -12h39q28 0 41.5 -17t13.5 -37q0 -21 -13.5 -38
t-41.5 -17h-39q-91 0 -138 38.5t-47 123.5v485q0 18 20.5 29t43.5 11q25 0 45 -11t20 -29v-172h118q16 0 24.5 -15t8.5 -32q0 -18 -8.5 -32.5t-24.5 -14.5h-118v-219z" />
    <glyph glyph-name="Tbar" unicode="&#x166;" horiz-adv-x="528" 
d="M476 731q21 0 31 -18.5t10 -39.5q0 -23 -10.5 -41t-30.5 -18h-146v-202h84q17 0 25.5 -15t8.5 -32q0 -18 -8.5 -32.5t-25.5 -14.5h-84v-277q0 -20 -20.5 -30.5t-44.5 -10.5q-25 0 -45 10.5t-20 30.5v277h-86q-17 0 -25 14.5t-8 32.5q0 17 8 32t25 15h86v202h-147
q-20 0 -30.5 17.5t-10.5 41.5q0 21 10 39.5t31 18.5h423z" />
    <glyph glyph-name="tbar" unicode="&#x167;" horiz-adv-x="348" 
d="M178 308h118q16 0 24.5 -15t8.5 -32q0 -19 -8.5 -33t-24.5 -14h-118v-52q0 -29 12 -41t44 -12h39q28 0 41.5 -17t13.5 -37q0 -21 -13.5 -38t-41.5 -17h-39q-91 0 -138 38.5t-47 123.5v485q0 18 20.5 29t43.5 11q25 0 45 -11t20 -29v-172h118q16 0 24.5 -15t8.5 -32
q0 -18 -8.5 -32.5t-24.5 -14.5h-118v-73z" />
    <glyph glyph-name="Utilde" unicode="&#x168;" horiz-adv-x="594" 
d="M407 691q0 21 20 30.5t45 9.5q24 0 44.5 -9.5t20.5 -30.5v-468q0 -63 -18.5 -106.5t-51 -70.5t-76.5 -39.5t-94 -12.5q-51 0 -94.5 12.5t-76 39.5t-51 70.5t-18.5 106.5v468q0 21 20 30.5t45 9.5q24 0 44.5 -9.5t20.5 -30.5v-468q0 -59 29 -87t81 -28t81 28t29 87v468z
M236 860q-16 0 -27.5 -4t-21 -8.5t-17.5 -8t-16 -3.5q-10 0 -16.5 5t-10 12t-5 14t-1.5 11q0 23 10 36.5t24 20.5t28.5 9t23.5 2q22 0 39 -4.5t33.5 -10t33 -10t36.5 -4.5q16 0 28 3.5t21 8t16.5 8.5t15.5 4q10 0 16 -5t10 -12t5.5 -14t1.5 -11q0 -23 -10 -36.5t-24 -20.5
t-28.5 -9t-22.5 -2q-25 0 -43 4.5t-34 10t-31 10t-34 4.5z" />
    <glyph glyph-name="utilde" unicode="&#x169;" 
d="M262 -9q-45 0 -84.5 16.5t-69 44.5t-46.5 65t-17 77v240q0 15 19 28t46 13q26 0 45 -13t19 -28v-240q0 -17 7 -33t19 -29t28 -20.5t34 -7.5t34 7.5t28 20t18.5 29t6.5 33.5v241q0 16 19.5 28t45.5 12q29 0 46.5 -12t17.5 -28v-241q0 -41 -17 -77.5t-46.5 -64.5t-69 -44.5
t-83.5 -16.5zM206 617q-16 0 -27.5 -4t-21 -8.5t-17.5 -8t-16 -3.5q-10 0 -16.5 5t-10 12t-5 14t-1.5 11q0 23 10 36.5t24 20.5t28.5 9t23.5 2q22 0 39 -4.5t33.5 -10t33 -10t36.5 -4.5q16 0 28 3.5t21 8t16.5 8.5t15.5 4q10 0 16 -5t10 -12t5.5 -14t1.5 -11
q0 -23 -10 -36.5t-24 -20.5t-28.5 -9t-22.5 -2q-25 0 -43 4.5t-34 10t-31 10t-34 4.5z" />
    <glyph glyph-name="Umacron" unicode="&#x16a;" horiz-adv-x="594" 
d="M407 691q0 21 20 30.5t45 9.5q24 0 44.5 -9.5t20.5 -30.5v-468q0 -63 -18.5 -106.5t-51 -70.5t-76.5 -39.5t-94 -12.5q-51 0 -94.5 12.5t-76 39.5t-51 70.5t-18.5 106.5v468q0 21 20 30.5t45 9.5q24 0 44.5 -9.5t20.5 -30.5v-468q0 -59 29 -87t81 -28t81 28t29 87v468z
M152 895q0 18 11 30.5t29 12.5h205q16 0 28.5 -12.5t12.5 -30.5q0 -19 -12.5 -30.5t-28.5 -11.5h-205q-18 0 -29 11.5t-11 30.5z" />
    <glyph glyph-name="umacron" unicode="&#x16b;" 
d="M262 -9q-45 0 -84.5 16.5t-69 44.5t-46.5 65t-17 77v240q0 15 19 28t46 13q26 0 45 -13t19 -28v-240q0 -17 7 -33t19 -29t28 -20.5t34 -7.5t34 7.5t28 20t18.5 29t6.5 33.5v241q0 16 19.5 28t45.5 12q29 0 46.5 -12t17.5 -28v-241q0 -41 -17 -77.5t-46.5 -64.5t-69 -44.5
t-83.5 -16.5zM121 652q0 18 11 30.5t29 12.5h205q16 0 28.5 -12.5t12.5 -30.5q0 -19 -12.5 -30.5t-28.5 -11.5h-205q-18 0 -29 11.5t-11 30.5z" />
    <glyph glyph-name="Ubreve" unicode="&#x16c;" horiz-adv-x="594" 
d="M407 691q0 21 20 30.5t45 9.5q24 0 44.5 -9.5t20.5 -30.5v-468q0 -63 -18.5 -106.5t-51 -70.5t-76.5 -39.5t-94 -12.5q-51 0 -94.5 12.5t-76 39.5t-51 70.5t-18.5 106.5v468q0 21 20 30.5t45 9.5q24 0 44.5 -9.5t20.5 -30.5v-468q0 -59 29 -87t81 -28t81 28t29 87v468z
M427 964q0 -27 -11 -51t-30 -42t-43 -29t-49 -11q-26 0 -50 11t-42.5 29t-29.5 42t-11 51h70q0 -33 19.5 -54t43.5 -21q23 0 43 21t20 54h70z" />
    <glyph glyph-name="ubreve" unicode="&#x16d;" 
d="M262 -9q-45 0 -84.5 16.5t-69 44.5t-46.5 65t-17 77v240q0 15 19 28t46 13q26 0 45 -13t19 -28v-240q0 -17 7 -33t19 -29t28 -20.5t34 -7.5t34 7.5t28 20t18.5 29t6.5 33.5v241q0 16 19.5 28t45.5 12q29 0 46.5 -12t17.5 -28v-241q0 -41 -17 -77.5t-46.5 -64.5t-69 -44.5
t-83.5 -16.5zM396 721q0 -27 -11 -51t-30 -42t-43 -29t-49 -11q-26 0 -50 11t-42.5 29t-29.5 42t-11 51h70q0 -33 19.5 -54t43.5 -21q23 0 43 21t20 54h70z" />
    <glyph glyph-name="Uring" unicode="&#x16e;" horiz-adv-x="594" 
d="M295 1012q20 0 38 -8t31.5 -22t21.5 -32t8 -37q0 -20 -8 -38t-22 -32t-32 -22.5t-37 -8.5q-20 0 -37.5 8.5t-30.5 22.5t-21 32t-8 38q0 19 7.5 37t20.5 31.5t31 22t38 8.5zM340 912q0 17 -12.5 31t-31.5 14q-20 0 -33.5 -14t-13.5 -31t13.5 -32.5t33.5 -15.5
q19 0 31.5 15t12.5 33zM407 691q0 21 20 30.5t45 9.5q24 0 44.5 -9.5t20.5 -30.5v-468q0 -63 -18.5 -106.5t-51 -70.5t-76.5 -39.5t-94 -12.5q-51 0 -94.5 12.5t-76 39.5t-51 70.5t-18.5 106.5v468q0 21 20 30.5t45 9.5q24 0 44.5 -9.5t20.5 -30.5v-468q0 -59 29 -87t81 -28
t81 28t29 87v468z" />
    <glyph glyph-name="uring" unicode="&#x16f;" 
d="M260 769q20 0 38 -8t31.5 -22t21.5 -32t8 -37q0 -20 -8 -38t-22 -32t-32 -22.5t-37 -8.5q-20 0 -37.5 8.5t-30.5 22.5t-21 32t-8 38q0 19 7.5 37t20.5 31.5t31 22t38 8.5zM305 669q0 17 -12.5 31t-31.5 14q-20 0 -33.5 -14t-13.5 -31t13.5 -32.5t33.5 -15.5q19 0 31.5 15
t12.5 33zM262 -9q-45 0 -84.5 16.5t-69 44.5t-46.5 65t-17 77v240q0 15 19 28t46 13q26 0 45 -13t19 -28v-240q0 -17 7 -33t19 -29t28 -20.5t34 -7.5t34 7.5t28 20t18.5 29t6.5 33.5v241q0 16 19.5 28t45.5 12q29 0 46.5 -12t17.5 -28v-241q0 -41 -17 -77.5t-46.5 -64.5
t-69 -44.5t-83.5 -16.5z" />
    <glyph glyph-name="Uhungarumlaut" unicode="&#x170;" horiz-adv-x="594" 
d="M407 691q0 21 20 30.5t45 9.5q24 0 44.5 -9.5t20.5 -30.5v-468q0 -63 -18.5 -106.5t-51 -70.5t-76.5 -39.5t-94 -12.5q-51 0 -94.5 12.5t-76 39.5t-51 70.5t-18.5 106.5v468q0 21 20 30.5t45 9.5q24 0 44.5 -9.5t20.5 -30.5v-468q0 -59 29 -87t81 -28t81 28t29 87v468z
M231 818q-8 -9 -19 -9q-15 0 -27.5 12t-12.5 26q0 9 7 16l84 88q7 8 19 8q14 0 26 -12.5t12 -25.5q0 -10 -7 -17zM388 818q-8 -9 -19 -9q-15 0 -27.5 12t-12.5 26q0 9 7 16l84 88q8 8 19 8q14 0 26 -12.5t12 -25.5q0 -10 -7 -17z" />
    <glyph glyph-name="uhungarumlaut" unicode="&#x171;" 
d="M262 -9q-45 0 -84.5 16.5t-69 44.5t-46.5 65t-17 77v240q0 15 19 28t46 13q26 0 45 -13t19 -28v-240q0 -17 7 -33t19 -29t28 -20.5t34 -7.5t34 7.5t28 20t18.5 29t6.5 33.5v241q0 16 19.5 28t45.5 12q29 0 46.5 -12t17.5 -28v-241q0 -41 -17 -77.5t-46.5 -64.5t-69 -44.5
t-83.5 -16.5zM196 575q-8 -9 -19 -9q-15 0 -27.5 12t-12.5 26q0 9 7 16l84 88q7 8 19 8q14 0 26 -12.5t12 -25.5q0 -10 -7 -17zM353 575q-8 -9 -19 -9q-15 0 -27.5 12t-12.5 26q0 9 7 16l84 88q8 8 19 8q14 0 26 -12.5t12 -25.5q0 -10 -7 -17z" />
    <glyph glyph-name="Uogonek" unicode="&#x172;" horiz-adv-x="594" 
d="M407 691q0 21 20 30.5t45 9.5q24 0 44.5 -9.5t20.5 -30.5v-468q0 -93 -40 -145t-103 -71q-33 -21 -55.5 -53.5t-22.5 -64.5q0 -22 14 -34.5t46 -12.5q13 0 18 -9.5t5 -19.5q0 -11 -5.5 -18.5t-23.5 -7.5q-58 0 -87.5 25t-29.5 65q0 31 14 61t39 56h-9q-51 0 -94.5 12.5
t-76 39.5t-51 70.5t-18.5 106.5v468q0 21 20 30.5t45 9.5q24 0 44.5 -9.5t20.5 -30.5v-468q0 -59 29 -87t81 -28t81 28t29 87v468z" />
    <glyph glyph-name="uogonek" unicode="&#x173;" 
d="M326 -158q13 0 18 -9.5t5 -19.5q0 -11 -5.5 -18.5t-23.5 -7.5q-58 0 -87.5 25t-29.5 65q0 30 13 59.5t37 54.5q-43 2 -81 19t-66 45t-44.5 64t-16.5 75v240q0 15 19 28t46 13q26 0 45 -13t19 -28v-240q0 -17 7 -33t19 -29t28 -20.5t34 -7.5t34 7.5t28 20t18.5 29
t6.5 33.5v241q0 16 19.5 28t45.5 12q29 0 46.5 -12t17.5 -28v-241q0 -31 -10 -59.5t-28 -53t-42.5 -43.5t-53.5 -31q-33 -21 -55.5 -53.5t-22.5 -64.5q0 -22 14 -34.5t46 -12.5z" />
    <glyph glyph-name="Wcircumflex" unicode="&#x174;" horiz-adv-x="883" 
d="M338 822q-6 -3 -11 -3q-12 0 -20 12t-8 28q0 11 5 21t17 16l104 56q8 5 17 5q7 0 17 -5l104 -55q11 -7 16 -17.5t5 -21.5q0 -15 -8 -27t-20 -12q-6 0 -10 3l-104 56zM674 38q-8 -23 -32 -33.5t-53 -10.5q-28 0 -53 10.5t-30 33.5l-64 270l-65 -270q-5 -23 -30 -33.5
t-53 -10.5q-29 0 -53.5 10.5t-31.5 33.5l-198 629q-2 6 -2 12q0 11 8 20.5t20 16.5t26.5 11t28.5 4q15 0 27 -6t16 -20l158 -542l85 348q5 19 23.5 27.5t40.5 8.5q21 0 39.5 -8.5t23.5 -27.5l85 -348l158 542q4 14 16 20t27 6q14 0 28.5 -4t26.5 -11t20 -16.5t8 -20.5
q0 -6 -2 -12z" />
    <glyph glyph-name="wcircumflex" unicode="&#x175;" horiz-adv-x="693" 
d="M244 579q-6 -3 -11 -3q-12 0 -20 12t-8 28q0 11 5 21t17 16l104 56q8 5 17 5q7 0 17 -5l104 -55q11 -7 16 -17.5t5 -21.5q0 -15 -8 -27t-20 -12q-6 0 -10 3l-104 56zM528 12q-5 -13 -19.5 -18t-31.5 -5q-19 0 -33.5 6t-19.5 17l-77 218l-76 -217q-5 -12 -20.5 -18
t-34.5 -6q-16 0 -30.5 5t-19.5 19l-154 395q-5 10 -5 19q0 12 8.5 21.5t21 16.5t27 11t27.5 4t23 -5t14 -16l100 -284l75 247q5 17 17 21.5t27 4.5q14 0 26.5 -4.5t17.5 -21.5l74 -248l101 285q8 21 37 21q12 0 26.5 -4t27 -11t21 -17t8.5 -22q0 -11 -4 -18z" />
    <glyph glyph-name="Ycircumflex" unicode="&#x176;" horiz-adv-x="574" 
d="M222 293q0 8 -3 13l-207 358q-3 7 -3 13q0 12 8.5 22t21.5 17t28 11t28 4q16 0 24.5 -6t15.5 -20l152 -289l153 289q7 13 15 19.5t24 6.5q13 0 28 -4t28 -11t21.5 -17t8.5 -22q0 -2 -0.5 -5.5t-2.5 -7.5l-206 -358q-4 -6 -4 -13v-252q0 -20 -20 -30.5t-45 -10.5
q-24 0 -44.5 10.5t-20.5 30.5v252zM184 822q-6 -3 -11 -3q-12 0 -20 12t-8 28q0 11 5 21t17 16l104 56q8 5 17 5q7 0 17 -5l104 -55q11 -7 16 -17.5t5 -21.5q0 -15 -8 -27t-20 -12q-6 0 -10 3l-104 56z" />
    <glyph glyph-name="ycircumflex" unicode="&#x177;" horiz-adv-x="476" 
d="M10 403q-4 10 -4 17q0 13 9 24t22 19.5t28 13.5t27 5q13 0 23 -5t14 -17l120 -299l97 299q4 12 13.5 17t20.5 5q12 0 27 -5t28.5 -13.5t23 -20.5t9.5 -25q0 -8 -3 -15l-146 -373q-18 -45 -34.5 -90t-43 -80.5t-68 -58t-108.5 -22.5q-25 0 -42 9.5t-17 45.5q0 22 7.5 38
t25.5 16q16 0 39.5 6t45.5 22.5t38.5 45t19.5 73.5zM146 579q-6 -3 -11 -3q-12 0 -20 12t-8 28q0 11 5 21t17 16l104 56q8 5 17 5q7 0 17 -5l104 -55q11 -7 16 -17.5t5 -21.5q0 -15 -8 -27t-20 -12q-6 0 -10 3l-104 56z" />
    <glyph glyph-name="Ydieresis" unicode="&#x178;" horiz-adv-x="574" 
d="M222 293q0 8 -3 13l-207 358q-3 7 -3 13q0 12 8.5 22t21.5 17t28 11t28 4q16 0 24.5 -6t15.5 -20l152 -289l153 289q7 13 15 19.5t24 6.5q13 0 28 -4t28 -11t21.5 -17t8.5 -22q0 -2 -0.5 -5.5t-2.5 -7.5l-206 -358q-4 -6 -4 -13v-252q0 -20 -20 -30.5t-45 -10.5
q-24 0 -44.5 10.5t-20.5 30.5v252zM213 925q21 0 35.5 -15.5t14.5 -36.5t-14.5 -37t-35.5 -16t-36 16t-15 37t15 36.5t36 15.5zM363 925q20 0 35 -15.5t15 -36.5t-15 -37t-35 -16q-22 0 -37 16t-15 37t15 36.5t37 15.5z" />
    <glyph glyph-name="Zacute" unicode="&#x179;" horiz-adv-x="522" 
d="M238 815q-4 -2 -7 -3t-7 -1q-17 0 -28.5 16t-11.5 33q0 22 17 31l132 64q4 1 7 1.5t6 0.5q17 0 28.5 -16t11.5 -33q0 -9 -4 -17t-14 -13zM180 114h288q20 0 30.5 -18.5t10.5 -38.5t-10.5 -38.5t-30.5 -18.5h-415q-20 0 -29.5 10t-9.5 26q0 22 14 45l297 536h-253
q-20 0 -30 17t-10 40q0 21 9.5 39t30.5 18h380q20 0 29.5 -10t9.5 -25q0 -22 -15 -47z" />
    <glyph glyph-name="zacute" unicode="&#x17a;" horiz-adv-x="437" 
d="M208 572q-4 -2 -7 -3t-7 -1q-17 0 -28.5 16t-11.5 33q0 22 17 31l132 64q4 1 7 1.5t6 0.5q17 0 28.5 -16t11.5 -33q0 -9 -4 -17t-14 -13zM381 105q16 0 27 -15t11 -38q0 -21 -10.5 -36.5t-27.5 -15.5h-316q-24 0 -34 14.5t-10 31.5q0 15 7 28.5t15 23.5l197 272h-173
q-16 0 -27 15t-11 38q0 21 10.5 36.5t27.5 15.5h294q17 0 29.5 -10.5t12.5 -33.5q0 -28 -20 -54l-198 -272h196z" />
    <glyph glyph-name="Zdotaccent" unicode="&#x17b;" horiz-adv-x="522" 
d="M180 114h288q20 0 30.5 -18.5t10.5 -38.5t-10.5 -38.5t-30.5 -18.5h-415q-20 0 -29.5 10t-9.5 26q0 22 14 45l297 536h-253q-20 0 -30 17t-10 40q0 21 9.5 39t30.5 18h380q20 0 29.5 -10t9.5 -25q0 -22 -15 -47zM271 925q21 0 35.5 -15.5t14.5 -36.5t-14.5 -37t-35.5 -16
t-36 16t-15 37t15 36.5t36 15.5z" />
    <glyph glyph-name="zdotaccent" unicode="&#x17c;" horiz-adv-x="437" 
d="M381 105q16 0 27 -15t11 -38q0 -21 -10.5 -36.5t-27.5 -15.5h-316q-24 0 -34 14.5t-10 31.5q0 15 7 28.5t15 23.5l197 272h-173q-16 0 -27 15t-11 38q0 21 10.5 36.5t27.5 15.5h294q17 0 29.5 -10.5t12.5 -33.5q0 -28 -20 -54l-198 -272h196zM221 682q21 0 35.5 -15.5
t14.5 -36.5t-14.5 -37t-35.5 -16t-36 16t-15 37t15 36.5t36 15.5z" />
    <glyph glyph-name="Zcaron" unicode="&#x17d;" horiz-adv-x="522" 
d="M264 905l102 66q7 4 12 4q13 0 20.5 -12.5t7.5 -26.5q0 -25 -21 -38l-103 -66q-11 -6 -18 -6q-9 0 -18 6l-103 66q-22 13 -22 38q0 14 8 26.5t20 12.5q7 0 12 -4zM180 114h288q20 0 30.5 -18.5t10.5 -38.5t-10.5 -38.5t-30.5 -18.5h-415q-20 0 -29.5 10t-9.5 26
q0 22 14 45l297 536h-253q-20 0 -30 17t-10 40q0 21 9.5 39t30.5 18h380q20 0 29.5 -10t9.5 -25q0 -22 -15 -47z" />
    <glyph glyph-name="zcaron" unicode="&#x17e;" horiz-adv-x="437" 
d="M221 662l102 66q7 4 12 4q13 0 20.5 -12.5t7.5 -26.5q0 -25 -21 -38l-103 -66q-11 -6 -18 -6q-9 0 -18 6l-103 66q-22 13 -22 38q0 14 8 26.5t20 12.5q7 0 12 -4zM381 105q16 0 27 -15t11 -38q0 -21 -10.5 -36.5t-27.5 -15.5h-316q-24 0 -34 14.5t-10 31.5q0 15 7 28.5
t15 23.5l197 272h-173q-16 0 -27 15t-11 38q0 21 10.5 36.5t27.5 15.5h294q17 0 29.5 -10.5t12.5 -33.5q0 -28 -20 -54l-198 -272h196z" />
    <glyph glyph-name="florin" unicode="&#x192;" horiz-adv-x="386" 
d="M222 445h124q17 0 25 -14.5t8 -31.5q0 -19 -8.5 -33.5t-25.5 -14.5h-137l-38 -276q-6 -42 -19 -80t-35 -67.5t-52.5 -47t-71.5 -17.5h-25q-19 0 -29 17t-10 40q0 26 12.5 44.5t31.5 18.5h22q20 0 32.5 27.5t17.5 64.5l67 492q6 42 25.5 78.5t49.5 63.5t67 43t78 16h52
q17 0 27.5 -15.5t10.5 -38.5q0 -26 -13 -42.5t-30 -16.5h-49q-38 0 -60.5 -24.5t-28.5 -63.5z" />
    <glyph glyph-name="AEacute" unicode="&#x1fc;" horiz-adv-x="787" 
d="M418 812q-4 -2 -7 -3t-7 -1q-17 0 -28.5 16t-11.5 33q0 22 17 31l132 64q4 1 7 1.5t6 0.5q17 0 28.5 -16t11.5 -33q0 -9 -4 -17t-14 -13zM502 417h119q20 0 30.5 -16t10.5 -36q0 -17 -10 -33.5t-31 -16.5h-119v-201h228q20 0 30.5 -17.5t10.5 -40.5q0 -20 -9.5 -38
t-31.5 -18h-301q-22 0 -39.5 10.5t-17.5 30.5v274h-192v-269q0 -10 -2 -18.5t-9 -14.5t-20 -9.5t-34 -3.5q-32 0 -45 13t-13 33v456q0 63 18 106.5t48.5 70.5t72 39.5t89.5 12.5h445q22 0 31.5 -18t9.5 -38q0 -23 -10.5 -40.5t-30.5 -17.5h-228v-200zM180 417h192v200h-87
q-50 0 -77.5 -28t-27.5 -87v-85z" />
    <glyph glyph-name="aeacute" unicode="&#x1fd;" horiz-adv-x="748" 
d="M337 572q-4 -2 -7 -3t-7 -1q-17 0 -28.5 16t-11.5 33q0 22 17 31l132 64q4 1 7 1.5t6 0.5q17 0 28.5 -16t11.5 -33q0 -9 -4 -17t-14 -13zM514 481q40 0 77.5 -13t66 -37.5t46 -60t17.5 -80.5q0 -30 -7.5 -47t-20 -26t-30 -11t-36.5 -2h-202v-15q0 -44 32.5 -70t83.5 -26
q25 0 43 6t32.5 13t26 13t22.5 6t20 -6t15 -14.5t9.5 -18.5t3.5 -18q0 -14 -13.5 -28.5t-37 -26.5t-56 -20t-71.5 -8q-59 0 -106.5 25t-78.5 71q-35 -45 -81.5 -70.5t-93.5 -25.5q-31 0 -58.5 8t-48.5 24.5t-33.5 41t-12.5 58.5q0 43 17 72t47.5 45.5t73.5 23.5t95 7h40v14
q0 16 -4.5 32.5t-15 29.5t-27 21.5t-41.5 8.5q-29 0 -46.5 -5t-29.5 -11t-20 -11t-17 -5q-22 0 -33.5 21t-11.5 44q0 15 15 28t38.5 22.5t52 15t55.5 5.5q56 0 94.5 -21.5t61.5 -56.5q28 35 65.5 56.5t82.5 21.5zM571 280q17 0 23 5.5t6 20.5q0 36 -26 58t-62 22
q-35 0 -61 -21t-26 -57v-28h146zM295 204h-15q-25 0 -48.5 -2t-41.5 -8.5t-28.5 -19.5t-10.5 -34q0 -27 15 -40t38 -13q16 0 32 8t29 21.5t21.5 31t8.5 35.5v21z" />
    <glyph glyph-name="Oslashacute" unicode="&#x1fe;" horiz-adv-x="573" 
d="M463 771q18 0 34 -12.5t16 -32.5q0 -10 -4 -18l-29 -58q20 -27 30.5 -63.5t10.5 -84.5v-279q0 -63 -18 -106.5t-50 -70.5t-75 -39.5t-92 -12.5q-33 0 -63 5t-56 17l-17 -34q-5 -11 -16 -16.5t-23 -5.5q-22 0 -35 14t-13 30q0 9 5 17l26 52q-20 27 -31 64t-11 86v279
q0 63 18 106.5t49.5 70.5t74 39.5t92.5 12.5q33 0 63.5 -5.5t56.5 -17.5l21 42q5 11 15 16t21 5zM182 252l170 346q-25 19 -66 19q-50 0 -77 -27.5t-27 -87.5v-250zM391 469l-170 -344q24 -17 65 -17q49 0 77 27.5t28 87.5v246zM258 815q-4 -2 -7 -3t-7 -1q-17 0 -28.5 16
t-11.5 33q0 22 17 31l132 64q4 1 7 1.5t6 0.5q17 0 28.5 -16t11.5 -33q0 -9 -4 -17t-14 -13z" />
    <glyph glyph-name="oslashacute" unicode="&#x1ff;" horiz-adv-x="498" 
d="M249 481q62 0 113 -31l34 48q8 12 20 12t21 -9t9 -20q0 -9 -7 -19l-33 -46q28 -28 44 -63t16 -75v-82q0 -40 -17.5 -77t-47.5 -65.5t-69.5 -45.5t-82.5 -17q-33 0 -63.5 9.5t-56.5 26.5l-35 -50q-6 -9 -17 -9q-10 0 -19 8t-9 19q0 4 2 8l4 8l34 49q-26 28 -41.5 63
t-15.5 73v82q0 40 17 77t46.5 65t69 44.5t84.5 16.5zM239 572q-4 -2 -7 -3t-7 -1q-17 0 -28.5 16t-11.5 33q0 22 17 31l132 64q4 1 7 1.5t6 0.5q17 0 28.5 -16t11.5 -33q0 -9 -4 -17t-14 -13zM337 278q0 8 -2 15.5t-5 15.5l-133 -187q11 -8 24 -13t28 -5q18 0 34 8t28 20.5
t19 29t7 34.5v82zM161 196q0 -16 4 -28l130 185q-23 15 -46 15q-18 0 -34 -7.5t-28 -20.5t-19 -29t-7 -33v-82z" />
    <glyph glyph-name="Scommaaccent" unicode="&#x218;" horiz-adv-x="522" 
d="M223 -190q-4 -2 -7 -3t-7 -1q-17 0 -28.5 16t-11.5 33q0 21 17 30l132 64q7 3 13 3q17 0 28.5 -16t11.5 -33q0 -10 -4 -18t-14 -13zM251 108q45 0 78.5 21t33.5 66q0 37 -24 60.5t-59.5 42t-77 35.5t-77 42.5t-59.5 63.5t-24 97q0 56 22 94t56.5 61.5t78 34t86.5 10.5
q22 0 54.5 -3t62.5 -12t51.5 -24.5t21.5 -40.5q0 -9 -3 -20.5t-9.5 -22.5t-16.5 -18.5t-23 -7.5q-12 0 -23 6t-26 13t-36.5 13t-52.5 6q-54 0 -83.5 -20.5t-29.5 -56.5q0 -31 24 -50.5t59.5 -35.5t77 -33.5t77 -45t59.5 -69t24 -106.5q0 -54 -18 -94.5t-49.5 -67.5t-75 -41
t-95.5 -14q-49 0 -91.5 11t-73.5 29t-48.5 40t-17.5 44q0 10 4.5 22.5t12.5 23t18 17.5t22 7q15 0 29.5 -12t33 -26.5t44 -26.5t63.5 -12z" />
    <glyph glyph-name="scommaaccent" unicode="&#x219;" horiz-adv-x="414" 
d="M163 -190q-4 -2 -7 -3t-7 -1q-17 0 -28.5 16t-11.5 33q0 21 17 30l132 64q7 3 13 3q17 0 28.5 -16t11.5 -33q0 -10 -4 -18t-14 -13zM201 89q44 0 58.5 14t14.5 29q0 22 -17.5 34t-44 20t-57 16.5t-57 23t-44 39.5t-17.5 67q0 27 9 53.5t30 47.5t55.5 34.5t84.5 13.5
q30 0 59 -5t51 -13.5t35.5 -20.5t13.5 -26q0 -7 -3 -17.5t-9 -20.5t-15 -17t-20 -7q-9 0 -19.5 4.5t-24 10t-29.5 10t-37 4.5q-38 0 -54 -15t-16 -30q0 -18 18 -28t44.5 -17.5t57.5 -16t57.5 -24.5t44.5 -43.5t18 -71.5q0 -67 -47.5 -106.5t-136.5 -39.5q-38 0 -71 7
t-57.5 19t-38.5 27.5t-14 32.5q0 8 3 18t9 18.5t14 14.5t17 6q11 0 21.5 -7t25.5 -15.5t35.5 -15.5t52.5 -7z" />
    <glyph glyph-name="dotlessj" unicode="&#x237;" horiz-adv-x="231" 
d="M114 475q28 0 47 -11t19 -29v-467q0 -42 -9.5 -76.5t-28.5 -59.5t-47.5 -39t-65.5 -14q-20 0 -33 4.5t-20.5 12t-10.5 17t-3 19.5q0 26 14.5 41t34.5 15q27 0 33.5 22.5t6.5 57.5v467q0 18 18 29t45 11z" />
    <glyph glyph-name="schwa" unicode="&#x259;" horiz-adv-x="484" 
d="M234 -9q-42 0 -79.5 14t-66 38.5t-45 59t-16.5 76.5q0 32 8.5 50t22 26.5t30 10.5t33.5 2h203v15q0 44 -32.5 70t-84.5 26q-25 0 -43.5 -6t-32.5 -13t-25.5 -13t-22.5 -6t-20 6t-15 15t-9.5 18.5t-3.5 17.5q0 13 12.5 27.5t35 27t55 20.5t73.5 8q53 0 97 -14.5t76 -41.5
t50 -65t18 -84v-85q0 -41 -17 -77t-46.5 -63.5t-69.5 -43.5t-85 -16zM178 192q-17 0 -23.5 -5t-6.5 -22q0 -35 26 -57t62 -22q35 0 61.5 21t26.5 57v28h-146z" />
    <glyph glyph-name="circumflex" unicode="&#x2c6;" horiz-adv-x="285" 
d="M39 579q-6 -3 -11 -3q-12 0 -20 12t-8 28q0 11 5 21t17 16l104 56q8 5 17 5q7 0 17 -5l104 -55q11 -7 16 -17.5t5 -21.5q0 -15 -8 -27t-20 -12q-6 0 -10 3l-104 56z" />
    <glyph glyph-name="caron" unicode="&#x2c7;" horiz-adv-x="289" 
d="M145 662l102 66q7 4 12 4q13 0 20.5 -12.5t7.5 -26.5q0 -25 -21 -38l-103 -66q-11 -6 -18 -6q-9 0 -18 6l-103 66q-22 13 -22 38q0 14 8 26.5t20 12.5q7 0 12 -4z" />
    <glyph glyph-name="breve" unicode="&#x2d8;" horiz-adv-x="266" 
d="M266 721q0 -27 -11 -51t-30 -42t-43 -29t-49 -11q-26 0 -50 11t-42.5 29t-29.5 42t-11 51h70q0 -33 19.5 -54t43.5 -21q23 0 43 21t20 54h70z" />
    <glyph glyph-name="dotaccent" unicode="&#x2d9;" horiz-adv-x="191" 
d="M100 682q21 0 35.5 -15.5t14.5 -36.5t-14.5 -37t-35.5 -16t-36 16t-15 37t15 36.5t36 15.5z" />
    <glyph glyph-name="ring" unicode="&#x2da;" horiz-adv-x="196" 
d="M97 769q20 0 38 -8t31.5 -22t21.5 -32t8 -37q0 -20 -8 -38t-22 -32t-32 -22.5t-37 -8.5q-20 0 -37.5 8.5t-30.5 22.5t-21 32t-8 38q0 19 7.5 37t20.5 31.5t31 22t38 8.5zM142 669q0 17 -12.5 31t-31.5 14q-20 0 -33.5 -14t-13.5 -31t13.5 -32.5t33.5 -15.5q19 0 31.5 15
t12.5 33z" />
    <glyph glyph-name="ogonek" unicode="&#x2db;" horiz-adv-x="146" 
d="M123 -158q13 0 18 -9.5t5 -19.5q0 -11 -5.5 -18.5t-23.5 -7.5q-58 0 -87.5 25t-29.5 65q0 42 25 82t69 67l47 -19q-33 -21 -55.5 -53.5t-22.5 -64.5q0 -22 14 -34.5t46 -12.5z" />
    <glyph glyph-name="tilde" unicode="&#x2dc;" horiz-adv-x="342" 
d="M115 617q-16 0 -27.5 -4t-21 -8.5t-17.5 -8t-16 -3.5q-10 0 -16.5 5t-10 12t-5 14t-1.5 11q0 23 10 36.5t24 20.5t28.5 9t23.5 2q22 0 39 -4.5t33.5 -10t33 -10t36.5 -4.5q16 0 28 3.5t21 8t16.5 8.5t15.5 4q10 0 16 -5t10 -12t5.5 -14t1.5 -11q0 -23 -10 -36.5
t-24 -20.5t-28.5 -9t-22.5 -2q-25 0 -43 4.5t-34 10t-31 10t-34 4.5z" />
    <glyph glyph-name="hungarumlaut" unicode="&#x2dd;" horiz-adv-x="305" 
d="M59 575q-8 -9 -19 -9q-15 0 -27.5 12t-12.5 26q0 9 7 16l84 88q7 8 19 8q14 0 26 -12.5t12 -25.5q0 -10 -7 -17zM216 575q-8 -9 -19 -9q-15 0 -27.5 12t-12.5 26q0 9 7 16l84 88q8 8 19 8q14 0 26 -12.5t12 -25.5q0 -10 -7 -17z" />
    <glyph glyph-name="pi" unicode="&#x3c0;" horiz-adv-x="540" 
d="M433 475q22 0 39.5 -10.5t17.5 -30.5v-394q0 -21 -20 -30.5t-45 -9.5q-24 0 -44.5 9.5t-20.5 30.5v321h-181v-321q0 -21 -20 -30.5t-45 -9.5q-24 0 -44 9.5t-20 30.5v394q0 20 17.5 30.5t39.5 10.5h326z" />
    <glyph glyph-name="Wgrave" unicode="&#x1e80;" horiz-adv-x="883" 
d="M674 38q-8 -23 -32 -33.5t-53 -10.5q-28 0 -53 10.5t-30 33.5l-64 270l-65 -270q-5 -23 -30 -33.5t-53 -10.5q-29 0 -53.5 10.5t-31.5 33.5l-198 629q-2 6 -2 12q0 11 8 20.5t20 16.5t26.5 11t28.5 4q15 0 27 -6t16 -20l158 -542l85 348q5 19 23.5 27.5t40.5 8.5
q21 0 39.5 -8.5t23.5 -27.5l85 -348l158 542q4 14 16 20t27 6q14 0 28.5 -4t26.5 -11t20 -16.5t8 -20.5q0 -6 -2 -12zM343 878q-10 5 -14 13t-4 17q0 17 11.5 33t28.5 16q3 0 6 -0.5t7 -1.5l132 -64q17 -9 17 -31q0 -17 -11.5 -33t-28.5 -16q-4 0 -7 1t-7 3z" />
    <glyph glyph-name="wgrave" unicode="&#x1e81;" horiz-adv-x="693" 
d="M528 12q-5 -13 -19.5 -18t-31.5 -5q-19 0 -33.5 6t-19.5 17l-77 218l-76 -217q-5 -12 -20.5 -18t-34.5 -6q-16 0 -30.5 5t-19.5 19l-154 395q-5 10 -5 19q0 12 8.5 21.5t21 16.5t27 11t27.5 4t23 -5t14 -16l100 -284l75 247q5 17 17 21.5t27 4.5q14 0 26.5 -4.5
t17.5 -21.5l74 -248l101 285q8 21 37 21q12 0 26.5 -4t27 -11t21 -17t8.5 -22q0 -11 -4 -18zM240 635q-10 5 -14 13t-4 17q0 17 11.5 33t28.5 16q3 0 6 -0.5t7 -1.5l132 -64q17 -9 17 -31q0 -17 -11.5 -33t-28.5 -16q-4 0 -7 1t-7 3z" />
    <glyph glyph-name="Wacute" unicode="&#x1e82;" horiz-adv-x="883" 
d="M411 815q-4 -2 -7 -3t-7 -1q-17 0 -28.5 16t-11.5 33q0 22 17 31l132 64q4 1 7 1.5t6 0.5q17 0 28.5 -16t11.5 -33q0 -9 -4 -17t-14 -13zM674 38q-8 -23 -32 -33.5t-53 -10.5q-28 0 -53 10.5t-30 33.5l-64 270l-65 -270q-5 -23 -30 -33.5t-53 -10.5q-29 0 -53.5 10.5
t-31.5 33.5l-198 629q-2 6 -2 12q0 11 8 20.5t20 16.5t26.5 11t28.5 4q15 0 27 -6t16 -20l158 -542l85 348q5 19 23.5 27.5t40.5 8.5q21 0 39.5 -8.5t23.5 -27.5l85 -348l158 542q4 14 16 20t27 6q14 0 28.5 -4t26.5 -11t20 -16.5t8 -20.5q0 -6 -2 -12z" />
    <glyph glyph-name="wacute" unicode="&#x1e83;" horiz-adv-x="693" 
d="M323 572q-4 -2 -7 -3t-7 -1q-17 0 -28.5 16t-11.5 33q0 22 17 31l132 64q4 1 7 1.5t6 0.5q17 0 28.5 -16t11.5 -33q0 -9 -4 -17t-14 -13zM528 12q-5 -13 -19.5 -18t-31.5 -5q-19 0 -33.5 6t-19.5 17l-77 218l-76 -217q-5 -12 -20.5 -18t-34.5 -6q-16 0 -30.5 5t-19.5 19
l-154 395q-5 10 -5 19q0 12 8.5 21.5t21 16.5t27 11t27.5 4t23 -5t14 -16l100 -284l75 247q5 17 17 21.5t27 4.5q14 0 26.5 -4.5t17.5 -21.5l74 -248l101 285q8 21 37 21q12 0 26.5 -4t27 -11t21 -17t8.5 -22q0 -11 -4 -18z" />
    <glyph glyph-name="Wdieresis" unicode="&#x1e84;" horiz-adv-x="883" 
d="M367 925q21 0 35.5 -15.5t14.5 -36.5t-14.5 -37t-35.5 -16t-36 16t-15 37t15 36.5t36 15.5zM517 925q20 0 35 -15.5t15 -36.5t-15 -37t-35 -16q-22 0 -37 16t-15 37t15 36.5t37 15.5zM674 38q-8 -23 -32 -33.5t-53 -10.5q-28 0 -53 10.5t-30 33.5l-64 270l-65 -270
q-5 -23 -30 -33.5t-53 -10.5q-29 0 -53.5 10.5t-31.5 33.5l-198 629q-2 6 -2 12q0 11 8 20.5t20 16.5t26.5 11t28.5 4q15 0 27 -6t16 -20l158 -542l85 348q5 19 23.5 27.5t40.5 8.5q21 0 39.5 -8.5t23.5 -27.5l85 -348l158 542q4 14 16 20t27 6q14 0 28.5 -4t26.5 -11
t20 -16.5t8 -20.5q0 -6 -2 -12z" />
    <glyph glyph-name="wdieresis" unicode="&#x1e85;" horiz-adv-x="693" 
d="M273 682q21 0 35.5 -15.5t14.5 -36.5t-14.5 -37t-35.5 -16t-36 16t-15 37t15 36.5t36 15.5zM423 682q20 0 35 -15.5t15 -36.5t-15 -37t-35 -16q-22 0 -37 16t-15 37t15 36.5t37 15.5zM528 12q-5 -13 -19.5 -18t-31.5 -5q-19 0 -33.5 6t-19.5 17l-77 218l-76 -217
q-5 -12 -20.5 -18t-34.5 -6q-16 0 -30.5 5t-19.5 19l-154 395q-5 10 -5 19q0 12 8.5 21.5t21 16.5t27 11t27.5 4t23 -5t14 -16l100 -284l75 247q5 17 17 21.5t27 4.5q14 0 26.5 -4.5t17.5 -21.5l74 -248l101 285q8 21 37 21q12 0 26.5 -4t27 -11t21 -17t8.5 -22
q0 -11 -4 -18z" />
    <glyph glyph-name="Ygrave" unicode="&#x1ef2;" horiz-adv-x="574" 
d="M222 293q0 8 -3 13l-207 358q-3 7 -3 13q0 12 8.5 22t21.5 17t28 11t28 4q16 0 24.5 -6t15.5 -20l152 -289l153 289q7 13 15 19.5t24 6.5q13 0 28 -4t28 -11t21.5 -17t8.5 -22q0 -2 -0.5 -5.5t-2.5 -7.5l-206 -358q-4 -6 -4 -13v-252q0 -20 -20 -30.5t-45 -10.5
q-24 0 -44.5 10.5t-20.5 30.5v252zM188 878q-10 5 -14 13t-4 17q0 17 11.5 33t28.5 16q3 0 6 -0.5t7 -1.5l132 -64q17 -9 17 -31q0 -17 -11.5 -33t-28.5 -16q-4 0 -7 1t-7 3z" />
    <glyph glyph-name="ygrave" unicode="&#x1ef3;" horiz-adv-x="476" 
d="M10 403q-4 10 -4 17q0 13 9 24t22 19.5t28 13.5t27 5q13 0 23 -5t14 -17l120 -299l97 299q4 12 13.5 17t20.5 5q12 0 27 -5t28.5 -13.5t23 -20.5t9.5 -25q0 -8 -3 -15l-146 -373q-18 -45 -34.5 -90t-43 -80.5t-68 -58t-108.5 -22.5q-25 0 -42 9.5t-17 45.5q0 22 7.5 38
t25.5 16q16 0 39.5 6t45.5 22.5t38.5 45t19.5 73.5zM131 635q-10 5 -14 13t-4 17q0 17 11.5 33t28.5 16q3 0 6 -0.5t7 -1.5l132 -64q17 -9 17 -31q0 -17 -11.5 -33t-28.5 -16q-4 0 -7 1t-7 3z" />
    <glyph glyph-name="endash" unicode="&#x2013;" horiz-adv-x="473" 
d="M36 240q0 23 11 38.5t29 15.5h320q16 0 29 -15.5t13 -38.5q0 -24 -13 -38.5t-29 -14.5h-320q-18 0 -29 14.5t-11 38.5z" />
    <glyph glyph-name="emdash" unicode="&#x2014;" horiz-adv-x="754" 
d="M36 240q0 23 11 38.5t29 15.5h601q16 0 28.5 -15.5t12.5 -38.5q0 -24 -12.5 -38.5t-28.5 -14.5h-601q-18 0 -29 14.5t-11 38.5z" />
    <glyph glyph-name="quoteleft" unicode="&#x2018;" horiz-adv-x="184" 
d="M90 511q-28 0 -48 20t-20 47q0 5 1.5 12.5t7.5 23t17 42t30 69.5q4 9 11.5 12.5t14.5 3.5q14 0 28.5 -8.5t14.5 -25.5q0 -5 -3 -14l-24 -53q17 -9 27 -25t10 -36q0 -28 -19.5 -48t-47.5 -20z" />
    <glyph glyph-name="quoteright" unicode="&#x2019;" horiz-adv-x="183" 
d="M95 741q28 0 48 -20t20 -47q0 -5 -1.5 -12.5t-7.5 -23t-17 -42t-30 -69.5q-4 -9 -11 -12.5t-15 -3.5q-14 0 -28.5 8.5t-14.5 25.5q0 7 4 14l23 53q-17 9 -27 25t-10 36q0 28 19.5 48t47.5 20z" />
    <glyph glyph-name="quotesinglbase" unicode="&#x201a;" horiz-adv-x="193" 
d="M96 130q28 0 48 -20t20 -47q0 -5 -1.5 -12.5t-7.5 -23t-17 -41.5t-30 -69q-4 -10 -11.5 -13.5t-14.5 -3.5q-14 0 -28.5 9t-14.5 25q0 6 3 14l24 53q-17 9 -27 25t-10 36q0 28 19.5 48t47.5 20z" />
    <glyph glyph-name="quotedblleft" unicode="&#x201c;" horiz-adv-x="370" 
d="M90 511q-28 0 -48 20t-20 47q0 5 1.5 12.5t7.5 23t17 42t30 69.5q4 9 11.5 12.5t14.5 3.5q14 0 28.5 -8.5t14.5 -25.5q0 -5 -3 -14l-24 -53q17 -9 27 -25t10 -36q0 -28 -19.5 -48t-47.5 -20zM276 511q-28 0 -48 20t-20 47q0 5 1.5 12.5t7.5 23t17 42t30 69.5q4 9 11 12.5
t15 3.5q14 0 28.5 -8.5t14.5 -25.5q0 -6 -4 -14l-23 -53q17 -9 27 -25t10 -36q0 -28 -19.5 -48t-47.5 -20z" />
    <glyph glyph-name="quotedblright" unicode="&#x201d;" horiz-adv-x="369" 
d="M281 741q28 0 48 -20t20 -47q0 -5 -1.5 -12.5t-7.5 -23t-17 -42t-30 -69.5q-4 -9 -11.5 -12.5t-14.5 -3.5q-14 0 -28.5 8.5t-14.5 25.5q0 6 3 14l24 53q-17 9 -27 25t-10 36q0 28 19.5 48t47.5 20zM95 741q28 0 48 -20t20 -47q0 -5 -1.5 -12.5t-7.5 -23t-17 -42
t-30 -69.5q-4 -9 -11 -12.5t-15 -3.5q-14 0 -28.5 8.5t-14.5 25.5q0 7 4 14l23 53q-17 9 -27 25t-10 36q0 28 19.5 48t47.5 20z" />
    <glyph glyph-name="quotedblbase" unicode="&#x201e;" horiz-adv-x="379" 
d="M282 130q28 0 48 -20t20 -47q0 -5 -1.5 -12.5t-7.5 -23t-17 -41.5t-30 -69q-5 -10 -12 -13.5t-15 -3.5q-14 0 -28 9t-14 25q0 3 0.5 6.5t2.5 7.5l24 53q-17 9 -27.5 25t-10.5 36q0 28 19.5 48t48.5 20zM96 130q28 0 48 -20t20 -47q0 -5 -1.5 -12.5t-7.5 -23t-17 -41.5
t-30 -69q-4 -10 -11.5 -13.5t-14.5 -3.5q-14 0 -28.5 9t-14.5 25q0 6 3 14l24 53q-17 9 -27 25t-10 36q0 28 19.5 48t47.5 20z" />
    <glyph glyph-name="dagger" unicode="&#x2020;" horiz-adv-x="441" 
d="M20 454q0 21 11 36t29 15l95 -6v192q0 16 19 28t46 12q25 0 45 -12t20 -28v-192l95 6q16 0 29 -15t13 -36q0 -23 -13 -36.5t-29 -13.5l-95 6v-383q0 -19 -20 -33.5t-45 -14.5q-27 0 -46 14.5t-19 33.5v383l-95 -6q-18 0 -29 13.5t-11 36.5z" />
    <glyph glyph-name="daggerdbl" unicode="&#x2021;" horiz-adv-x="449" 
d="M24 241q0 21 11 36t29 15l95 -6v124l-95 -6q-18 0 -29 13.5t-11 36.5q0 21 11 36t29 15l95 -6v192q0 16 19 28t46 12q24 0 44.5 -12t20.5 -28v-192l95 6q16 0 28.5 -15t12.5 -36q0 -23 -12.5 -36.5t-28.5 -13.5l-95 6v-124l95 6q16 0 28.5 -15t12.5 -36
q0 -23 -12.5 -36.5t-28.5 -13.5l-95 6v-170q0 -19 -20.5 -33.5t-44.5 -14.5q-27 0 -46 14.5t-19 33.5v170l-95 -6q-18 0 -29 13.5t-11 36.5z" />
    <glyph glyph-name="bullet" unicode="&#x2022;" horiz-adv-x="329" 
d="M165 426q26 0 50 -10.5t42 -27.5t28.5 -40t10.5 -48q0 -26 -10.5 -49t-28.5 -40t-42 -27.5t-50 -10.5q-27 0 -51 10.5t-42 27.5t-28.5 40t-10.5 49q0 25 10.5 48t28.5 40t42 27.5t51 10.5z" />
    <glyph glyph-name="ellipsis" unicode="&#x2026;" horiz-adv-x="575" 
d="M96 130q27 0 47 -20t20 -48q0 -27 -20 -47.5t-47 -20.5q-29 0 -48.5 20.5t-19.5 47.5q0 28 19.5 48t48.5 20zM289 130q27 0 47 -20t20 -48q0 -27 -20 -47.5t-47 -20.5q-29 0 -48.5 20.5t-19.5 47.5q0 28 19.5 48t48.5 20zM480 130q27 0 47 -20t20 -48q0 -27 -20 -47.5
t-47 -20.5q-29 0 -48.5 20.5t-19.5 47.5q0 28 19.5 48t48.5 20z" />
    <glyph glyph-name="perthousand" unicode="&#x2030;" horiz-adv-x="1124" 
d="M168 328q-30 0 -56.5 7t-45.5 22.5t-30 40t-11 59.5v145q0 35 11 59.5t30 40t45.5 22.5t56.5 7t56 -7t45 -22.5t30 -40t11 -59.5v-145q0 -35 -11 -59.5t-30 -40t-45 -22.5t-56 -7zM225 602q0 28 -15.5 41t-41.5 13t-41 -13t-15 -41v-145q0 -28 15 -41t41 -13t41.5 13
t15.5 41v145zM619 -3q-30 0 -56.5 7t-45.5 22t-30 39.5t-11 60.5v145q0 35 11 59.5t30 40t45.5 22.5t56.5 7t56 -7t45 -22.5t30 -40t11 -59.5v-145q0 -36 -11 -60.5t-30 -39.5t-45 -22t-56 -7zM676 271q0 28 -15.5 41t-41.5 13t-41 -13t-15 -41v-145q0 -28 15 -41t41 -13
t41.5 13t15.5 41v145zM957 -3q-30 0 -56.5 7t-45.5 22t-30 39.5t-11 60.5v145q0 35 11 59.5t30 40t45.5 22.5t56.5 7t56 -7t45 -22.5t30 -40t11 -59.5v-145q0 -36 -11 -60.5t-30 -39.5t-45 -22t-56 -7zM1014 271q0 28 -15.5 41t-41.5 13t-41 -13t-15 -41v-145q0 -28 15 -41
t41 -13t41.5 13t15.5 41v145zM571 771q17 0 33.5 -12.5t16.5 -32.5q0 -10 -4 -18l-360 -726q-5 -11 -15.5 -16.5t-23.5 -5.5q-21 0 -34 14t-13 30q0 7 4 17l360 729q5 11 15 16t21 5z" />
    <glyph glyph-name="guilsinglleft" unicode="&#x2039;" horiz-adv-x="272" 
d="M234 152q3 -6 3 -13q0 -10 -6.5 -21.5t-18 -21t-26 -16t-30.5 -6.5q-27 0 -36 17l-73 136q-10 19 -16.5 28.5t-6.5 20.5q0 12 6.5 22t16.5 29l73 136q9 17 37 17q16 0 30.5 -6.5t25.5 -16t17.5 -21t6.5 -21.5q0 -8 -3 -12l-67 -126z" />
    <glyph glyph-name="guilsinglright" unicode="&#x203a;" horiz-adv-x="272" 
d="M105 277l-67 126q-3 4 -3 12q0 10 6.5 21.5t17.5 21t25.5 16t30.5 6.5q28 0 36 -17l74 -136q10 -19 16.5 -29t6.5 -22q0 -11 -6.5 -20.5t-16.5 -28.5l-74 -136q-8 -17 -36 -17q-16 0 -30.5 6.5t-25.5 16t-17.5 21t-6.5 21.5q0 7 3 13z" />
    <glyph glyph-name="fraction" unicode="&#x2044;" horiz-adv-x="186" 
d="M268 771q17 0 33.5 -12.5t16.5 -32.5q0 -10 -4 -18l-360 -726q-5 -11 -15.5 -16.5t-23.5 -5.5q-21 0 -34 14t-13 30q0 7 4 17l360 729q5 11 15 16t21 5z" />
    <glyph glyph-name="zerosuperior" unicode="&#x2070;" horiz-adv-x="349" 
d="M175 328q-30 0 -56.5 7t-45.5 22.5t-30 40t-11 59.5v145q0 35 11 59.5t30 40t45.5 22.5t56.5 7t56 -7t45 -22.5t30 -40t11 -59.5v-145q0 -35 -11 -59.5t-30 -40t-45 -22.5t-56 -7zM232 602q0 28 -15.5 41t-41.5 13t-41 -13t-15 -41v-145q0 -28 15 -41t41 -13t41.5 13
t15.5 41v145z" />
    <glyph glyph-name="foursuperior" unicode="&#x2074;" horiz-adv-x="317" 
d="M172 416h-140q-12 0 -20 7.5t-8 21.5q0 8 4 16l138 248q7 12 16.5 17t19.5 5q6 0 13 -2t14 -6.5t11.5 -10.5t4.5 -13q0 -5 -3 -11l-108 -193h58v37q0 14 13.5 20t29.5 6q17 0 30.5 -6t13.5 -20v-37h26q14 0 20 -12.5t6 -27.5q0 -14 -8 -26.5t-18 -12.5h-26v-58
q0 -14 -13.5 -20.5t-30.5 -6.5q-16 0 -29.5 6.5t-13.5 20.5v58z" />
    <glyph glyph-name="fivesuperior" unicode="&#x2075;" horiz-adv-x="323" 
d="M160 584q30 0 56 -6.5t45 -20.5t30 -36.5t11 -55.5v-11q0 -34 -11 -58t-30 -39t-45 -22t-55 -7q-35 0 -62 8.5t-45 23t-27 32.5t-9 37q0 23 11 31t31 8q29 0 36.5 -9t7.5 -23q0 -16 14.5 -24.5t39.5 -8.5q27 0 42.5 12t15.5 39v11q0 26 -15 39t-41 13h-89
q-20 0 -26.5 9.5t-6.5 24.5v9t1 10l14 135q3 26 17 26h185q14 0 20 -11.5t6 -25.5t-6 -26t-20 -12h-130l-7 -72h42z" />
    <glyph glyph-name="sixsuperior" unicode="&#x2076;" horiz-adv-x="344" 
d="M194 577q25 0 47.5 -5.5t39 -19t26.5 -35.5t10 -55v-6q0 -35 -11 -59.5t-30 -39.5t-45 -22t-56 -7q-31 0 -57 7t-45 22.5t-30 40t-11 59.5v145q0 35 11.5 59.5t31 40t46.5 22.5t58 7q37 0 63.5 -10t43 -25t24 -33t7.5 -34q0 -20 -9.5 -27.5t-30.5 -7.5q-17 0 -31 5.5
t-14 25.5q0 16 -16 23.5t-39 7.5q-58 0 -58 -54v-49q14 15 33.5 19.5t41.5 4.5zM119 451q0 -54 56 -54t56 54v5q0 30 -14.5 42.5t-42.5 12.5q-26 0 -40.5 -11.5t-14.5 -38.5v-10z" />
    <glyph glyph-name="sevensuperior" unicode="&#x2077;" horiz-adv-x="314" 
d="M301 636q0 -11 -5 -25.5t-12 -26.5l-143 -244q-6 -12 -25 -12q-20 0 -37 12.5t-17 30.5q0 8 3 14l150 233v38h-113v-36q0 -11 -13 -18.5t-30 -7.5q-18 0 -30.5 7.5t-12.5 18.5v85q0 10 12 18t26 8h209q13 0 25.5 -8t12.5 -18v-69z" />
    <glyph glyph-name="eightsuperior" unicode="&#x2078;" horiz-adv-x="334" 
d="M167 731q57 0 92.5 -23t35.5 -74q0 -35 -16 -55.5t-42 -28.5q33 -11 52.5 -35.5t19.5 -66.5v-7q0 -30 -11 -51.5t-30 -35t-45 -20t-56 -6.5t-56 6.5t-45.5 20t-30.5 35t-11 51.5v7q0 42 20 66.5t52 35.5q-26 8 -42 28.5t-16 55.5q0 51 36 74t93 23zM223 463
q0 27 -15 39.5t-41 12.5q-27 0 -42 -12.5t-15 -39.5v-12q0 -28 15.5 -41.5t41.5 -13.5q56 0 56 55v12zM167 663q-46 0 -46 -40q0 -21 12 -30t34 -9t33.5 9t11.5 30q0 40 -45 40z" />
    <glyph glyph-name="ninesuperior" unicode="&#x2079;" horiz-adv-x="344" 
d="M150 482q-25 0 -47.5 5.5t-39 19t-26.5 35.5t-10 55v6q0 35 11 59.5t30 39.5t45 22t56 7t56 -7t45.5 -22.5t30.5 -40t11 -59.5v-145q0 -35 -11.5 -59.5t-31 -40t-47 -22.5t-58.5 -7q-36 0 -62 10t-42.5 25t-24.5 33t-8 35q0 20 10 27t30 7q18 0 31.5 -5.5t13.5 -25.5
q0 -16 16 -23.5t39 -7.5q28 0 43.5 13t15.5 41v49q-14 -14 -33.5 -19t-42.5 -5zM226 608q0 29 -15 41.5t-42 12.5q-26 0 -41 -12.5t-15 -41.5v-6q0 -29 15 -41.5t42 -12.5q25 0 40.5 11.5t15.5 38.5v10z" />
    <glyph glyph-name="zeroinferior" unicode="&#x2080;" horiz-adv-x="349" 
d="M175 -3q-30 0 -56.5 7t-45.5 22t-30 39.5t-11 60.5v145q0 35 11 59.5t30 40t45.5 22.5t56.5 7t56 -7t45 -22.5t30 -40t11 -59.5v-145q0 -36 -11 -60.5t-30 -39.5t-45 -22t-56 -7zM232 271q0 28 -15.5 41t-41.5 13t-41 -13t-15 -41v-145q0 -28 15 -41t41 -13t41.5 13
t15.5 41v145z" />
    <glyph glyph-name="oneinferior" unicode="&#x2081;" horiz-adv-x="192" 
d="M66 304l-17 -10q-8 -3 -15 -3q-12 0 -19.5 10.5t-7.5 22.5q0 20 15 29l76 44q7 4 16 4q14 0 26.5 -7t12.5 -20v-348q0 -13 -13.5 -19.5t-29.5 -6.5q-17 0 -30.5 6.5t-13.5 19.5v278z" />
    <glyph glyph-name="twoinferior" unicode="&#x2082;" horiz-adv-x="322" 
d="M31 295q0 25 11 44.5t29.5 33t42 20.5t48.5 7q26 0 50.5 -7.5t43.5 -22t30.5 -35.5t11.5 -49q0 -29 -13.5 -51.5t-34 -41t-44.5 -33.5t-44.5 -28t-34 -24.5t-13.5 -23.5v-9h158q11 0 18.5 -11t7.5 -26t-7.5 -26.5t-18.5 -11.5h-210q-12 0 -25 7t-13 19v54q0 21 14 39.5
t35 35.5t45 33t45 31.5t35 31.5t14 33q0 13 -11.5 25.5t-37.5 12.5q-20 0 -33.5 -9t-13.5 -32q0 -11 -12.5 -21t-33.5 -10q-17 0 -28 9.5t-11 35.5z" />
    <glyph glyph-name="threeinferior" unicode="&#x2083;" horiz-adv-x="329" 
d="M161 72q32 0 45 11t13 37v11q0 27 -17 35t-43 8q-15 0 -20.5 10t-5.5 23q0 12 5.5 22.5t20.5 11.5q9 0 18 1.5t16 6t11 13.5t4 25q0 24 -13.5 31.5t-33.5 7.5q-25 0 -36.5 -6t-11.5 -22q0 -14 -8 -22t-32 -8q-29 0 -36.5 6.5t-7.5 26.5q0 16 6.5 34t21.5 32t40.5 23.5
t63.5 9.5q28 0 51.5 -5t40.5 -16.5t27 -30.5t10 -47q0 -30 -11.5 -55t-34.5 -35q27 -9 43.5 -28t16.5 -52v-11q0 -33 -11.5 -56.5t-31 -38.5t-46.5 -21.5t-57 -6.5q-37 0 -63.5 10t-43 25t-24 33t-7.5 35q0 19 8.5 25t31.5 6q27 0 35.5 -6t8.5 -22q0 -18 17 -24.5t40 -6.5z
" />
    <glyph glyph-name="fourinferior" unicode="&#x2084;" horiz-adv-x="317" 
d="M172 84h-140q-12 0 -20 7.5t-8 22.5q0 8 4 16l138 248q7 11 16.5 16.5t19.5 5.5q6 0 13 -2.5t14 -6.5t11.5 -10t4.5 -13t-3 -11l-108 -194h58v38q0 14 13.5 20t29.5 6q17 0 30.5 -6t13.5 -20v-38h26q14 0 20 -12t6 -27t-8 -27.5t-18 -12.5h-26v-58q0 -13 -13.5 -19.5
t-30.5 -6.5q-16 0 -29.5 6.5t-13.5 19.5v58z" />
    <glyph glyph-name="fiveinferior" unicode="&#x2085;" horiz-adv-x="323" 
d="M160 253q30 0 56 -6.5t45 -20.5t30 -37t11 -56v-10q0 -35 -11 -59t-30 -39t-45 -21.5t-55 -6.5q-35 0 -62 8.5t-45 23t-27 32.5t-9 37q0 23 11 31t31 8q29 0 36.5 -9.5t7.5 -23.5q0 -16 14.5 -24t39.5 -8q27 0 42.5 12t15.5 39v10q0 27 -15 40t-41 13h-89
q-20 0 -26.5 9.5t-6.5 24.5v9t1 10l14 134q3 27 17 27h185q14 0 20 -11.5t6 -25.5t-6 -26t-20 -12h-130l-7 -72h42z" />
    <glyph glyph-name="sixinferior" unicode="&#x2086;" horiz-adv-x="344" 
d="M194 246q25 0 47.5 -5.5t39 -19t26.5 -35.5t10 -55v-6q0 -35 -11 -59.5t-30 -39.5t-45 -22t-56 -7q-31 0 -57 7t-45 22.5t-30 40t-11 59.5v145q0 35 11.5 59.5t31 40t46.5 22.5t58 7q37 0 63.5 -10t43 -25t24 -33t7.5 -35q0 -20 -9.5 -27.5t-30.5 -7.5q-17 0 -31 6
t-14 26q0 16 -16 23.5t-39 7.5q-58 0 -58 -54v-49q14 14 33.5 19t41.5 5zM119 120q0 -29 14.5 -41.5t41.5 -12.5q56 0 56 53v6q0 30 -14.5 42.5t-42.5 12.5q-26 0 -40.5 -11.5t-14.5 -38.5v-10z" />
    <glyph glyph-name="seveninferior" unicode="&#x2087;" horiz-adv-x="314" 
d="M301 305q0 -11 -5 -26t-12 -26l-143 -245q-6 -11 -25 -11q-20 0 -37 12t-17 31q0 8 3 14l150 233v38h-113v-36q0 -11 -13 -19t-30 -8q-18 0 -30.5 8t-12.5 19v84q0 10 12 18.5t26 8.5h209q13 0 25.5 -8.5t12.5 -18.5v-68z" />
    <glyph glyph-name="eightinferior" unicode="&#x2088;" horiz-adv-x="335" 
d="M168 400q57 0 92.5 -23t35.5 -75q0 -34 -16 -54.5t-42 -28.5q33 -11 52.5 -36t19.5 -67v-7q0 -30 -11 -51.5t-30 -35t-45 -19.5t-56 -6t-56 6t-45.5 19.5t-30.5 35t-11 51.5v7q0 42 20 67t52 36q-26 8 -42 28.5t-16 54.5q0 52 36 75t93 23zM224 132q0 26 -15 38.5
t-41 12.5q-27 0 -42 -12.5t-15 -38.5v-12q0 -29 15.5 -42t41.5 -13q56 0 56 55v12zM168 331q-46 0 -46 -40q0 -21 12 -30t34 -9t33.5 9t11.5 30q0 40 -45 40z" />
    <glyph glyph-name="nineinferior" unicode="&#x2089;" horiz-adv-x="344" 
d="M150 151q-25 0 -47.5 5.5t-39 19t-26.5 35.5t-10 55v6q0 35 11 59.5t30 39.5t45 22t56 7t56 -7t45.5 -22.5t30.5 -40t11 -59.5v-145q0 -36 -11.5 -60.5t-31 -39.5t-47 -22t-58.5 -7q-36 0 -62 9.5t-42.5 24.5t-24.5 33t-8 35q0 20 10 27.5t30 7.5q18 0 31.5 -6t13.5 -25
q0 -16 16 -23.5t39 -7.5q28 0 43.5 13t15.5 41v49q-14 -15 -33.5 -19.5t-42.5 -4.5zM226 276q0 29 -15 42t-42 13q-26 0 -41 -13t-15 -42v-5q0 -29 15 -41.5t42 -12.5q25 0 40.5 11.5t15.5 38.5v9z" />
    <glyph glyph-name="Euro" unicode="&#x20ac;" horiz-adv-x="616" 
d="M241 209q0 -13 4 -30.5t16 -33t33 -26.5t54 -11q30 0 50 9.5t31.5 25t16 34.5t4.5 38q0 21 15.5 29.5t49.5 8.5q35 0 50 -11.5t15 -48.5q0 -46 -18 -83t-49.5 -62.5t-75.5 -39.5t-95 -14q-55 0 -98 15.5t-72.5 44t-45 68t-15.5 87.5v17h-46q-18 0 -29.5 12.5t-11.5 32.5
t11.5 33.5t29.5 13.5h46v70h-46q-18 0 -29.5 12.5t-11.5 32.5t11.5 33.5t29.5 13.5h46v22q0 63 18 106.5t49.5 70.5t73.5 39.5t90 12.5q51 0 95 -13t75.5 -38t49.5 -60.5t18 -80.5q0 -36 -15.5 -47.5t-49.5 -11.5q-35 0 -50 9t-15 29q0 15 -4 32t-15.5 32t-31.5 25t-52 10
q-51 0 -78.5 -28t-27.5 -87v-22h94q16 0 29 -13.5t13 -33.5t-13 -32.5t-29 -12.5h-94v-70h94q16 0 29 -13.5t13 -32.5q0 -20 -13 -33t-29 -13h-94v-17z" />
    <glyph glyph-name="trademark" unicode="&#x2122;" horiz-adv-x="673" 
d="M278 768q12 0 17 -10.5t5 -22.5q0 -13 -5.5 -23t-16.5 -10h-72v-203q0 -12 -11 -18t-24 -6q-14 0 -25.5 6t-11.5 18v203h-72q-11 0 -16.5 10t-5.5 23q0 12 5 22.5t17 10.5h216zM492 508q-8 -15 -24 -15q-7 0 -12.5 3t-10.5 12l-54 118v-127q0 -12 -11 -18t-25 -6
q-13 0 -24 6t-11 18v233q0 20 11 28t24 8q20 0 31 -6.5t24 -32.5l59 -122l59 122q13 26 24 32.5t31 6.5q14 0 24.5 -8t10.5 -28v-233q0 -12 -11 -18t-24 -6q-14 0 -25 6t-11 18v123z" />
    <glyph glyph-name="Omega" unicode="&#x2126;" horiz-adv-x="574" 
d="M319 238q72 15 72 110v154q0 60 -27.5 87.5t-76.5 27.5q-50 0 -77.5 -27.5t-27.5 -87.5v-154q0 -50 18.5 -79t53.5 -31v-238h-173q-18 0 -29 16.5t-11 40.5q0 26 11.5 41t28.5 15h99v18q-57 21 -92 73t-35 144v154q0 63 18 106.5t49.5 70.5t74 39.5t92.5 12.5
q49 0 92 -12.5t74.5 -39.5t49.5 -70.5t18 -106.5v-154q0 -92 -36 -144.5t-92 -72.5v-18h99q17 0 29 -15t12 -41q0 -24 -11.5 -40.5t-29.5 -16.5h-173v238z" />
    <glyph glyph-name="estimated" unicode="&#x212e;" horiz-adv-x="557" 
d="M287 481q47 0 90 -14t75.5 -38.5t52 -59t19.5 -76.5q0 -29 -8 -45t-21.5 -24t-30.5 -10t-34 -2h-231v-15q0 -27 4.5 -49t16.5 -37.5t33.5 -24t55.5 -8.5q48 0 77.5 8.5t47.5 18t27.5 18t18.5 8.5q7 0 14 -6t11.5 -15t7.5 -19t3 -17q0 -13 -14.5 -27.5t-41.5 -27
t-65 -20.5t-85 -8q-60 0 -110.5 16.5t-87 46.5t-56.5 72t-20 93v39q0 45 19.5 85.5t53.5 71t80 48.5t98 18zM341 272q16 0 22.5 5t6.5 22q0 58 -22 81.5t-63 23.5q-40 0 -63 -22.5t-23 -81.5v-28h142z" />
    <glyph glyph-name="onethird" unicode="&#x2153;" horiz-adv-x="670" 
d="M502 72q32 0 45 11t13 37v11q0 27 -17 35t-43 8q-15 0 -20.5 10t-5.5 23q0 12 5.5 22.5t20.5 11.5q9 0 18 1.5t16 6t11 13.5t4 25q0 24 -13.5 31.5t-33.5 7.5q-25 0 -36.5 -6t-11.5 -22q0 -14 -8 -22t-32 -8q-29 0 -36.5 6.5t-7.5 26.5q0 16 6.5 34t21.5 32t40.5 23.5
t63.5 9.5q28 0 51.5 -5t40.5 -16.5t27 -30.5t10 -47q0 -30 -11.5 -55t-34.5 -35q27 -9 43.5 -28t16.5 -52v-11q0 -33 -11.5 -56.5t-31 -38.5t-46.5 -21.5t-57 -6.5q-37 0 -63.5 10t-43 25t-24 33t-7.5 35q0 19 8.5 25t31.5 6q27 0 35.5 -6t8.5 -22q0 -18 17 -24.5t40 -6.5z
M81 636l-17 -10q-7 -4 -15 -4q-12 0 -19.5 10.5t-7.5 22.5q0 21 15 30l76 44q4 2 7.5 3t8.5 1q14 0 26.5 -7.5t12.5 -20.5v-347q0 -14 -13.5 -20.5t-29.5 -6.5q-17 0 -30.5 6.5t-13.5 20.5v278zM459 771q17 0 33.5 -12.5t16.5 -32.5q0 -10 -4 -18l-360 -726
q-5 -11 -15.5 -16.5t-23.5 -5.5q-21 0 -34 14t-13 30q0 7 4 17l360 729q5 11 15 16t21 5z" />
    <glyph glyph-name="twothirds" unicode="&#x2154;" horiz-adv-x="782" 
d="M616 72q32 0 45 11t13 37v11q0 27 -17 35t-43 8q-15 0 -20.5 10t-5.5 23q0 12 5.5 22.5t20.5 11.5q9 0 18 1.5t16 6t11 13.5t4 25q0 24 -13.5 31.5t-33.5 7.5q-25 0 -36.5 -6t-11.5 -22q0 -14 -8 -22t-32 -8q-29 0 -36.5 6.5t-7.5 26.5q0 16 6.5 34t21.5 32t40.5 23.5
t63.5 9.5q28 0 51.5 -5t40.5 -16.5t27 -30.5t10 -47q0 -30 -11.5 -55t-34.5 -35q27 -9 43.5 -28t16.5 -52v-11q0 -33 -11.5 -56.5t-31 -38.5t-46.5 -21.5t-57 -6.5q-37 0 -63.5 10t-43 25t-24 33t-7.5 35q0 19 8.5 25t31.5 6q27 0 35.5 -6t8.5 -22q0 -18 17 -24.5t40 -6.5z
M33 626q0 25 11 44.5t29.5 33t42 20.5t48.5 7q26 0 50.5 -7.5t43.5 -21.5t30.5 -35.5t11.5 -48.5q0 -29 -13.5 -52t-34 -41.5t-44.5 -33t-44.5 -27.5t-34 -24.5t-13.5 -23.5v-10h158q11 0 18.5 -11t7.5 -26q0 -14 -7.5 -26t-18.5 -12h-210q-12 0 -25 7.5t-13 19.5v53
q0 21 14 39.5t35 35.5t45 33t45 31.5t35 31.5t14 33q0 13 -11.5 26t-37.5 13q-20 0 -33.5 -9.5t-13.5 -31.5q0 -12 -12.5 -21.5t-33.5 -9.5q-17 0 -28 9t-11 35zM582 771q17 0 33.5 -12.5t16.5 -32.5q0 -10 -4 -18l-360 -726q-5 -11 -15.5 -16.5t-23.5 -5.5q-21 0 -34 14
t-13 30q0 7 4 17l360 729q5 11 15 16t21 5z" />
    <glyph glyph-name="oneeighth" unicode="&#x215b;" horiz-adv-x="669" 
d="M81 636l-17 -10q-7 -4 -15 -4q-12 0 -19.5 10.5t-7.5 22.5q0 21 15 30l76 44q4 2 7.5 3t8.5 1q14 0 26.5 -7.5t12.5 -20.5v-347q0 -14 -13.5 -20.5t-29.5 -6.5q-17 0 -30.5 6.5t-13.5 20.5v278zM502 400q57 0 92.5 -23t35.5 -75q0 -34 -16 -54.5t-42 -28.5
q33 -11 52.5 -36t19.5 -67v-7q0 -30 -11 -51.5t-30 -35t-45 -19.5t-56 -6t-56 6t-45.5 19.5t-30.5 35t-11 51.5v7q0 42 20 67t52 36q-26 8 -42 28.5t-16 54.5q0 52 36 75t93 23zM558 132q0 26 -15 38.5t-41 12.5q-27 0 -42 -12.5t-15 -38.5v-12q0 -29 15.5 -42t41.5 -13
q56 0 56 55v12zM502 331q-46 0 -46 -40q0 -21 12 -30t34 -9t33.5 9t11.5 30q0 40 -45 40zM459 771q17 0 33.5 -12.5t16.5 -32.5q0 -10 -4 -18l-360 -726q-5 -11 -15.5 -16.5t-23.5 -5.5q-21 0 -34 14t-13 30q0 7 4 17l360 729q5 11 15 16t21 5z" />
    <glyph glyph-name="threeeighths" unicode="&#x215c;" horiz-adv-x="790" 
d="M164 403q32 0 45 11.5t13 37.5v10q0 28 -17 35.5t-43 7.5q-15 0 -20.5 10.5t-5.5 22.5q0 13 5.5 23t20.5 11q9 0 18 1.5t16 6t11 13.5t4 25q0 24 -13.5 32t-33.5 8q-25 0 -36.5 -6t-11.5 -22q0 -14 -8 -22.5t-32 -8.5q-29 0 -36.5 7t-7.5 27q0 16 6.5 33.5t21.5 31.5
t40.5 23.5t63.5 9.5q28 0 51.5 -5t40.5 -16.5t27 -30.5t10 -47q0 -30 -11.5 -55t-34.5 -35q27 -9 43.5 -28t16.5 -52v-10q0 -34 -11.5 -57.5t-31 -38.5t-46.5 -21.5t-57 -6.5q-37 0 -63.5 10t-43 25t-24 33.5t-7.5 35.5q0 19 8.5 25t31.5 6q27 0 35.5 -6.5t8.5 -21.5
q0 -18 17 -25t40 -7zM624 400q57 0 92.5 -23t35.5 -75q0 -34 -16 -54.5t-42 -28.5q33 -11 52.5 -36t19.5 -67v-7q0 -30 -11 -51.5t-30 -35t-45 -19.5t-56 -6t-56 6t-45.5 19.5t-30.5 35t-11 51.5v7q0 42 20 67t52 36q-26 8 -42 28.5t-16 54.5q0 52 36 75t93 23zM680 132
q0 26 -15 38.5t-41 12.5q-27 0 -42 -12.5t-15 -38.5v-12q0 -29 15.5 -42t41.5 -13q56 0 56 55v12zM624 331q-46 0 -46 -40q0 -21 12 -30t34 -9t33.5 9t11.5 30q0 40 -45 40zM580 771q17 0 33.5 -12.5t16.5 -32.5q0 -10 -4 -18l-360 -726q-5 -11 -15.5 -16.5t-23.5 -5.5
q-21 0 -34 14t-13 30q0 7 4 17l360 729q5 11 15 16t21 5z" />
    <glyph glyph-name="fiveeighths" unicode="&#x215d;" horiz-adv-x="790" 
d="M623 400q57 0 92.5 -23t35.5 -75q0 -34 -16 -54.5t-42 -28.5q33 -11 52.5 -36t19.5 -67v-7q0 -30 -11 -51.5t-30 -35t-45 -19.5t-56 -6t-56 6t-45.5 19.5t-30.5 35t-11 51.5v7q0 42 20 67t52 36q-26 8 -42 28.5t-16 54.5q0 52 36 75t93 23zM679 132q0 26 -15 38.5
t-41 12.5q-27 0 -42 -12.5t-15 -38.5v-12q0 -29 15.5 -42t41.5 -13q56 0 56 55v12zM623 331q-46 0 -46 -40q0 -21 12 -30t34 -9t33.5 9t11.5 30q0 40 -45 40zM579 771q17 0 33.5 -12.5t16.5 -32.5q0 -10 -4 -18l-360 -726q-5 -11 -15.5 -16.5t-23.5 -5.5q-21 0 -34 14
t-13 30q0 7 4 17l360 729q5 11 15 16t21 5zM164 584q30 0 56 -6.5t45 -20.5t30 -36.5t11 -55.5v-11q0 -34 -11 -58t-30 -39t-45 -22t-55 -7q-35 0 -62 8.5t-45 23t-27 32.5t-9 37q0 23 11 31t31 8q29 0 36.5 -9t7.5 -23q0 -16 14.5 -24.5t39.5 -8.5q27 0 42.5 12t15.5 39v11
q0 26 -15 39t-41 13h-89q-20 0 -26.5 9.5t-6.5 24.5v9t1 10l14 135q3 26 17 26h185q14 0 20 -11.5t6 -25.5t-6 -26t-20 -12h-130l-7 -72h42z" />
    <glyph glyph-name="seveneighths" unicode="&#x215e;" horiz-adv-x="789" 
d="M623 400q57 0 92.5 -23t35.5 -75q0 -34 -16 -54.5t-42 -28.5q33 -11 52.5 -36t19.5 -67v-7q0 -30 -11 -51.5t-30 -35t-45 -19.5t-56 -6t-56 6t-45.5 19.5t-30.5 35t-11 51.5v7q0 42 20 67t52 36q-26 8 -42 28.5t-16 54.5q0 52 36 75t93 23zM679 132q0 26 -15 38.5
t-41 12.5q-27 0 -42 -12.5t-15 -38.5v-12q0 -29 15.5 -42t41.5 -13q56 0 56 55v12zM623 331q-46 0 -46 -40q0 -21 12 -30t34 -9t33.5 9t11.5 30q0 40 -45 40zM529 771q17 0 33.5 -12.5t16.5 -32.5q0 -10 -4 -18l-360 -726q-5 -11 -15.5 -16.5t-23.5 -5.5q-21 0 -34 14
t-13 30q0 7 4 17l360 729q5 11 15 16t21 5zM307 636q0 -11 -5 -25.5t-12 -26.5l-143 -244q-6 -12 -25 -12q-20 0 -37 12.5t-17 30.5q0 8 3 14l150 233v38h-113v-36q0 -11 -13 -18.5t-30 -7.5q-18 0 -30.5 7.5t-12.5 18.5v85q0 10 12 18t26 8h209q13 0 25.5 -8t12.5 -18v-69z
" />
    <glyph glyph-name="arrowleft" unicode="&#x2190;" horiz-adv-x="771" 
d="M309 477q22 0 41 -19t19 -42q0 -15 -10 -25l-97 -97h399q18 0 29 -15.5t11 -38.5q0 -24 -11 -38.5t-29 -14.5h-399l97 -97q10 -10 10 -25q0 -23 -19 -42t-41 -19q-16 0 -26 10l-196 196q-17 17 -17 30q0 14 17 31l196 196q12 10 26 10z" />
    <glyph glyph-name="arrowup" unicode="&#x2191;" horiz-adv-x="771" 
d="M149 317q0 16 10 26l196 196q15 15 31 17q13 0 30 -17l196 -196q10 -12 10 -26q0 -22 -19 -41t-42 -19q-15 0 -25 10l-97 97v-399q0 -18 -14.5 -29t-38.5 -11q-23 0 -38.5 11t-15.5 29v399l-97 -97q-10 -10 -25 -10q-23 0 -42 19t-19 41z" />
    <glyph glyph-name="arrowright" unicode="&#x2192;" horiz-adv-x="771" 
d="M462 477q14 0 26 -10l196 -196q8 -9 12.5 -16t4.5 -15q0 -13 -17 -30l-196 -196q-10 -10 -26 -10q-22 0 -41 19t-19 42q0 15 10 25l97 97h-399q-18 0 -29 14.5t-11 38.5q0 23 11 38.5t29 15.5h399l-97 97q-10 10 -10 25q0 23 19 42t41 19z" />
    <glyph glyph-name="arrowdown" unicode="&#x2193;" horiz-adv-x="771" 
d="M149 164q0 22 19 41t42 19q15 0 25 -10l97 -97v399q0 18 15.5 29t38.5 11q24 0 38.5 -11t14.5 -29v-399l97 97q10 10 25 10q23 0 42 -19t19 -41q0 -14 -10 -26l-196 -196q-17 -17 -30 -17q-16 2 -31 17l-196 196q-10 10 -10 26z" />
    <glyph glyph-name="partialdiff" unicode="&#x2202;" horiz-adv-x="515" 
d="M342 405q-6 121 -38.5 176t-103.5 55q-20 0 -34.5 -4t-26.5 -8.5t-21.5 -8t-17.5 -3.5q-11 0 -20 8.5t-15 19.5t-9.5 22.5t-3.5 17.5q0 11 13 22.5t34.5 21.5t50 16t60.5 6q49 0 96 -19t83.5 -64t59 -119.5t22.5 -185.5v-155q0 -41 -17.5 -79t-47.5 -67.5t-69.5 -47.5
t-84.5 -18q-43 0 -82.5 17t-69.5 45.5t-48 65.5t-18 77v84q0 42 14 78.5t38 64.5t56.5 44t68.5 16q46 0 81 -23t50 -55zM163 196q0 -18 7 -34.5t19.5 -29t29 -20.5t34.5 -8t34.5 8t28.5 20.5t19 29t7 34.5v85q0 19 -8 35.5t-20.5 28.5t-29 18.5t-33.5 6.5q-18 0 -34 -7.5
t-28 -20.5t-19 -29t-7 -33v-84z" />
    <glyph glyph-name="Delta" unicode="&#x2206;" horiz-adv-x="591" 
d="M565 74q5 -13 5 -29q0 -20 -13 -32.5t-42 -12.5h-439q-29 0 -42 12.5t-13 32.5q0 16 5 29l185 615q7 22 28.5 35t56.5 13q34 0 55.5 -13t28.5 -35zM421 114l-125 462l-126 -462h251z" />
    <glyph glyph-name="product" unicode="&#x220f;" horiz-adv-x="589" 
d="M472 731q21 0 39 -10.5t18 -30.5v-650q0 -21 -20.5 -30.5t-44.5 -9.5q-25 0 -45 9.5t-20 30.5v577h-210v-577q0 -21 -20 -30.5t-45 -9.5q-24 0 -44 9.5t-20 30.5v650q0 20 17.5 30.5t39.5 10.5h355z" />
    <glyph glyph-name="summation" unicode="&#x2211;" horiz-adv-x="519" 
d="M38 628q-5 10 -10 24.5t-5 29.5q0 19 12 34t43 15h377q20 0 30.5 -18.5t10.5 -38.5t-10.5 -38.5t-30.5 -18.5h-272l148 -268q17 -29 28 -52.5t11 -44.5t-11 -44.5t-28 -52.5l-148 -268h272q20 0 30.5 -18.5t10.5 -38.5t-10.5 -38.5t-30.5 -18.5h-377q-31 0 -43 15t-12 34
q0 15 5 29.5t10 24.5l203 376z" />
    <glyph glyph-name="minus" unicode="&#x2212;" horiz-adv-x="493" 
d="M46 284q0 23 11 38.5t29 15.5h320q16 0 29 -15.5t13 -38.5q0 -24 -13 -38.5t-29 -14.5h-320q-18 0 -29 14.5t-11 38.5z" />
    <glyph glyph-name="radical" unicode="&#x221a;" horiz-adv-x="686" 
d="M1 390q0 23 11 38.5t29 15.5h105q17 0 26.5 -14.5t14.5 -31.5l78 -280l171 620q3 12 13.5 21t23.5 9h176q16 0 29 -15.5t13 -38.5q0 -24 -13 -38.5t-29 -14.5h-101l-199 -652q-7 -23 -31 -33.5t-53 -10.5q-28 0 -52 10.5t-32 33.5l-109 328h-31q-18 0 -29 14.5t-11 38.5z
" />
    <glyph glyph-name="infinity" unicode="&#x221e;" horiz-adv-x="900" 
d="M252 440q55 0 108.5 -31.5t88.5 -87.5q35 56 88.5 87.5t109.5 31.5q42 0 80.5 -13t68 -38.5t47.5 -63.5t18 -89t-18 -89.5t-47.5 -64t-68.5 -38t-81 -12.5q-55 0 -108.5 31t-88.5 87q-35 -56 -88.5 -87t-108.5 -31q-41 0 -79.5 12.5t-68 38t-47.5 64t-18 89.5t18 89
t47.5 63.5t68 38.5t79.5 13zM494 236q25 -50 68.5 -74t83.5 -24q20 0 38.5 6t32.5 18t22 30.5t8 43.5t-8 43.5t-22 30.5t-32.5 18t-38.5 6q-40 0 -83.5 -24t-68.5 -74zM406 236q-25 50 -68.5 74t-84.5 24q-40 0 -70 -24t-30 -74t30 -74t70 -24q41 0 84.5 24t68.5 74z" />
    <glyph glyph-name="integral" unicode="&#x222b;" horiz-adv-x="357" 
d="M319 748q13 0 26.5 -13t13.5 -35q0 -16 -9 -33.5t-31 -17.5q-42 0 -58.5 -18.5t-16.5 -61.5v-586q0 -34 -8.5 -67t-30 -58.5t-59.5 -41.5t-97 -16q-22 0 -36 14.5t-14 34.5t11 36.5t33 16.5q36 0 53.5 18.5t17.5 61.5v592q0 36 9.5 68t33 55.5t63 37t99.5 13.5z" />
    <glyph glyph-name="approxequal" unicode="&#x2248;" horiz-adv-x="446" 
d="M167 349q-16 0 -27.5 -4t-21 -8.5t-17.5 -8t-16 -3.5q-10 0 -16.5 5.5t-10 13t-5 15t-1.5 11.5q0 24 10.5 38.5t24.5 22t28.5 9.5t22.5 2q22 0 39.5 -4.5t33.5 -10t32.5 -10t36.5 -4.5q16 0 28 3.5t21 8t17 8t16 3.5q9 0 15.5 -5.5t10 -13t5 -15t1.5 -11.5
q0 -24 -10 -38.5t-24 -21.5t-28 -9t-22 -2q-25 0 -43.5 4.5t-34 10t-31 10t-34.5 4.5zM167 142q-16 0 -27.5 -4t-21 -8.5t-17.5 -8t-16 -3.5q-10 0 -16.5 5.5t-10 13t-5 15t-1.5 11.5q0 24 10.5 38t24.5 21.5t28.5 9.5t22.5 2q22 0 39.5 -4.5t33.5 -10t32.5 -10t36.5 -4.5
q16 0 28 3.5t21 8l17 8.5t16 4q9 0 15.5 -5.5t10 -13t5 -15t1.5 -11.5q0 -25 -10 -39t-24 -21t-28 -9t-22 -2q-25 0 -43.5 4.5t-34 10t-31 10t-34.5 4.5z" />
    <glyph glyph-name="notequal" unicode="&#x2260;" horiz-adv-x="500" 
d="M370 401h55q15 0 28 -15.5t13 -38.5q0 -24 -13 -38.5t-28 -14.5h-119l-53 -96h172q15 0 28 -15.5t13 -38.5q0 -24 -13 -38.5t-28 -14.5h-237l-56 -102q-6 -11 -19 -11q-12 0 -23.5 9t-11.5 22q0 6 5 14l35 68h-43q-18 0 -29 14.5t-11 38.5q0 23 11 38.5t29 15.5h106
l52 96h-158q-18 0 -29 14.5t-11 38.5q0 23 11 38.5t29 15.5h222l68 123q7 11 21 11q13 0 25 -9.5t12 -23.5q0 -4 -1 -7t-3 -7z" />
    <glyph glyph-name="lessequal" unicode="&#x2264;" horiz-adv-x="442" 
d="M372 273q11 -5 16.5 -14t5.5 -20q0 -22 -17.5 -42t-39.5 -20q-9 0 -17 4l-258 132q-16 8 -21.5 22.5t-5.5 25.5t5.5 25.5t21.5 22.5l258 131q10 5 17 5q11 0 21 -6t18 -15t13 -20t5 -21q0 -11 -5.5 -20t-16.5 -14l-187 -88zM35 84q0 23 11.5 38.5t29.5 15.5h277
q16 0 28.5 -15.5t12.5 -38.5q0 -24 -12.5 -38.5t-28.5 -14.5h-277q-18 0 -29.5 14.5t-11.5 38.5z" />
    <glyph glyph-name="greaterequal" unicode="&#x2265;" horiz-adv-x="442" 
d="M257 361l-187 88q-11 5 -16.5 14t-5.5 20q0 10 5 21t13 20t18 15t21 6q9 0 17 -5l258 -131q16 -8 21.5 -22.5t5.5 -25.5t-5.5 -25.5t-21.5 -22.5l-258 -132q-7 -4 -17 -4q-22 0 -39.5 20t-17.5 42q0 11 5.5 20t16.5 14zM407 84q0 -24 -11.5 -38.5t-29.5 -14.5h-277
q-16 0 -28.5 14.5t-12.5 38.5q0 23 12.5 38.5t28.5 15.5h277q18 0 29.5 -15.5t11.5 -38.5z" />
    <glyph glyph-name="lozenge" unicode="&#x25ca;" horiz-adv-x="514" 
d="M455 463q16 -29 27 -52.5t11 -44.5q0 -22 -11 -45t-27 -52l-137 -245q-8 -15 -24.5 -23t-36.5 -8t-36.5 7.5t-25.5 23.5l-136 245q-16 29 -27 52t-11 45q0 21 11 44.5t27 52.5l136 245q8 15 25 23t37 8t36.5 -8.5t24.5 -22.5zM138 366l119 -222l119 222l-119 229z" />
    <glyph glyph-name="commaaccent" unicode="&#xf6c3;" horiz-adv-x="246" 
d="M71 -190q-4 -2 -7 -3t-7 -1q-17 0 -28.5 16t-11.5 33q0 21 17 30l132 64q7 3 13 3q17 0 28.5 -16t11.5 -33q0 -10 -4 -18t-14 -13z" />
    <glyph glyph-name="a.ss01" horiz-adv-x="493" 
d="M217 481q54 0 93.5 -16.5t65 -43.5t37.5 -62.5t12 -72.5v-119q0 -19 3 -30.5t7.5 -17.5t10.5 -8.5t13 -3.5q17 -3 23.5 -14t6.5 -36q0 -39 -18.5 -52.5t-42.5 -13.5q-45 0 -76.5 22t-36.5 57q-28 -32 -68 -55.5t-91 -23.5q-27 0 -51.5 8t-42.5 24t-29 41t-11 60
q0 43 17 71.5t48 45t74 23t94 6.5h41v14q0 16 -4 32.5t-14.5 29.5t-29 21.5t-47.5 8.5q-24 0 -40.5 -5t-28.5 -10.5t-21 -10.5t-18 -5q-11 0 -19 6.5t-13 15.5t-8 19.5t-3 18.5q0 18 15 32.5t39 24t54 14.5t59 5zM296 204h-15q-26 0 -49.5 -2t-41.5 -8.5t-28.5 -19.5
t-10.5 -34q0 -27 15 -40t35 -13q17 0 34 8t30.5 21.5t22 31t8.5 35.5v21z" />
    <glyph glyph-name="b.ss02" horiz-adv-x="513" 
d="M481 196q0 -39 -16.5 -75.5t-46 -65.5t-69.5 -46.5t-87 -17.5q-43 0 -82 15.5t-69 42t-47.5 63t-17.5 78.5v522q0 18 17.5 29t45.5 11t47 -11t19 -29v-307q16 29 48.5 52.5t79.5 23.5q37 0 69.5 -16t56.5 -44t38 -64.5t14 -78.5v-82zM352 278q0 17 -7 33t-19 29t-28 20.5
t-34 7.5q-16 0 -32 -6t-28.5 -18t-20.5 -28.5t-8 -37.5v-86q0 -38 25.5 -63t61.5 -25q21 0 38 8.5t28.5 21.5t17.5 29.5t6 32.5v82z" />
    <glyph glyph-name="caron.alt" horiz-adv-x="135" 
d="M67 741q28 0 48 -20t20 -47q0 -5 -1.5 -12.5t-7.5 -23t-17 -42t-29 -69.5q-5 -9 -12 -12.5t-15 -3.5q-14 0 -28.5 8.5t-14.5 25.5q0 7 4 14l23 53q-17 9 -27 25t-10 36q0 28 19.5 48t47.5 20z" />
    <glyph glyph-name="g.ss03" horiz-adv-x="520" 
d="M407 475q26 0 44 -11t18 -29v-444q0 -45 -15 -86.5t-46.5 -73t-80.5 -50t-118 -18.5q-29 0 -59.5 4.5t-55.5 14t-40.5 26t-15.5 40.5q0 25 14 42.5t32 17.5q10 0 22 -5t27.5 -11.5t36 -11.5t47.5 -5q40 0 64.5 12.5t37.5 32t17 42t4 42.5v74q-15 -31 -51 -55t-81 -24
q-35 0 -66.5 17t-55.5 45.5t-38.5 65.5t-14.5 77v74q0 42 14 78.5t38 64.5t57 44t71 16q48 0 82.5 -23.5t51.5 -52.5v30q0 18 17 29t43 11zM162 204q0 -18 7.5 -34.5t19.5 -29t28 -20.5t34 -8q19 0 35.5 8.5t28.5 20.5t18.5 24.5t6.5 20.5v92q0 21 -7.5 37.5t-20 28.5
t-28 18t-31.5 6q-19 0 -35.5 -7.5t-29 -20.5t-19.5 -29t-7 -33v-74z" />
    <glyph glyph-name="m.ss04" horiz-adv-x="803" 
d="M564 481q39 0 74 -16t61.5 -43.5t42 -64.5t15.5 -79v-237q0 -17 -18 -29t-47 -12q-26 0 -45 12t-19 29v237q0 38 -24.5 64t-56.5 26q-16 0 -30.5 -7.5t-26 -19.5t-18 -28.5t-6.5 -34.5v-238q0 -17 -18 -28.5t-46 -11.5q-26 0 -45.5 11.5t-19.5 28.5v238q0 18 -6.5 34.5
t-18 28.5t-26 19.5t-30.5 7.5q-32 0 -56.5 -26t-24.5 -64v-237q0 -15 -19 -28t-45 -13q-27 0 -46 13t-19 28v237q0 42 15.5 79t42 64.5t61.5 43.5t74 16q47 0 88.5 -17.5t73.5 -52.5q32 35 73.5 52.5t89.5 17.5z" />
    <glyph glyph-name="n.ss04" horiz-adv-x="519" 
d="M259 481q44 0 83 -16.5t68 -44.5t46 -65t17 -77v-237q0 -17 -17.5 -29t-46.5 -12q-26 0 -45.5 12t-19.5 29v237q0 17 -6.5 33t-18 29t-27 20.5t-33.5 7.5t-33.5 -7.5t-27 -20t-18 -29t-6.5 -33.5v-237q0 -15 -19.5 -28t-45.5 -13t-45 13t-19 28v237q0 40 17 77t46 65
t68 44.5t83 16.5z" />
    <glyph glyph-name="one.lnum" horiz-adv-x="410" 
d="M13 57q0 24 12 40.5t29 16.5h92v461l-32 -32q-10 -9 -23 -9q-19 0 -30.5 16t-11.5 36q0 14 6 26t18 20l118 91q12 10 28 10q20 0 38.5 -11t18.5 -31v-577h90q15 0 28 -16.5t13 -40.5t-13 -40.5t-28 -16.5h-312q-17 0 -29 16.5t-12 40.5z" />
    <glyph glyph-name="q.ss02" horiz-adv-x="514" 
d="M208 -9q-35 0 -67 17t-56 45t-38.5 65t-14.5 78v81q0 39 16 76t45 65.5t69 45.5t88 17q43 0 82.5 -15t69.5 -42t48 -64.5t18 -83.5v-456q0 -16 -18 -28.5t-46 -12.5q-27 0 -46 12.5t-19 28.5v250q-15 -31 -50.5 -55t-80.5 -24zM249 104q19 0 35.5 8.5t28.5 20.5t19 24.5
t7 20.5v96q0 42 -26.5 68t-63.5 26q-21 0 -37.5 -8.5t-28 -21.5t-17 -29t-5.5 -32v-81q0 -17 7.5 -33.5t19.5 -29.5t28 -21t33 -8z" />
    <glyph glyph-name="r.ss04" horiz-adv-x="369" 
d="M284 368q-23 0 -43.5 -11.5t-36 -32t-24.5 -48.5t-9 -62v-173q0 -15 -19 -28t-47 -13q-27 0 -45 13t-18 28v175q0 48 14 95.5t41 85t67.5 61t94.5 23.5h55q25 0 37.5 -16.5t12.5 -39.5t-14 -40t-33 -17h-33z" />
    <glyph glyph-name="u.ss04" horiz-adv-x="528" 
d="M221 -9q-35 0 -67 17t-56 45t-38 65t-14 78v238q0 19 19 30t47 11q27 0 45 -11t18 -30v-238q0 -17 7 -33.5t18.5 -29.5t27.5 -21t34 -8t33.5 8t27.5 20.5t19 27t7 26.5v248q0 18 19 29.5t47 11.5q27 0 45 -11.5t18 -29.5v-393q0 -16 -18 -28.5t-45 -12.5q-24 0 -41 12.5
t-17 28.5v29q-15 -31 -51.5 -55t-84.5 -24z" />
    </font>
</defs>
</svg>
